<svg width="37" height="11" viewBox="0 0 37 11" fill="none" xmlns="http://www.w3.org/2000/svg">
<path d="M3.3 10.105C3.26 10.105 3.18 10.065 3.06 9.985L1.08 1.825L0.15 1.525V0.954999H3.405V1.6L2.55 1.9L3.6 6.535C3.69 6.955 3.835 7.65 4.035 8.62H4.2C4.24 8.44 4.33 8.1 4.47 7.6C4.61 7.1 4.725 6.685 4.815 6.355C5.185 5.045 5.465 4.025 5.655 3.295L5.295 1.825L4.485 1.48V0.954999H7.74V1.645L6.765 1.9L7.71 6.535C7.8 6.955 7.945 7.65 8.145 8.62H8.31L8.85 6.34C9.45 3.84 9.8 2.36 9.9 1.9L8.82 1.6V0.954999H12.135V1.525L11.205 1.825L10.2 5.695L9.105 9.895C8.785 9.945 8.46 9.99 8.13 10.03C7.81 10.07 7.585 10.095 7.455 10.105C7.415 10.105 7.335 10.065 7.215 9.985L6.24 5.62H6.105L4.95 9.895C4.63 9.945 4.305 9.99 3.975 10.03C3.655 10.07 3.43 10.095 3.3 10.105ZM16.8664 10.135C15.5264 10.135 14.5264 9.785 13.8664 9.085C13.2064 8.375 12.8764 7.265 12.8764 5.755C12.8764 5.085 12.9164 4.48 12.9964 3.94C13.0764 3.39 13.1864 2.94 13.3264 2.59C13.4764 2.35 13.7164 2.095 14.0464 1.825C14.3864 1.545 14.7264 1.31 15.0664 1.12C15.4164 0.93 15.6664 0.835 15.8164 0.835C17.1564 0.835 18.1564 1.19 18.8164 1.9C19.4764 2.6 19.8064 3.71 19.8064 5.23C19.8064 6.39 19.6814 7.44 19.4314 8.38C19.2714 8.6 19.0114 8.85 18.6514 9.13C18.3014 9.41 17.9514 9.65 17.6014 9.85C17.2614 10.04 17.0164 10.135 16.8664 10.135ZM16.7464 9.235C16.8564 9.235 17.0864 9.145 17.4364 8.965C17.7964 8.785 17.9964 8.66 18.0364 8.59C18.2264 7.75 18.3214 6.72 18.3214 5.5C18.3214 4.25 18.1664 3.315 17.8564 2.695C17.5464 2.075 16.9964 1.765 16.2064 1.765C15.7064 1.765 15.3414 1.825 15.1114 1.945C14.8614 2.075 14.6714 2.44 14.5414 3.04C14.4214 3.64 14.3614 4.445 14.3614 5.455C14.3614 6.435 14.4314 7.195 14.5714 7.735C14.7214 8.275 14.9664 8.66 15.3064 8.89C15.6464 9.12 16.1264 9.235 16.7464 9.235ZM21.0792 9.43L22.0092 9.13V1.825L21.0792 1.525V0.954999H24.8592C25.6892 0.954999 26.2992 1.14 26.6892 1.51C27.0792 1.87 27.2742 2.505 27.2742 3.415C27.2742 4.145 27.1092 4.725 26.7792 5.155C26.4592 5.575 26.0392 5.845 25.5192 5.965V6.055C26.3092 7.375 26.9442 8.405 27.4242 9.145L28.2342 9.37V10H26.2542C26.1142 9.72 25.8542 9.22 25.4742 8.5C24.8542 7.36 24.4392 6.56 24.2292 6.1H23.4042V9.055L24.4092 9.31V10H21.0792V9.43ZM24.6192 5.245C25.0392 5.245 25.3392 5.145 25.5192 4.945C25.7092 4.735 25.8042 4.325 25.8042 3.715C25.8042 3.025 25.7342 2.52 25.5942 2.2C25.4542 1.88 25.2392 1.72 24.9492 1.72L23.4042 1.87V5.245H24.6192ZM28.9894 9.43L29.9194 9.13V1.825L28.9894 1.525V0.954999H32.3044V1.6L31.3144 1.9V9.055L32.3044 9.355V10H28.9894V9.43ZM34.7644 10C34.7344 9.96 34.3494 9.4 33.6094 8.32C32.6394 6.91 32.0244 6.01 31.7644 5.62V5.2L34.0594 1.9L33.0844 1.6V0.954999H36.3994V1.525L35.4694 1.825L33.0244 5.2C33.4344 5.77 33.9644 6.485 34.6144 7.345C35.2744 8.205 35.7494 8.8 36.0394 9.13L36.7894 9.37V10H34.7644Z" fill="#303231"/>
</svg>
