<svg width="152" height="77" viewBox="0 0 152 77" fill="none" xmlns="http://www.w3.org/2000/svg">
<path d="M1.26345 60.5004L3.21276 60.3605L8.68065 73.9087L7.18045 75.1614L7.6071 76.2185L18.6789 71.7488L16.3525 67.0264L14.8502 67.6328L15.9589 71.2616L11.2117 72.7252L8.98857 67.2169L12.994 65.4381L12.4663 64.1306L8.34859 65.6311L5.87849 59.5108L10.5393 57.1116L12.444 60.5485L13.9462 59.942L12.0477 54.9174L0.836793 59.4432L1.26345 60.5004ZM13.0199 55.7543L14.9692 55.6144L22.0656 60.773L20.6875 69.0616L19.4376 70.2132L19.8643 71.2703L26.2348 68.6986L25.752 67.5023L23.5245 67.7545L24.6314 61.8401L24.7427 61.7952L29.1995 65.4635L27.5045 66.7948L27.9873 67.9911L34.1353 65.5092L33.7086 64.452L31.7593 64.5919L25.4663 59.8207L26.9869 50.7629L28.4871 49.5102L28.0604 48.4531L21.4118 51.1371L21.8945 52.3334L23.983 52.1374L22.9561 58.7312L22.8448 58.7761L17.529 54.7428L19.224 53.4115L18.7412 52.2153L12.5932 54.6972L13.0199 55.7543ZM29.1636 49.2371L31.113 49.0972L36.5808 62.6454L35.0806 63.8981L35.5073 64.9553L42.7958 62.0129C44.2424 61.429 45.1924 60.6033 45.6459 59.5359C46.1179 58.4611 46.0096 57.0705 45.321 55.3642C44.4901 53.3055 43.3794 51.9962 41.9887 51.436C40.624 50.887 39.172 50.9231 37.6327 51.5445L35.4628 52.4205L33.7562 48.1919L35.8963 46.6809L35.4135 45.4847L28.737 48.18L29.1636 49.2371ZM38.6065 52.9955C39.1814 52.7634 39.6342 52.6561 39.9648 52.6736C40.3139 52.6837 40.6692 52.8961 41.0307 53.3109C41.3997 53.7443 41.7976 54.4896 42.2242 55.5467C42.7856 56.9377 43.0769 58.0603 43.0981 58.9145C43.1454 59.7797 42.9094 60.3171 42.3901 60.5267L39.1343 61.5176L36.1028 54.0062L38.6065 52.9955ZM43.1545 43.589L45.1038 43.4492L50.5717 56.9974L49.0715 58.2501L49.4981 59.3072L60.57 54.8375L58.2435 50.1151L56.7413 50.7215L57.85 54.3503L53.1027 55.8139L50.8796 50.3055L54.885 48.5268L54.3573 47.2193L50.2396 48.7198L47.7695 42.5995L52.4303 40.2003L54.335 43.6372L55.8372 43.0307L53.9388 38.0061L42.7278 42.5319L43.1545 43.589ZM56.3575 38.259L58.3068 38.1191L63.7747 51.6674L62.2745 52.92L62.7012 53.9772L69.7115 51.1471C71.2508 50.5257 72.2436 49.7259 72.6899 48.7477C73.1437 47.788 73.0301 46.4643 72.3489 44.7766C71.8025 43.4227 71.0624 42.4706 70.1285 41.9201C69.2207 41.3808 68.2396 41.1944 67.1854 41.3612L67.1181 41.1943C67.5951 38.1547 68.0018 35.769 68.3381 34.0372L69.6719 33.0134L69.2004 31.845L65.5283 33.3274C65.4782 33.9515 65.3703 35.0735 65.2045 36.6934C64.908 39.2719 64.7371 41.0663 64.692 42.0766L63.1619 42.6943L60.9501 37.2138L62.6231 35.9884L62.1066 34.7087L55.9308 37.2019L56.3575 38.259ZM66.0552 43.3704C66.8342 43.0559 67.4654 43.0168 67.9489 43.253C68.4585 43.5002 68.9415 44.1895 69.3981 45.3208C69.9146 46.6005 70.1628 47.5895 70.1427 48.2878C70.1226 48.9861 69.8436 49.4438 69.3058 49.661L66.3282 50.5395L63.8019 44.28L66.0552 43.3704ZM71.0553 32.3255L73.0046 32.1857L78.4725 45.7339L76.9445 46.9978L77.3712 48.0549L83.5469 45.5618L83.0641 44.3656L81.0035 44.5504L75.6479 31.2803L77.2594 29.9827L76.7766 28.7865L70.6287 31.2684L71.0553 32.3255ZM79.5307 28.9041L81.48 28.7642L86.9479 42.3124L85.4477 43.5651L85.8743 44.6222L96.9462 40.1526L94.6197 35.4301L93.1175 36.0365L94.2262 39.6654L89.4789 41.1289L87.2558 35.6206L91.2612 33.8418L90.7335 32.5343L86.6158 34.0348L84.1457 27.9145L88.8065 25.5153L90.7112 28.9522L92.2134 28.3457L90.315 23.3211L79.104 27.8469L79.5307 28.9041ZM101.937 18.4028C101.863 18.4327 101.745 18.5668 101.582 18.805L101.6 28.3092C101.596 29.3677 101.653 31.4047 101.77 34.4201L101.575 34.4987L97.5079 23.6202L97.1037 22.6187L98.7152 21.3211L98.2324 20.1248L92.307 22.5169L92.7337 23.574L94.683 23.4342L100.151 36.9824L98.6507 38.2351L99.0774 39.2922L104.196 37.2258L104.246 26.3677C104.24 25.6583 104.137 23.7477 103.938 20.636L104.161 20.5462L108.576 32.2871L108.969 33.2608L107.357 34.5584L107.84 35.7547L113.766 33.3626L113.339 32.3054L111.39 32.4453L105.349 17.4783C104.874 17.5838 104.251 17.7492 103.479 17.9745C102.718 18.1737 102.204 18.3165 101.937 18.4028ZM113.84 13.5329C112.968 13.8848 112.268 14.5017 111.74 15.3836C111.212 16.2655 110.946 17.3973 110.943 18.7789C110.966 20.1716 111.333 21.7489 112.044 23.5108C112.553 24.772 113.095 25.9012 113.67 26.8984C114.252 27.9143 114.801 28.685 115.315 29.2108C115.773 29.5436 116.418 29.8331 117.25 30.0793C118.091 30.3441 118.897 30.5254 119.67 30.6232C120.443 30.721 120.968 30.7138 121.246 30.6015C121.777 30.3658 122.513 30.0255 123.455 29.5805C124.423 29.1466 125.365 28.7017 126.28 28.2457L124.004 23.5676L122.502 24.1741L123.313 27.1464C122.906 27.4188 122.352 27.7289 121.651 28.0765C120.95 28.4241 120.414 28.6728 120.043 28.8225C119.672 28.9723 119.353 29.0364 119.086 29.015C118.543 28.9536 117.931 28.4244 117.248 27.4275C116.565 26.4306 115.879 25.079 115.191 23.3727C114.143 20.7762 113.732 18.8499 113.958 17.5938C114.211 16.3488 114.884 15.5055 115.978 15.0638L117.981 14.2552L119.88 17.5974L121.288 16.9968L119.328 12.0615C118.831 12.1113 117.866 12.3391 116.434 12.7447C115.001 13.1504 114.137 13.4131 113.84 13.5329ZM122.019 11.7515L123.969 11.6116L129.437 25.1598L127.936 26.4125L128.363 27.4696L139.435 23L137.108 18.2775L135.606 18.8839L136.715 22.5128L131.968 23.9763L129.745 18.468L133.75 16.6893L133.222 15.3817L129.105 16.8823L126.634 10.7619L131.295 8.36272L133.2 11.7996L134.702 11.1932L132.804 6.16851L121.593 10.6943L122.019 11.7515ZM140.175 2.90156C138.784 3.46308 137.013 4.28578 134.863 5.36967L137.112 10.3821L138.67 9.75318L137.857 6.45768C138.536 6.05441 139.236 5.65293 139.959 5.25323C140.708 4.8646 141.333 4.56921 141.834 4.36706C141.945 4.32214 142.142 4.3828 142.425 4.54903C142.708 4.71527 142.991 4.93536 143.274 5.2093C143.564 5.50179 143.773 5.80568 143.901 6.12097C144.193 6.84428 144.167 7.5556 143.824 8.25493C143.499 8.94677 142.913 9.81958 142.066 10.8733C141.396 11.726 140.871 12.4556 140.491 13.0622C140.11 13.6688 139.845 14.3474 139.695 15.0982C139.563 15.8414 139.655 16.6025 139.969 17.3814C140.179 17.9007 140.42 18.3642 140.692 18.7719C141.079 19.0901 141.688 19.3946 142.517 19.6853C143.346 19.9761 144.163 20.1852 144.97 20.3127C145.783 20.4586 146.348 20.468 146.663 20.3407C146.812 20.2808 147.865 19.7371 149.822 18.7095C150.037 18.6011 150.262 18.489 150.495 18.3731C150.729 18.2573 150.959 18.1321 151.185 17.9977L149.048 13.2635L147.49 13.8924L148.218 16.8984C147.669 17.2493 147.006 17.6358 146.227 18.058C145.475 18.4912 144.894 18.7901 144.486 18.9549C144.245 19.0522 143.974 18.9676 143.672 18.7012C143.378 18.4533 143.093 17.9862 142.816 17.3C142.516 16.5581 142.525 15.832 142.842 15.1216C143.159 14.4112 143.712 13.5627 144.5 12.5759C145.269 11.5967 145.844 10.8038 146.225 10.1972C146.632 9.60166 146.919 8.92479 147.088 8.16659C147.256 7.40839 147.172 6.61199 146.835 5.7774C146.648 5.31374 146.409 4.88181 146.118 4.48161C145.709 4.10779 145.098 3.77175 144.288 3.47348C143.477 3.17521 142.673 2.97164 141.874 2.86275C141.094 2.74637 140.527 2.75931 140.175 2.90156Z" fill="#686565"/>
</svg>
