<svg width="41" height="11" viewBox="0 0 41 11" fill="none" xmlns="http://www.w3.org/2000/svg">
<path d="M0.253174 9.47935L1.18288 9.17836L3.57503 1.1058C3.89498 1.05546 4.21494 1.01012 4.5349 0.969776C4.86486 0.929424 5.09483 0.904178 5.22482 0.89404C5.26482 0.893997 5.34486 0.933911 5.46494 1.01378L7.91788 9.17117L8.84817 9.47018L8.84872 10.0402L5.41373 10.0438L5.4131 9.39884L6.43281 9.09776L5.84578 7.01338L3.05578 7.01636L2.50281 9.10195L3.5681 9.40081L3.56873 10.0458L0.253729 10.0494L0.253174 9.47935ZM5.62 6.21862L4.53609 2.19978L4.35609 2.19997L3.28001 6.22112L5.62 6.21862ZM9.4211 9.46957L10.3508 9.16857L10.3437 1.86358L9.41341 1.56457L9.41285 0.99457L13.1179 0.990616C13.8979 0.989784 14.478 1.16417 14.8584 1.51376C15.2387 1.86335 15.4293 2.46815 15.4301 3.32815C15.4307 3.88815 15.3011 4.30329 15.0413 4.57357C14.7816 4.84384 14.4618 5.06918 14.082 5.24959L14.0821 5.33959C14.6722 5.43896 15.1424 5.67346 15.4928 6.04309C15.8531 6.4027 16.0336 6.86251 16.0341 7.42251C16.035 8.36251 15.7857 9.03277 15.2861 9.43331C14.7965 9.83383 14.1367 10.0345 13.3067 10.0354L9.42165 10.0396L9.4211 9.46957ZM12.7768 5.08598C13.1968 5.08553 13.4967 4.98521 13.6765 4.78502C13.8663 4.57482 13.9609 4.16472 13.9603 3.55472C13.9597 2.87472 13.9092 2.38977 13.8089 2.09988C13.7186 1.79998 13.5535 1.66515 13.3135 1.69541L11.7387 1.87709L11.7418 5.08709L12.7768 5.08598ZM13.726 9.32997C14.026 9.35965 14.2409 9.21442 14.3705 8.89428C14.5002 8.56415 14.5647 8.01408 14.5639 7.24408C14.5635 6.84408 14.5133 6.55413 14.4131 6.37424C14.3129 6.18434 14.1778 6.06449 14.0077 6.01467C13.8377 5.96485 13.5977 5.94011 13.2877 5.94044L11.7427 5.94209L11.7458 9.12209L13.726 9.32997ZM21.0879 10.1621C19.7479 10.1635 18.7476 9.81461 18.0869 9.11532C17.4262 8.40602 17.0951 7.29638 17.0937 5.78638C17.093 5.11638 17.1324 4.51133 17.2119 3.97125C17.2914 3.42116 17.4009 2.97105 17.5406 2.6209C17.6903 2.38074 17.9301 2.12548 18.2598 1.85513C18.5996 1.57477 18.9393 1.3394 19.2791 1.14904C19.629 0.958669 19.8789 0.863402 20.0289 0.863242C21.3689 0.861812 22.3692 1.21574 23.0299 1.92504C23.6906 2.62433 24.0217 3.73398 24.0231 5.25398C24.0243 6.41398 23.9003 7.46411 23.6512 8.40438C23.4914 8.62455 23.2317 8.87483 22.8719 9.15521C22.5222 9.43559 22.1724 9.67596 21.8226 9.87633C21.4828 10.0667 21.2379 10.162 21.0879 10.1621ZM20.967 9.26225C21.077 9.26213 21.3069 9.17188 21.6568 8.99151C22.0166 8.81112 22.2165 8.68591 22.2564 8.61587C22.4456 7.77567 22.5396 6.74557 22.5384 5.52557C22.5372 4.27557 22.3813 3.34073 22.0707 2.72106C21.7601 2.10139 21.2098 1.79198 20.4198 1.79282C19.9198 1.79336 19.5548 1.85375 19.3249 1.97399C19.0751 2.10426 18.8854 2.46946 18.756 3.0696C18.6366 3.66973 18.5774 4.47479 18.5784 5.48479C18.5793 6.46479 18.6501 7.22472 18.7906 7.76457C18.9411 8.30441 19.1865 8.68915 19.5267 8.91878C19.8669 9.14842 20.347 9.26291 20.967 9.26225ZM28.3757 10.1393C26.8857 10.1409 26.1398 9.25173 26.1381 7.47173L26.1326 1.84673L25.2023 1.54772L25.2018 0.977721L28.5167 0.974183L28.5174 1.61918L27.5277 1.92024L27.5328 7.15524C27.5335 7.86524 27.6139 8.34015 27.7741 8.57998C27.9444 8.8098 28.1645 8.92456 28.4345 8.92428C28.6045 8.92409 28.9144 8.86876 29.3643 8.75828C29.8242 8.63779 30.2591 8.51733 30.669 8.39689L30.6627 1.91689L29.6724 1.61795L29.6717 0.972951L32.9867 0.969413L32.9873 1.53941L32.0576 1.84041L32.0647 9.1454L32.995 9.44441L32.9955 10.0144L31.0155 10.0165L30.6997 9.13186C30.6197 9.16194 30.5298 9.20204 30.4298 9.25215C30.3299 9.30225 30.2199 9.35237 30.0999 9.4025C29.0604 9.89361 28.4857 10.1392 28.3757 10.1393ZM35.5852 9.44165L36.5149 9.14065L36.5078 1.83566L34.8729 1.9274L34.7247 3.78756L33.9297 3.78841L33.7319 0.968618L40.6769 0.961206L40.4847 3.78141L39.6747 3.78228L39.5229 1.92244L37.9028 1.83417L37.9098 9.06416L38.9001 9.36311L38.9007 10.0081L35.5857 10.0116L35.5852 9.44165Z" fill="#9FBFB5"/>
</svg>
