<svg width="115" height="70" viewBox="0 0 115 70" fill="none" xmlns="http://www.w3.org/2000/svg">
<path d="M13.808 67.405C12.9665 67.8237 12.0405 67.9382 11.0302 67.7484C10.02 67.5586 8.99698 67.0065 7.96132 66.0922C6.93465 65.151 5.99818 63.8298 5.15192 62.1287C4.54617 60.911 4.06104 59.7562 3.69653 58.6643C3.32311 57.5544 3.1103 56.6327 3.0581 55.8991C3.1129 55.3357 3.32443 54.6608 3.69271 53.8744C4.05208 53.0701 4.45154 52.3464 4.89108 51.7032C5.33063 51.0601 5.68469 50.6717 5.95328 50.538C6.48145 50.2975 7.22445 49.9725 8.18228 49.5629C9.1491 49.1265 10.1069 48.7169 11.0557 48.3342L13.0451 53.1413L11.5947 53.863L9.90948 51.2836C9.4352 51.4079 8.83554 51.617 8.11049 51.9107C7.38544 52.2045 6.84386 52.4405 6.48574 52.6187C6.12763 52.7969 5.86786 52.9931 5.70644 53.2075C5.3925 53.6541 5.38194 54.4636 5.67474 55.6359C5.96754 56.8082 6.52371 58.2181 7.34325 59.8655C8.59038 62.3724 9.75886 63.9579 10.8487 64.6219C11.9475 65.2591 13.0252 65.3149 14.0816 64.7892L16.0154 63.827L14.775 60.1886L16.1582 59.5338L18.5501 64.2747C18.1827 64.6138 17.3722 65.1847 16.1184 65.9873C14.8647 66.7899 14.0945 67.2624 13.808 67.405ZM28.3669 60.1606C25.9675 61.3545 23.8652 61.6188 22.0598 60.9534C20.2456 60.27 18.6659 58.5764 17.3208 55.8725C16.7239 54.6728 16.2566 53.5538 15.9188 52.5156C15.5721 51.4594 15.3682 50.5556 15.3071 49.8041C15.3619 49.2407 15.5645 48.5703 15.9149 47.7928C16.2742 46.9885 16.6737 46.2647 17.1132 45.6216C17.5707 44.9695 17.9337 44.5767 18.2023 44.443C20.6017 43.2491 22.7085 42.9938 24.5227 43.6771C26.3281 44.3426 27.9078 46.0362 29.2618 48.758C30.2951 50.8351 31.0066 52.8267 31.3964 54.7327C31.3058 55.2692 31.063 55.9485 30.6678 56.7706C30.2905 57.5839 29.8776 58.3255 29.4291 58.9954C28.9895 59.6386 28.6355 60.027 28.3669 60.1606ZM27.3503 58.656C27.5473 58.5579 27.8789 58.1919 28.3453 57.5577C28.8295 56.9146 29.0763 56.5126 29.0856 56.3516C28.6775 54.6782 27.9301 52.7492 26.8433 50.5646C25.7298 48.3262 24.6193 46.7901 23.512 45.9561C22.4046 45.122 21.1436 45.057 19.7291 45.7608C18.8338 46.2063 18.2337 46.639 17.9287 47.0588C17.5969 47.5143 17.5818 48.3372 17.8835 49.5274C18.2031 50.7087 18.8128 52.2037 19.7125 54.0122C20.5855 55.7671 21.3879 57.0656 22.1196 57.9078C22.8692 58.7411 23.6509 59.2123 24.4645 59.3212C25.2782 59.4301 26.2401 59.2084 27.3503 58.656ZM45.2571 51.6892C45.1855 51.7248 45.0066 51.7245 44.7205 51.6881L37.6227 45.3684C36.8281 44.6691 35.3417 43.2753 33.1636 41.187L32.9756 41.2805L38.4153 51.5417L38.8963 52.5086L40.9362 52.1638L41.5108 53.3188L35.7899 56.1654L35.2822 55.1447L36.6802 53.7789L30.1728 40.6982L28.2403 40.9896L27.7326 39.9689L32.6746 37.5098L40.8305 44.6769C41.3573 45.152 42.7185 46.4964 44.9143 48.71L45.1292 48.603L39.2752 37.5092L38.8075 36.5691L36.7676 36.914L36.1931 35.759L41.914 32.9124L42.4217 33.9331L41.0237 35.2989L48.2125 49.7495C47.8184 50.0349 47.2811 50.3917 46.6005 50.8197C45.9467 51.2567 45.4989 51.5465 45.2571 51.6892ZM53.6986 45.9809L55.0966 44.6151L48.5893 31.5343L45.7418 33.1522L47.1301 36.6165L45.7066 37.3248L42.8454 32.4489L55.281 26.2611L57.4439 31.4845L55.9935 32.2062L54.068 29.0092L51.0871 30.2914L57.5276 43.2379L59.5675 42.893L60.1421 44.048L54.2064 47.0016L53.6986 45.9809ZM62.5116 41.5956L63.9096 40.2298L61.0182 23.6409C61.5466 23.2662 62.0795 22.9005 62.6169 22.5438C63.1721 22.1781 63.5617 21.9284 63.7855 21.7947C63.8572 21.7591 64.036 21.7594 64.3222 21.7958L75.9691 34.2291L77.9016 33.9377L78.4094 34.9584L72.2587 38.0189L71.6842 36.8639L73.2433 35.4179L70.3385 32.2056L65.3428 34.6914L66.2063 38.9194L68.3805 38.5078L68.9551 39.6627L63.0193 42.6163L62.5116 41.5956ZM69.2274 30.9825L63.7125 24.7463L63.3902 24.9067L65.0375 33.0674L69.2274 30.9825ZM84.1546 32.4012C83.313 32.8199 82.3871 32.9344 81.3768 32.7446C80.3665 32.5548 79.3436 32.0027 78.3079 31.0883C77.2812 30.1472 76.3448 28.826 75.4985 27.1249C74.8927 25.9072 74.4076 24.7524 74.0431 23.6605C73.6697 22.5506 73.4569 21.6289 73.4047 20.8953C73.4595 20.3319 73.671 19.657 74.0393 18.8706C74.3987 18.0663 74.7981 17.3426 75.2377 16.6994C75.6772 16.0562 76.0313 15.6678 76.2999 15.5342C76.828 15.2937 77.571 14.9687 78.5289 14.5591C79.4957 14.1227 80.4535 13.7131 81.4023 13.3303L83.3917 18.1375L81.9413 18.8592L80.2561 16.2798C79.7818 16.4041 79.1821 16.6132 78.4571 16.9069C77.732 17.2007 77.1904 17.4367 76.8323 17.6149C76.4742 17.7931 76.2144 17.9893 76.053 18.2037C75.7391 18.6503 75.7285 19.4598 76.0213 20.6321C76.3141 21.8044 76.8703 23.2143 77.6898 24.8617C78.937 27.3686 80.1054 28.9541 81.1953 29.6181C82.2941 30.2553 83.3717 30.3111 84.4282 29.7854L86.362 28.8232L85.1216 25.1847L86.5048 24.53L88.8967 29.2708C88.5293 29.61 87.7188 30.1809 86.465 30.9835C85.2112 31.7861 84.4411 32.2586 84.1546 32.4012ZM93.3046 26.2733L94.7026 24.9075L88.1953 11.8267L85.3478 13.4446L86.7362 16.9089L85.3127 17.6172L82.4514 12.7413L94.887 6.55349L97.0499 11.7769L95.5995 12.4986L93.674 9.3016L90.6931 10.5838L97.1336 23.5303L99.1736 23.1854L99.7481 24.3404L93.8124 27.294L93.3046 26.2733ZM109.686 19.6972C108.343 20.3654 106.552 21.1446 104.315 22.0347L102.057 17.0258L103.561 16.2773L105.488 19.0718C106.239 18.8318 107.005 18.5739 107.783 18.2981C108.571 17.9955 109.207 17.7239 109.69 17.4834C109.798 17.4299 109.883 17.2422 109.946 16.9204C110.009 16.5985 110.032 16.2407 110.015 15.8471C109.989 15.4356 109.901 15.0777 109.749 14.7733C109.402 14.0749 108.853 13.6221 108.102 13.415C107.369 13.1989 106.327 13.0582 104.977 12.9929C103.895 12.9282 103 12.837 102.294 12.7194C101.588 12.6017 100.904 12.3499 100.243 11.964C99.5997 11.5692 99.0911 10.9958 98.7169 10.2437C98.4675 9.7423 98.2807 9.25446 98.1564 8.78015C98.1753 8.27929 98.351 7.6222 98.6836 6.80889C99.0161 5.99557 99.4022 5.24498 99.8419 4.5571C100.273 3.85131 100.64 3.42269 100.945 3.27122C101.088 3.19994 102.193 2.77275 104.261 1.98965C104.485 1.90064 104.717 1.80718 104.959 1.70926C105.201 1.61134 105.447 1.52237 105.697 1.44236L107.821 6.18267L106.317 6.93109L104.551 4.39185C103.925 4.56952 103.195 4.80961 102.363 5.1121C101.54 5.38778 100.931 5.62363 100.537 5.81964C100.304 5.93547 100.187 6.19464 100.187 6.59714C100.177 6.98174 100.337 7.50532 100.666 8.16786C101.023 8.88413 101.572 9.35926 102.314 9.59327C103.056 9.82727 104.057 9.97681 105.318 10.0419C106.561 10.1159 107.536 10.2117 108.242 10.3293C108.957 10.4202 109.655 10.6541 110.334 11.0311C111.013 11.4081 111.552 11.9995 111.953 12.8053C112.176 13.2529 112.341 13.7184 112.447 14.2016C112.455 14.7562 112.301 15.4357 111.987 16.2401C111.672 17.0445 111.29 17.7817 110.842 18.4516C110.411 19.1127 110.026 19.5279 109.686 19.6972Z" fill="#9FBFB5"/>
</svg>
