<svg width="332" height="72" viewBox="0 0 332 72" fill="none" xmlns="http://www.w3.org/2000/svg">
<path d="M0.6 72V-2.86102e-06H11.7L64.5 62.8V-2.86102e-06H72.6V72H61.5L8.7 9.2V72H0.6ZM95.6031 72C93.4031 72 91.3698 71.4667 89.5031 70.4C87.7031 69.3333 86.2698 67.9 85.2031 66.1C84.1365 64.2333 83.6031 62.2 83.6031 60V12C83.6031 9.8 84.1365 7.8 85.2031 6C86.2698 4.13333 87.7031 2.66666 89.5031 1.59999C91.3698 0.53333 93.4031 -2.86102e-06 95.6031 -2.86102e-06H143.603C145.803 -2.86102e-06 147.803 0.53333 149.603 1.59999C151.47 2.66666 152.936 4.13333 154.003 6C155.07 7.8 155.603 9.8 155.603 12V60C155.603 62.2 155.07 64.2333 154.003 66.1C152.936 67.9 151.47 69.3333 149.603 70.4C147.803 71.4667 145.803 72 143.603 72H95.6031ZM95.6031 63.9H143.603C144.67 63.9 145.57 63.5333 146.303 62.8C147.103 62 147.503 61.0667 147.503 60V12C147.503 10.9333 147.103 10.0333 146.303 9.3C145.57 8.49999 144.67 8.09999 143.603 8.09999H95.6031C94.5365 8.09999 93.6031 8.49999 92.8031 9.3C92.0698 10.0333 91.7031 10.9333 91.7031 12V60C91.7031 61.0667 92.0698 62 92.8031 62.8C93.6031 63.5333 94.5365 63.9 95.6031 63.9ZM166.616 72V-2.86102e-06H177.716L207.616 35.6L237.516 -2.86102e-06H248.616V72H240.516V9.2L207.616 48.3L174.716 9.2V72H166.616ZM271.189 72C268.989 72 266.956 71.4667 265.089 70.4C263.289 69.3333 261.856 67.9 260.789 66.1C259.722 64.2333 259.189 62.2 259.189 60V12C259.189 9.8 259.722 7.8 260.789 6C261.856 4.13333 263.289 2.66666 265.089 1.59999C266.956 0.53333 268.989 -2.86102e-06 271.189 -2.86102e-06H319.189C321.389 -2.86102e-06 323.389 0.53333 325.189 1.59999C327.056 2.66666 328.522 4.13333 329.589 6C330.656 7.8 331.189 9.8 331.189 12V60C331.189 62.2 330.656 64.2333 329.589 66.1C328.522 67.9 327.056 69.3333 325.189 70.4C323.389 71.4667 321.389 72 319.189 72H271.189ZM271.189 63.9H319.189C320.256 63.9 321.156 63.5333 321.889 62.8C322.689 62 323.089 61.0667 323.089 60V12C323.089 10.9333 322.689 10.0333 321.889 9.3C321.156 8.49999 320.256 8.09999 319.189 8.09999H271.189C270.122 8.09999 269.189 8.49999 268.389 9.3C267.656 10.0333 267.289 10.9333 267.289 12V60C267.289 61.0667 267.656 62 268.389 62.8C269.189 63.5333 270.122 63.9 271.189 63.9Z" fill="#632AAC"/>
</svg>
