<svg width="208" height="77" viewBox="0 0 208 77" fill="none" xmlns="http://www.w3.org/2000/svg">
<path d="M65.1716 15.46C64.985 15.46 64.5516 15.36 63.8716 15.16L63.1716 14.98V14.04C64.4383 14.04 65.1716 14.02 65.3716 13.98C65.7983 13.9 66.0116 13.1067 66.0116 11.6V2.1L64.7116 1.7V0.939999H69.1716V1.7L67.8716 2.1V12.24C67.8716 12.6267 67.6916 13.0667 67.3316 13.56C66.985 14.0667 66.5916 14.5067 66.1516 14.88C65.7116 15.2667 65.385 15.46 65.1716 15.46ZM73.8273 13.18C73.2806 13.18 72.7673 13.0267 72.2873 12.72C71.8206 12.4 71.4406 11.9133 71.1473 11.26C70.8539 10.6067 70.7073 9.79333 70.7073 8.82C70.7073 8.19333 70.7473 7.61333 70.8273 7.08C70.9206 6.53333 71.0406 6.12 71.1873 5.84C71.4006 5.53333 71.8739 5.12667 72.6073 4.62C73.3539 4.11333 73.8473 3.86 74.0873 3.86C74.3539 3.86 75.5206 4.01333 77.5873 4.32V11.84L78.2673 12.12V12.86C77.2139 13.0733 76.6273 13.18 76.5073 13.18C76.4539 13.18 76.3273 13.0867 76.1273 12.9C75.9273 12.7133 75.8273 12.5867 75.8273 12.52V11.74C75.7473 11.8067 75.4139 12.0667 74.8273 12.52C74.2406 12.96 73.9073 13.18 73.8273 13.18ZM73.9473 11.7C74.0939 11.7 74.7006 11.4333 75.7673 10.9V5.4C75.4339 5.29333 75.0006 5.2 74.4673 5.12C73.9339 5.02667 73.5739 4.99333 73.3873 5.02C73.1339 5.06 72.9406 5.34667 72.8073 5.88C72.6873 6.41333 72.6273 7.34667 72.6273 8.68C72.6273 9.36 72.7006 9.92667 72.8473 10.38C73.0073 10.8333 73.1873 11.1667 73.3873 11.38C73.6006 11.5933 73.7873 11.7 73.9473 11.7ZM83.3121 13.18C83.0321 13.18 82.4721 13.1467 81.6321 13.08C80.7921 13.0267 80.1521 12.9733 79.7121 12.92L79.7521 10.04L80.7521 10.02L81.1721 11.54C81.4788 11.6467 81.8388 11.7467 82.2521 11.84C82.6788 11.92 82.9921 11.96 83.1921 11.96C83.2988 11.96 83.4254 11.8133 83.5721 11.52C83.7321 11.2267 83.8121 10.9667 83.8121 10.74C83.8121 10.5 83.7521 10.3 83.6321 10.14C83.5254 9.96667 83.3521 9.80667 83.1121 9.66C82.8721 9.5 82.4654 9.26667 81.8921 8.96C81.0788 8.52 80.5188 8.13333 80.2121 7.8C79.9054 7.46667 79.7521 7.06667 79.7521 6.6C79.7521 6.14667 79.7854 5.82 79.8521 5.62C80.0654 5.28667 80.4188 4.91333 80.9121 4.5C81.4188 4.08667 81.7788 3.88 81.9921 3.88C82.4321 3.88 82.9988 3.9 83.6921 3.94C84.3988 3.96667 84.9388 4 85.3121 4.04L85.2521 6.48H84.1321L83.9921 5.42C83.8854 5.38 83.5388 5.32 82.9521 5.24C82.3654 5.14667 81.9988 5.1 81.8521 5.1C81.5588 5.1 81.4121 5.38 81.4121 5.94C81.4121 6.19333 81.5054 6.41333 81.6921 6.6C81.8921 6.77333 82.1121 6.93333 82.3521 7.08C82.6054 7.22667 82.7721 7.32667 82.8521 7.38L83.3921 7.7C84.1121 8.1 84.6788 8.48 85.0921 8.84C85.5188 9.18667 85.7321 9.58667 85.7321 10.04C85.7321 10.3467 85.6854 10.6867 85.5921 11.06C85.3788 11.4467 85.0121 11.9 84.4921 12.42C83.9854 12.9267 83.5921 13.18 83.3121 13.18ZM91.0977 13.18C89.7111 13.18 88.6711 12.8267 87.9777 12.12C87.2844 11.4133 86.9377 10.3133 86.9377 8.82C86.9377 8.20667 86.9777 7.62667 87.0577 7.08C87.1511 6.52 87.2711 6.10667 87.4177 5.84C87.5511 5.64 87.8244 5.37333 88.2377 5.04C88.6644 4.70667 89.0911 4.41333 89.5177 4.16C89.9444 3.90667 90.2377 3.78 90.3977 3.78C91.7444 3.78 92.7577 4.14667 93.4377 4.88C94.1311 5.6 94.4777 6.64667 94.4777 8.02C94.4777 8.66 94.4311 9.26 94.3377 9.82C94.2577 10.38 94.1577 10.84 94.0377 11.2C93.8244 11.4933 93.3377 11.9 92.5777 12.42C91.8311 12.9267 91.3377 13.18 91.0977 13.18ZM91.1977 12.04C91.2911 12.0133 91.6311 11.8467 92.2177 11.54C92.4444 10.54 92.5577 9.45333 92.5577 8.28C92.5577 7.24 92.3644 6.42667 91.9777 5.84C91.6044 5.25333 91.0444 4.96 90.2977 4.96C89.9644 4.96 89.6977 5.01333 89.4977 5.12C89.3111 5.22667 89.1577 5.58 89.0377 6.18C88.9177 6.78 88.8577 7.56667 88.8577 8.54C88.8577 9.84667 89.0777 10.76 89.5177 11.28C89.9711 11.7867 90.5311 12.04 91.1977 12.04ZM97.3002 13.18C97.2336 13.18 97.1002 13.0867 96.9002 12.9C96.7136 12.7133 96.6202 12.5867 96.6202 12.52V5.22L95.9202 4.92V4.18C97.0136 3.98 97.6202 3.88 97.7402 3.88C97.8069 3.88 97.9269 3.97333 98.1002 4.16C98.2869 4.33333 98.3802 4.45333 98.3802 4.52V5.28C98.7802 4.98667 99.2069 4.68 99.6602 4.36C100.127 4.04 100.387 3.88 100.44 3.88C101.4 3.88 102.12 4.13333 102.6 4.64C103.08 5.13333 103.32 6 103.32 7.24V11.82L104.02 12.12V12.86C102.914 13.0733 102.307 13.18 102.2 13.18C102.134 13.18 102 13.0867 101.8 12.9C101.6 12.7133 101.5 12.5867 101.5 12.52V7.24C101.5 6.41333 101.38 5.89333 101.14 5.68C100.9 5.46667 100.634 5.36 100.34 5.36C100.194 5.36 99.8602 5.48 99.3402 5.72C98.8336 5.94667 98.5336 6.08 98.4402 6.12V11.82L99.1202 12.12V12.86C98.0269 13.0733 97.4202 13.18 97.3002 13.18ZM112.356 13.18C111.73 13.18 111.143 12.9733 110.596 12.56C110.05 12.1467 109.603 11.5133 109.256 10.66C108.923 9.79333 108.756 8.72667 108.756 7.46C108.756 6.55333 108.81 5.72 108.916 4.96C109.023 4.18667 109.17 3.57333 109.356 3.12C109.556 2.8 109.883 2.46 110.336 2.1C110.79 1.72667 111.243 1.41333 111.696 1.16C112.15 0.906667 112.476 0.78 112.676 0.78C113.063 0.793333 113.603 0.819999 114.296 0.859999C115.003 0.886666 115.696 0.926666 116.376 0.98L116.136 4.44H115.056L114.816 2.4C114.496 2.33333 114.076 2.28 113.556 2.24C113.036 2.2 112.643 2.18 112.376 2.18C112.11 2.18 111.896 2.22 111.736 2.3C111.416 2.47333 111.17 2.95333 110.996 3.74C110.823 4.52667 110.736 5.53333 110.736 6.76C110.736 8.62667 110.963 9.92 111.416 10.64C111.883 11.3467 112.51 11.7 113.296 11.7H114.736L115.076 9.16L116.096 9.18L116.116 12.72C115.796 12.8133 115.143 12.9133 114.156 13.02C113.17 13.1267 112.57 13.18 112.356 13.18ZM119.058 13.18C118.991 13.18 118.864 13.0867 118.678 12.9C118.491 12.7133 118.398 12.5867 118.398 12.52V1.42L117.698 1.14V0.399999C118.791 0.186666 119.398 0.0799994 119.518 0.0799994C119.584 0.0799994 119.718 0.173333 119.918 0.359999C120.118 0.546666 120.218 0.673333 120.218 0.739999L120.118 5.26L120.218 5.28C121.471 4.34667 122.138 3.88 122.218 3.88C123.178 3.88 123.898 4.13333 124.378 4.64C124.858 5.13333 125.098 6 125.098 7.24V11.82L125.798 12.12V12.86C124.691 13.0733 124.078 13.18 123.958 13.18C123.891 13.18 123.758 13.0867 123.558 12.9C123.371 12.7133 123.278 12.5867 123.278 12.52V7.24C123.278 6.41333 123.158 5.89333 122.918 5.68C122.691 5.46667 122.424 5.36 122.118 5.36C121.984 5.36 121.351 5.61333 120.218 6.12V11.82L120.898 12.12V12.86C119.791 13.0733 119.178 13.18 119.058 13.18ZM130.57 13.18C129.997 13.18 129.457 13.0267 128.95 12.72C128.444 12.4133 128.03 11.94 127.71 11.3C127.404 10.66 127.25 9.87333 127.25 8.94C127.25 8.27333 127.29 7.66 127.37 7.1C127.464 6.52667 127.584 6.10667 127.73 5.84C127.864 5.64 128.137 5.37333 128.55 5.04C128.977 4.70667 129.404 4.41333 129.83 4.16C130.27 3.90667 130.57 3.78 130.73 3.78C131.45 3.78 132.03 3.89333 132.47 4.12C132.924 4.34667 133.27 4.78 133.51 5.42C133.764 6.06 133.89 6.98 133.89 8.18L129.17 8.58C129.17 9.38 129.277 10.02 129.49 10.5C129.704 10.9667 129.95 11.2933 130.23 11.48C130.524 11.6667 130.79 11.76 131.03 11.76L131.97 11.72L133.61 11.66V12.48C133.117 12.64 132.53 12.8 131.85 12.96C131.184 13.1067 130.757 13.18 130.57 13.18ZM131.95 7.4C131.95 6.6 131.844 6 131.63 5.6C131.417 5.18667 131.064 4.98 130.57 4.98C130.277 4.98 130.024 5.02667 129.81 5.12C129.637 5.2 129.49 5.50667 129.37 6.04C129.264 6.57333 129.21 7.14667 129.21 7.76L131.95 7.4ZM136.656 13.18C136.589 13.18 136.456 13.0867 136.256 12.9C136.069 12.7133 135.976 12.5867 135.976 12.52V5.22L135.276 4.92V4.18C136.369 3.98 136.976 3.88 137.096 3.88C137.162 3.88 137.282 3.97333 137.456 4.16C137.642 4.33333 137.736 4.45333 137.736 4.52V5.28C138.136 4.98667 138.562 4.68 139.016 4.36C139.482 4.04 139.742 3.88 139.796 3.88C140.756 3.88 141.476 4.13333 141.956 4.64C142.436 5.13333 142.676 6 142.676 7.24V11.82L143.376 12.12V12.86C142.269 13.0733 141.662 13.18 141.556 13.18C141.489 13.18 141.356 13.0867 141.156 12.9C140.956 12.7133 140.856 12.5867 140.856 12.52V7.24C140.856 6.41333 140.736 5.89333 140.496 5.68C140.256 5.46667 139.989 5.36 139.696 5.36C139.549 5.36 139.216 5.48 138.696 5.72C138.189 5.94667 137.889 6.08 137.796 6.12V11.82L138.476 12.12V12.86C137.382 13.0733 136.776 13.18 136.656 13.18ZM45.7455 42.24L47.7855 41.82V35.16L45.6455 35.36V34.5L48.7455 33.52L49.5855 33.82V41.82L51.3455 42.24V43H45.7455V42.24ZM55.8255 45.24C55.0121 44.3333 54.3055 43.2467 53.7055 41.98C53.1188 40.7133 52.8255 39.1667 52.8255 37.34C52.8255 35.4867 53.1188 33.9333 53.7055 32.68C54.3055 31.4133 55.0121 30.32 55.8255 29.4L56.4455 29.92C55.8855 30.8267 55.4388 31.9467 55.1055 33.28C54.7855 34.6 54.6255 35.9467 54.6255 37.32C54.6255 38.7067 54.7921 40.0667 55.1255 41.4C55.4588 42.7333 55.8988 43.84 56.4455 44.72L55.8255 45.24ZM62.0069 43.18C60.7269 43.18 59.7335 42.7933 59.0269 42.02C58.3335 41.2467 57.9869 40.1733 57.9869 38.8C57.9869 37.4133 58.2669 36.2333 58.8269 35.26C59.3869 34.2733 60.1202 33.5133 61.0269 32.98C61.9335 32.4333 62.9269 32.0933 64.0069 31.96V33.06C62.8469 33.3 61.9002 33.8067 61.1669 34.58C60.4335 35.34 60.0202 36.1867 59.9269 37.12L59.9869 37.16C61.1069 36.5867 61.7269 36.3 61.8469 36.3C63.0202 36.3 63.8469 36.6067 64.3269 37.22C64.8069 37.8333 65.0469 38.6 65.0469 39.52C65.0469 39.76 65.0202 40.06 64.9669 40.42C64.9269 40.78 64.8802 41.0467 64.8269 41.22C64.5602 41.6067 64.1069 42.0333 63.4669 42.5C62.8402 42.9533 62.3535 43.18 62.0069 43.18ZM62.3269 42.02C62.5935 42.02 62.7935 41.8267 62.9269 41.44C63.0602 41.0533 63.1269 40.3933 63.1269 39.46C63.1269 38.7133 63.0069 38.2067 62.7669 37.94C62.5269 37.6733 62.1735 37.54 61.7069 37.54C61.6402 37.54 61.4069 37.6 61.0069 37.72C60.6202 37.8267 60.2535 37.94 59.9069 38.06C59.8935 38.3 59.8869 38.64 59.8869 39.08C59.8869 39.7867 59.9535 40.3533 60.0869 40.78C60.2202 41.1933 60.4602 41.5067 60.8069 41.72C61.1535 41.92 61.6602 42.02 62.3269 42.02ZM71.3541 42.14H66.4941L66.3741 41.16C66.8407 40.2 67.4074 38.9467 68.0741 37.4C68.7541 35.8533 69.3007 34.5533 69.7141 33.5L71.2941 34.16V34.58C71.0007 35.22 70.5141 36.2133 69.8341 37.56C69.1541 38.8933 68.6141 39.9133 68.2141 40.62L68.2541 40.78H71.3541V38.04L72.6941 37.54L73.0741 37.68V40.78H74.4341V42.14H73.0741V44.8H71.3541V42.14ZM80.2881 43.18C79.0081 43.18 78.0148 42.7933 77.3081 42.02C76.6148 41.2467 76.2681 40.1733 76.2681 38.8C76.2681 37.4133 76.5481 36.2333 77.1081 35.26C77.6681 34.2733 78.4015 33.5133 79.3081 32.98C80.2148 32.4333 81.2081 32.0933 82.2881 31.96V33.06C81.1281 33.3 80.1815 33.8067 79.4481 34.58C78.7148 35.34 78.3015 36.1867 78.2081 37.12L78.2681 37.16C79.3881 36.5867 80.0081 36.3 80.1281 36.3C81.3015 36.3 82.1281 36.6067 82.6081 37.22C83.0881 37.8333 83.3281 38.6 83.3281 39.52C83.3281 39.76 83.3015 40.06 83.2481 40.42C83.2081 40.78 83.1615 41.0467 83.1081 41.22C82.8415 41.6067 82.3881 42.0333 81.7481 42.5C81.1215 42.9533 80.6348 43.18 80.2881 43.18ZM80.6081 42.02C80.8748 42.02 81.0748 41.8267 81.2081 41.44C81.3415 41.0533 81.4081 40.3933 81.4081 39.46C81.4081 38.7133 81.2881 38.2067 81.0481 37.94C80.8081 37.6733 80.4548 37.54 79.9881 37.54C79.9215 37.54 79.6881 37.6 79.2881 37.72C78.9015 37.8267 78.5348 37.94 78.1881 38.06C78.1748 38.3 78.1681 38.64 78.1681 39.08C78.1681 39.7867 78.2348 40.3533 78.3681 40.78C78.5015 41.1933 78.7415 41.5067 79.0881 41.72C79.4348 41.92 79.9415 42.02 80.6081 42.02ZM84.7953 44.72C85.342 43.8267 85.782 42.7133 86.1153 41.38C86.4486 40.0467 86.6153 38.7 86.6153 37.34C86.6153 35.9533 86.4486 34.5933 86.1153 33.26C85.782 31.9267 85.342 30.8133 84.7953 29.92L85.4153 29.4C86.2286 30.3067 86.9286 31.3933 87.5153 32.66C88.1153 33.9267 88.4153 35.4733 88.4153 37.3C88.4153 39.1533 88.1153 40.7133 87.5153 41.98C86.9286 43.2333 86.2286 44.32 85.4153 45.24L84.7953 44.72ZM89.9367 37.42H94.8967V38.82H89.9367V37.42ZM100.659 43.18C99.3792 43.18 98.3859 42.7933 97.6792 42.02C96.9859 41.2467 96.6392 40.1733 96.6392 38.8C96.6392 37.4133 96.9192 36.2333 97.4792 35.26C98.0392 34.2733 98.7726 33.5133 99.6792 32.98C100.586 32.4333 101.579 32.0933 102.659 31.96V33.06C101.499 33.3 100.553 33.8067 99.8192 34.58C99.0859 35.34 98.6726 36.1867 98.5792 37.12L98.6392 37.16C99.7592 36.5867 100.379 36.3 100.499 36.3C101.673 36.3 102.499 36.6067 102.979 37.22C103.459 37.8333 103.699 38.6 103.699 39.52C103.699 39.76 103.673 40.06 103.619 40.42C103.579 40.78 103.533 41.0467 103.479 41.22C103.213 41.6067 102.759 42.0333 102.119 42.5C101.493 42.9533 101.006 43.18 100.659 43.18ZM100.979 42.02C101.246 42.02 101.446 41.8267 101.579 41.44C101.713 41.0533 101.779 40.3933 101.779 39.46C101.779 38.7133 101.659 38.2067 101.419 37.94C101.179 37.6733 100.826 37.54 100.359 37.54C100.293 37.54 100.059 37.6 99.6592 37.72C99.2726 37.8267 98.9059 37.94 98.5592 38.06C98.5459 38.3 98.5392 38.64 98.5392 39.08C98.5392 39.7867 98.6059 40.3533 98.7392 40.78C98.8726 41.1933 99.1126 41.5067 99.4592 41.72C99.8059 41.92 100.313 42.02 100.979 42.02ZM109.526 43.18C108.246 43.18 107.253 42.7933 106.546 42.02C105.853 41.2467 105.506 40.1733 105.506 38.8C105.506 37.4133 105.786 36.2333 106.346 35.26C106.906 34.2733 107.64 33.5133 108.546 32.98C109.453 32.4333 110.446 32.0933 111.526 31.96V33.06C110.366 33.3 109.42 33.8067 108.686 34.58C107.953 35.34 107.54 36.1867 107.446 37.12L107.506 37.16C108.626 36.5867 109.246 36.3 109.366 36.3C110.54 36.3 111.366 36.6067 111.846 37.22C112.326 37.8333 112.566 38.6 112.566 39.52C112.566 39.76 112.54 40.06 112.486 40.42C112.446 40.78 112.4 41.0467 112.346 41.22C112.08 41.6067 111.626 42.0333 110.986 42.5C110.36 42.9533 109.873 43.18 109.526 43.18ZM109.846 42.02C110.113 42.02 110.313 41.8267 110.446 41.44C110.58 41.0533 110.646 40.3933 110.646 39.46C110.646 38.7133 110.526 38.2067 110.286 37.94C110.046 37.6733 109.693 37.54 109.226 37.54C109.16 37.54 108.926 37.6 108.526 37.72C108.14 37.8267 107.773 37.94 107.426 38.06C107.413 38.3 107.406 38.64 107.406 39.08C107.406 39.7867 107.473 40.3533 107.606 40.78C107.74 41.1933 107.98 41.5067 108.326 41.72C108.673 41.92 109.18 42.02 109.846 42.02ZM114.214 42L117.594 37.88C117.994 37.3867 118.26 37 118.394 36.72C118.54 36.44 118.614 36.1333 118.614 35.8C118.614 35.5333 118.567 35.28 118.474 35.04C118.38 34.8 118.267 34.68 118.134 34.68C118.027 34.68 117.727 34.7267 117.234 34.82C116.754 34.9133 116.38 34.9933 116.114 35.06L115.914 36.72H114.914L114.774 33.94C115.214 33.8467 115.84 33.7533 116.654 33.66C117.48 33.5667 118.02 33.52 118.274 33.52C118.94 33.52 119.507 33.68 119.974 34C120.44 34.32 120.674 34.8267 120.674 35.52C120.674 35.9333 120.554 36.38 120.314 36.86C120.087 37.34 119.807 37.78 119.474 38.18L116.794 41.4V41.52H119.914L120.054 40.1H121.074L121.154 43H114.374L114.214 42ZM123.042 37.42H128.002V38.82H123.042V37.42ZM133.665 43.18C132.345 43.18 131.358 42.7667 130.705 41.94C130.051 41.1 129.725 39.9 129.725 38.34C129.725 37.5267 129.851 36.76 130.105 36.04C130.358 35.3067 130.778 34.7067 131.365 34.24C131.951 33.76 132.705 33.52 133.625 33.52C134.945 33.52 135.925 33.9333 136.565 34.76C137.205 35.5867 137.525 36.78 137.525 38.34C137.525 39.1533 137.398 39.9267 137.145 40.66C136.891 41.3933 136.478 42 135.905 42.48C135.331 42.9467 134.585 43.18 133.665 43.18ZM133.285 42.06C133.658 42.06 133.991 42.0067 134.285 41.9C134.591 41.78 134.925 41.6133 135.285 41.4C135.351 41.0933 135.398 40.7133 135.425 40.26C135.451 39.7933 135.465 39.1533 135.465 38.34C135.465 36.9933 135.345 36.04 135.105 35.48C134.878 34.92 134.491 34.64 133.945 34.64C133.291 34.64 132.638 34.86 131.985 35.3C131.891 35.62 131.831 36.0067 131.805 36.46C131.791 36.9 131.785 37.5267 131.785 38.34C131.785 39.6867 131.898 40.6467 132.125 41.22C132.351 41.78 132.738 42.06 133.285 42.06ZM139.593 43.74C140.393 43.5267 141.053 43.3 141.573 43.06C142.106 42.8333 142.54 42.5067 142.873 42.08C143.22 41.64 143.393 41.08 143.393 40.4C143.393 39.7467 143.246 39.2733 142.953 38.98C142.66 38.6867 142.293 38.54 141.853 38.54C141.773 38.54 141.386 38.66 140.693 38.9L139.753 39.22L139.433 38.78L139.893 33.7H143.493L143.593 32.8H144.553L144.673 35.18H141.113L140.893 37.84C140.933 37.8133 141.133 37.72 141.493 37.56C141.853 37.3867 142.1 37.3 142.233 37.3C143.273 37.3 144.046 37.5733 144.553 38.12C145.06 38.6533 145.313 39.2933 145.313 40.04C145.313 40.92 145.033 41.7133 144.473 42.42C143.913 43.1133 143.193 43.6667 142.313 44.08C141.446 44.4933 140.54 44.7467 139.593 44.84V43.74ZM147.367 43.74C148.393 43.4867 149.28 43.0867 150.027 42.54C150.773 41.98 151.147 41.32 151.147 40.56C151.147 40.1333 151.073 39.78 150.927 39.5C150.78 39.2067 150.607 39.06 150.407 39.06H148.347V38.22C149.267 37.9933 149.907 37.6933 150.267 37.32C150.64 36.9467 150.827 36.4333 150.827 35.78C150.827 35.5267 150.78 35.28 150.687 35.04C150.593 34.8 150.48 34.68 150.347 34.68C150.24 34.68 149.94 34.7267 149.447 34.82C148.953 34.9133 148.573 34.9933 148.307 35.06L148.107 36.52H147.107L146.967 33.94C147.42 33.8467 147.967 33.7533 148.607 33.66C149.247 33.5667 149.673 33.52 149.887 33.52C150.687 33.52 151.333 33.6933 151.827 34.04C152.32 34.3867 152.567 34.9133 152.567 35.62C152.567 35.9667 152.46 36.3133 152.247 36.66C152.047 36.9933 151.807 37.2867 151.527 37.54C151.26 37.78 151.04 37.9267 150.867 37.98V38.08C151.627 38.2267 152.187 38.48 152.547 38.84C152.907 39.1867 153.087 39.6933 153.087 40.36C153.087 40.9867 152.8 41.6267 152.227 42.28C151.667 42.92 150.94 43.4733 150.047 43.94C149.167 44.42 148.273 44.72 147.367 44.84V43.74ZM159.42 42.14H154.56L154.44 41.16C154.907 40.2 155.474 38.9467 156.14 37.4C156.82 35.8533 157.367 34.5533 157.78 33.5L159.36 34.16V34.58C159.067 35.22 158.58 36.2133 157.9 37.56C157.22 38.8933 156.68 39.9133 156.28 40.62L156.32 40.78H159.42V38.04L160.76 37.54L161.14 37.68V40.78H162.5V42.14H161.14V44.8H159.42V42.14ZM3.18641 73.18C2.70641 73.18 2.24641 73.0267 1.80641 72.72C1.36641 72.4 1.00641 71.9267 0.726406 71.3C0.45974 70.66 0.326406 69.8733 0.326406 68.94C0.326406 68.2867 0.366406 67.6733 0.446406 67.1C0.53974 66.5267 0.65974 66.1067 0.806406 65.84C0.93974 65.64 1.20641 65.38 1.60641 65.06C2.01974 64.74 2.43307 64.46 2.84641 64.22C3.25974 63.98 3.54641 63.86 3.70641 63.86C4.34641 63.86 5.07974 63.9867 5.90641 64.24L5.84641 66.8H4.62641L4.34641 65.42C4.18641 65.34 3.98641 65.2667 3.74641 65.2C3.50641 65.1333 3.29307 65.1 3.10641 65.1C2.98641 65.1 2.89307 65.1267 2.82641 65.18C2.63974 65.3267 2.49307 65.72 2.38641 66.36C2.29307 67 2.24641 67.7733 2.24641 68.68C2.24641 69.3733 2.31974 69.9467 2.46641 70.4C2.62641 70.8533 2.81307 71.1867 3.02641 71.4C3.23974 71.6133 3.44641 71.72 3.64641 71.72H5.90641V72.56C5.43974 72.7067 4.90641 72.8467 4.30641 72.98C3.71974 73.1133 3.34641 73.18 3.18641 73.18ZM8.48141 73.18C8.41474 73.18 8.28807 73.0867 8.10141 72.9C7.91474 72.7133 7.82141 72.5867 7.82141 72.52V61.42L7.12141 61.14V60.4C8.21474 60.1867 8.82141 60.08 8.94141 60.08C9.00807 60.08 9.14141 60.1733 9.34141 60.36C9.54141 60.5467 9.64141 60.6733 9.64141 60.74L9.54141 65.26L9.64141 65.28C10.8947 64.3467 11.5614 63.88 11.6414 63.88C12.6014 63.88 13.3214 64.1333 13.8014 64.64C14.2814 65.1333 14.5214 66 14.5214 67.24V71.82L15.2214 72.12V72.86C14.1147 73.0733 13.5014 73.18 13.3814 73.18C13.3147 73.18 13.1814 73.0867 12.9814 72.9C12.7947 72.7133 12.7014 72.5867 12.7014 72.52V67.24C12.7014 66.4133 12.5814 65.8933 12.3414 65.68C12.1147 65.4667 11.8481 65.36 11.5414 65.36C11.4081 65.36 10.7747 65.6133 9.64141 66.12V71.82L10.3214 72.12V72.86C9.21474 73.0733 8.60141 73.18 8.48141 73.18ZM19.9941 73.18C19.4207 73.18 18.8807 73.0267 18.3741 72.72C17.8674 72.4133 17.4541 71.94 17.1341 71.3C16.8274 70.66 16.6741 69.8733 16.6741 68.94C16.6741 68.2733 16.7141 67.66 16.7941 67.1C16.8874 66.5267 17.0074 66.1067 17.1541 65.84C17.2874 65.64 17.5607 65.3733 17.9741 65.04C18.4007 64.7067 18.8274 64.4133 19.2541 64.16C19.6941 63.9067 19.9941 63.78 20.1541 63.78C20.8741 63.78 21.4541 63.8933 21.8941 64.12C22.3474 64.3467 22.6941 64.78 22.9341 65.42C23.1874 66.06 23.3141 66.98 23.3141 68.18L18.5941 68.58C18.5941 69.38 18.7007 70.02 18.9141 70.5C19.1274 70.9667 19.3741 71.2933 19.6541 71.48C19.9474 71.6667 20.2141 71.76 20.4541 71.76L21.3941 71.72L23.0341 71.66V72.48C22.5407 72.64 21.9541 72.8 21.2741 72.96C20.6074 73.1067 20.1807 73.18 19.9941 73.18ZM21.3741 67.4C21.3741 66.6 21.2674 66 21.0541 65.6C20.8407 65.1867 20.4874 64.98 19.9941 64.98C19.7007 64.98 19.4474 65.0267 19.2341 65.12C19.0607 65.2 18.9141 65.5067 18.7941 66.04C18.6874 66.5733 18.6341 67.1467 18.6341 67.76L21.3741 67.4ZM26.0795 73.18C26.0129 73.18 25.8795 73.0867 25.6795 72.9C25.4929 72.7133 25.3995 72.5867 25.3995 72.52V65.22L24.6995 64.92V64.18C25.7929 63.98 26.3995 63.88 26.5195 63.88C26.5862 63.88 26.7062 63.9733 26.8795 64.16C27.0662 64.3333 27.1595 64.4533 27.1595 64.52V65.28C27.5595 64.9867 27.9862 64.68 28.4395 64.36C28.9062 64.04 29.1662 63.88 29.2195 63.88C30.1795 63.88 30.8995 64.1333 31.3795 64.64C31.8595 65.1333 32.0995 66 32.0995 67.24V71.82L32.7995 72.12V72.86C31.6929 73.0733 31.0862 73.18 30.9795 73.18C30.9129 73.18 30.7795 73.0867 30.5795 72.9C30.3795 72.7133 30.2795 72.5867 30.2795 72.52V67.24C30.2795 66.4133 30.1595 65.8933 29.9195 65.68C29.6795 65.4667 29.4129 65.36 29.1195 65.36C28.9729 65.36 28.6395 65.48 28.1195 65.72C27.6129 65.9467 27.3129 66.08 27.2195 66.12V71.82L27.8995 72.12V72.86C26.8062 73.0733 26.1995 73.18 26.0795 73.18ZM34.6322 72.24L36.6722 71.82V65.16L34.5322 65.36V64.5L37.6322 63.52L38.4722 63.82V71.82L40.2322 72.24V73H34.6322V72.24ZM42.1322 73.74C42.9322 73.5267 43.5922 73.3 44.1122 73.06C44.6455 72.8333 45.0789 72.5067 45.4122 72.08C45.7589 71.64 45.9322 71.08 45.9322 70.4C45.9322 69.7467 45.7855 69.2733 45.4922 68.98C45.1989 68.6867 44.8322 68.54 44.3922 68.54C44.3122 68.54 43.9255 68.66 43.2322 68.9L42.2922 69.22L41.9722 68.78L42.4322 63.7H46.0322L46.1322 62.8H47.0922L47.2122 65.18H43.6522L43.4322 67.84C43.4722 67.8133 43.6722 67.72 44.0322 67.56C44.3922 67.3867 44.6389 67.3 44.7722 67.3C45.8122 67.3 46.5855 67.5733 47.0922 68.12C47.5989 68.6533 47.8522 69.2933 47.8522 70.04C47.8522 70.92 47.5722 71.7133 47.0122 72.42C46.4522 73.1133 45.7322 73.6667 44.8522 74.08C43.9855 74.4933 43.0789 74.7467 42.1322 74.84V73.74ZM53.6256 73.18C52.3056 73.18 51.319 72.7667 50.6656 71.94C50.0123 71.1 49.6856 69.9 49.6856 68.34C49.6856 67.5267 49.8123 66.76 50.0656 66.04C50.319 65.3067 50.739 64.7067 51.3256 64.24C51.9123 63.76 52.6656 63.52 53.5856 63.52C54.9056 63.52 55.8856 63.9333 56.5256 64.76C57.1656 65.5867 57.4856 66.78 57.4856 68.34C57.4856 69.1533 57.359 69.9267 57.1056 70.66C56.8523 71.3933 56.439 72 55.8656 72.48C55.2923 72.9467 54.5456 73.18 53.6256 73.18ZM53.2456 72.06C53.619 72.06 53.9523 72.0067 54.2456 71.9C54.5523 71.78 54.8856 71.6133 55.2456 71.4C55.3123 71.0933 55.359 70.7133 55.3856 70.26C55.4123 69.7933 55.4256 69.1533 55.4256 68.34C55.4256 66.9933 55.3056 66.04 55.0656 65.48C54.839 64.92 54.4523 64.64 53.9056 64.64C53.2523 64.64 52.599 64.86 51.9456 65.3C51.8523 65.62 51.7923 66.0067 51.7656 66.46C51.7523 66.9 51.7456 67.5267 51.7456 68.34C51.7456 69.6867 51.859 70.6467 52.0856 71.22C52.3123 71.78 52.699 72.06 53.2456 72.06ZM60.2541 73.74C61.0541 73.58 61.7607 73.2933 62.3741 72.88C62.9874 72.4533 63.4674 71.9533 63.8141 71.38C64.1607 70.8067 64.3674 70.2133 64.4341 69.6L64.3741 69.56C64.0274 69.76 63.6807 69.9533 63.3341 70.14C63.0007 70.3267 62.7941 70.42 62.7141 70.42C61.5407 70.42 60.6807 70.0867 60.1341 69.42C59.5874 68.74 59.3141 67.94 59.3141 67.02C59.3141 66.7667 59.3407 66.4933 59.3941 66.2C59.4474 65.9067 59.5074 65.6733 59.5741 65.5C59.8274 65.1133 60.2674 64.6933 60.8941 64.24C61.5207 63.7733 62.0074 63.54 62.3541 63.54C63.6474 63.54 64.6407 63.9267 65.3341 64.7C66.0274 65.46 66.3741 66.5333 66.3741 67.92C66.3741 69.32 66.0874 70.52 65.5141 71.52C64.9541 72.5067 64.2074 73.2733 63.2741 73.82C62.3541 74.3667 61.3474 74.7067 60.2541 74.84V73.74ZM62.8541 69.18C62.9474 69.18 63.4807 69.0067 64.4541 68.66C64.4674 68.4467 64.4741 68.1467 64.4741 67.76C64.4741 67.0267 64.4074 66.4467 64.2741 66.02C64.1407 65.58 63.8941 65.2533 63.5341 65.04C63.1874 64.8133 62.6874 64.7 62.0341 64.7C61.7407 64.7 61.5341 64.8867 61.4141 65.26C61.2941 65.62 61.2341 66.16 61.2341 66.88C61.2341 68.4133 61.7741 69.18 62.8541 69.18ZM72.1413 73.18C70.8213 73.18 69.8346 72.7667 69.1813 71.94C68.5279 71.1 68.2013 69.9 68.2013 68.34C68.2013 67.5267 68.3279 66.76 68.5813 66.04C68.8346 65.3067 69.2546 64.7067 69.8413 64.24C70.4279 63.76 71.1813 63.52 72.1013 63.52C73.4213 63.52 74.4013 63.9333 75.0413 64.76C75.6813 65.5867 76.0013 66.78 76.0013 68.34C76.0013 69.1533 75.8746 69.9267 75.6213 70.66C75.3679 71.3933 74.9546 72 74.3813 72.48C73.8079 72.9467 73.0613 73.18 72.1413 73.18ZM71.7613 72.06C72.1346 72.06 72.4679 72.0067 72.7613 71.9C73.0679 71.78 73.4013 71.6133 73.7613 71.4C73.8279 71.0933 73.8746 70.7133 73.9013 70.26C73.9279 69.7933 73.9413 69.1533 73.9413 68.34C73.9413 66.9933 73.8213 66.04 73.5813 65.48C73.3546 64.92 72.9679 64.64 72.4212 64.64C71.7679 64.64 71.1146 64.86 70.4613 65.3C70.3679 65.62 70.3079 66.0067 70.2813 66.46C70.2679 66.9 70.2613 67.5267 70.2613 68.34C70.2613 69.6867 70.3746 70.6467 70.6013 71.22C70.8279 71.78 71.2146 72.06 71.7613 72.06ZM79.9297 74.98C79.8497 74.98 79.6364 74.9 79.2897 74.74C78.9564 74.5933 78.6497 74.4467 78.3697 74.3L82.8097 65.42L82.7697 65.18H79.0897L78.9097 66.72H77.9097L77.7497 63.7H84.4297L84.6697 64.6L80.3097 74.8C80.163 74.92 80.0364 74.98 79.9297 74.98ZM86.3705 73.74C87.1705 73.5267 87.8305 73.3 88.3505 73.06C88.8838 72.8333 89.3171 72.5067 89.6505 72.08C89.9971 71.64 90.1705 71.08 90.1705 70.4C90.1705 69.7467 90.0238 69.2733 89.7305 68.98C89.4371 68.6867 89.0705 68.54 88.6305 68.54C88.5505 68.54 88.1638 68.66 87.4705 68.9L86.5305 69.22L86.2105 68.78L86.6705 63.7H90.2705L90.3705 62.8H91.3305L91.4505 65.18H87.8905L87.6705 67.84C87.7105 67.8133 87.9105 67.72 88.2705 67.56C88.6305 67.3867 88.8771 67.3 89.0105 67.3C90.0505 67.3 90.8238 67.5733 91.3305 68.12C91.8371 68.6533 92.0905 69.2933 92.0905 70.04C92.0905 70.92 91.8105 71.7133 91.2505 72.42C90.6905 73.1133 89.9705 73.6667 89.0905 74.08C88.2238 74.4933 87.3171 74.7467 86.3705 74.84V73.74ZM97.9639 73.18C96.6839 73.18 95.6906 72.7933 94.9839 72.02C94.2906 71.2467 93.9439 70.1733 93.9439 68.8C93.9439 67.4133 94.2239 66.2333 94.7839 65.26C95.3439 64.2733 96.0772 63.5133 96.9839 62.98C97.8906 62.4333 98.8839 62.0933 99.9639 61.96V63.06C98.8039 63.3 97.8572 63.8067 97.1239 64.58C96.3906 65.34 95.9772 66.1867 95.8839 67.12L95.9439 67.16C97.0639 66.5867 97.6839 66.3 97.8039 66.3C98.9772 66.3 99.8039 66.6067 100.284 67.22C100.764 67.8333 101.004 68.6 101.004 69.52C101.004 69.76 100.977 70.06 100.924 70.42C100.884 70.78 100.837 71.0467 100.784 71.22C100.517 71.6067 100.064 72.0333 99.4239 72.5C98.7972 72.9533 98.3106 73.18 97.9639 73.18ZM98.2839 72.02C98.5506 72.02 98.7506 71.8267 98.8839 71.44C99.0172 71.0533 99.0839 70.3933 99.0839 69.46C99.0839 68.7133 98.9639 68.2067 98.7239 67.94C98.4839 67.6733 98.1306 67.54 97.6639 67.54C97.5972 67.54 97.3639 67.6 96.9639 67.72C96.5772 67.8267 96.2106 67.94 95.8639 68.06C95.8506 68.3 95.8439 68.64 95.8439 69.08C95.8439 69.7867 95.9106 70.3533 96.0439 70.78C96.1772 71.1933 96.4172 71.5067 96.7639 71.72C97.1106 71.92 97.6172 72.02 98.2839 72.02ZM104.871 74.98C104.791 74.98 104.578 74.9 104.231 74.74C103.898 74.5933 103.591 74.4467 103.311 74.3L107.751 65.42L107.711 65.18H104.031L103.851 66.72H102.851L102.691 63.7H109.371L109.611 64.6L105.251 74.8C105.104 74.92 104.978 74.98 104.871 74.98ZM113.172 74.98C113.092 74.98 112.879 74.9 112.532 74.74C112.199 74.5933 111.892 74.4467 111.612 74.3L116.052 65.42L116.012 65.18H112.332L112.152 66.72H111.152L110.992 63.7H117.672L117.912 64.6L113.552 74.8C113.405 74.92 113.279 74.98 113.172 74.98ZM124.753 76.32C123.833 76.32 122.946 76.0667 122.093 75.56C121.239 75.0533 120.539 74.2667 119.993 73.2C119.459 72.1333 119.193 70.8067 119.193 69.22C119.193 67.4067 119.486 65.8133 120.073 64.44C120.659 63.0533 121.519 61.98 122.653 61.22C123.799 60.4467 125.173 60.06 126.773 60.06C131.359 60.06 133.653 62.0133 133.653 65.92C133.653 66.9067 133.513 67.9133 133.233 68.94C132.966 69.9533 132.659 70.8667 132.313 71.68C131.966 72.4933 131.793 72.8733 131.793 72.82C131.153 72.9133 130.519 72.9933 129.893 73.06C129.279 73.1267 128.839 73.1667 128.573 73.18C128.519 73.18 128.393 73.0867 128.193 72.9C127.993 72.7133 127.893 72.5867 127.893 72.52V71.74L127.293 72.2C126.426 72.8533 125.959 73.18 125.893 73.18C125.359 73.18 124.853 73.0267 124.373 72.72C123.906 72.4 123.519 71.9267 123.213 71.3C122.919 70.66 122.773 69.8733 122.773 68.94C122.773 68.34 122.819 67.7533 122.913 67.18C123.006 66.6067 123.126 66.16 123.273 65.84C123.406 65.64 123.673 65.38 124.073 65.06C124.486 64.74 124.893 64.46 125.293 64.22C125.706 63.98 125.993 63.86 126.153 63.86C126.419 63.86 127.586 64.0133 129.653 64.32V71.76L131.033 71.96C131.299 71.08 131.506 70.12 131.653 69.08C131.813 68.04 131.893 67.1333 131.893 66.36C131.893 64.6267 131.473 63.3467 130.633 62.52C129.793 61.6933 128.519 61.28 126.813 61.28C126.146 61.28 125.433 61.38 124.673 61.58C123.926 61.78 123.253 62.06 122.653 62.42C122.399 62.6733 122.139 63.1733 121.873 63.92C121.606 64.6533 121.386 65.4733 121.213 66.38C121.053 67.2733 120.973 68.08 120.973 68.8C120.973 70.16 121.079 71.2867 121.293 72.18C121.519 73.0733 121.986 73.7933 122.693 74.34C123.413 74.8867 124.473 75.16 125.873 75.16C126.233 75.16 126.839 75.1333 127.693 75.08L127.813 75.92C127.386 76.0267 126.886 76.12 126.313 76.2C125.753 76.28 125.233 76.32 124.753 76.32ZM126.013 71.7C126.146 71.7 126.753 71.4333 127.833 70.9V65.4C127.459 65.3067 127.053 65.2267 126.613 65.16C126.173 65.08 125.853 65.04 125.653 65.04C125.013 65.04 124.693 66.2533 124.693 68.68C124.693 69.36 124.766 69.9267 124.913 70.38C125.073 70.8333 125.253 71.1667 125.453 71.38C125.666 71.5933 125.853 71.7 126.013 71.7ZM138.971 76.62C138.504 76.62 137.811 76.56 136.891 76.44C135.984 76.32 135.311 76.2067 134.871 76.1L135.051 74.64L137.531 72.4C137.171 72.4 136.804 72.24 136.431 71.92C136.071 71.6 135.771 71.14 135.531 70.54C135.291 69.94 135.171 69.2333 135.171 68.42C135.171 67.9933 135.204 67.5333 135.271 67.04C135.351 66.5333 135.458 66.1333 135.591 65.84C135.804 65.5467 136.284 65.1467 137.031 64.64C137.791 64.12 138.291 63.86 138.531 63.86C138.664 63.86 139.131 63.92 139.931 64.04C140.744 64.16 141.378 64.2533 141.831 64.32V73.42C141.831 73.8333 141.651 74.2867 141.291 74.78C140.944 75.2867 140.538 75.72 140.071 76.08C139.618 76.44 139.251 76.62 138.971 76.62ZM138.551 71.48C138.684 71.48 139.171 71.1867 140.011 70.6V65.4C139.731 65.3067 139.391 65.22 138.991 65.14C138.591 65.06 138.284 65.02 138.071 65.02C137.964 65.02 137.898 65.0267 137.871 65.04C137.338 65.2267 137.071 66.36 137.071 68.44C137.071 69.16 137.158 69.7533 137.331 70.22C137.504 70.6733 137.704 71 137.931 71.2C138.171 71.3867 138.378 71.48 138.551 71.48ZM139.571 75.7C139.718 75.7 139.838 75.38 139.931 74.74C140.024 74.1 140.071 73.42 140.071 72.7V71.7L139.971 71.66C139.238 72.3267 138.344 73.16 137.291 74.16C136.984 74.4667 136.711 74.7267 136.471 74.94V75.06C136.684 75.1533 137.184 75.28 137.971 75.44C138.771 75.6133 139.304 75.7 139.571 75.7ZM144.986 73.18C144.919 73.18 144.786 73.0867 144.586 72.9C144.399 72.7133 144.306 72.5867 144.306 72.52V65.22L143.606 64.92V64.18C144.699 63.98 145.306 63.88 145.426 63.88C145.492 63.88 145.612 63.9733 145.786 64.16C145.972 64.3333 146.066 64.4533 146.066 64.52V65.28C146.412 64.9867 146.786 64.68 147.186 64.36C147.586 64.04 147.806 63.88 147.846 63.88C148.512 63.88 149.066 63.9867 149.506 64.2C149.959 64.4133 150.286 64.7733 150.486 65.28C150.806 64.9867 151.152 64.68 151.526 64.36C151.899 64.04 152.106 63.88 152.146 63.88C153.199 63.88 153.992 64.1333 154.526 64.64C155.059 65.1333 155.326 66 155.326 67.24V71.82L156.006 72.12V72.86C154.912 73.0733 154.312 73.18 154.206 73.18C154.139 73.18 154.006 73.0867 153.806 72.9C153.606 72.7133 153.506 72.5867 153.506 72.52V67.24C153.506 66.4133 153.372 65.8933 153.106 65.68C152.852 65.4667 152.566 65.36 152.246 65.36C152.126 65.36 151.619 65.6133 150.726 66.12V71.82L151.406 72.12V72.86C150.312 73.0733 149.712 73.18 149.606 73.18C149.539 73.18 149.406 73.0867 149.206 72.9C149.006 72.7133 148.906 72.5867 148.906 72.52V67.24C148.906 66.4133 148.786 65.8933 148.546 65.68C148.306 65.4667 148.039 65.36 147.746 65.36C147.612 65.36 147.072 65.6133 146.126 66.12V71.82L146.806 72.12V72.86C145.712 73.0733 145.106 73.18 144.986 73.18ZM160.595 73.18C160.048 73.18 159.535 73.0267 159.055 72.72C158.588 72.4 158.208 71.9133 157.915 71.26C157.622 70.6067 157.475 69.7933 157.475 68.82C157.475 68.1933 157.515 67.6133 157.595 67.08C157.688 66.5333 157.808 66.12 157.955 65.84C158.168 65.5333 158.642 65.1267 159.375 64.62C160.122 64.1133 160.615 63.86 160.855 63.86C161.122 63.86 162.288 64.0133 164.355 64.32V71.84L165.035 72.12V72.86C163.982 73.0733 163.395 73.18 163.275 73.18C163.222 73.18 163.095 73.0867 162.895 72.9C162.695 72.7133 162.595 72.5867 162.595 72.52V71.74C162.515 71.8067 162.182 72.0667 161.595 72.52C161.008 72.96 160.675 73.18 160.595 73.18ZM160.715 71.7C160.862 71.7 161.468 71.4333 162.535 70.9V65.4C162.202 65.2933 161.768 65.2 161.235 65.12C160.702 65.0267 160.342 64.9933 160.155 65.02C159.902 65.06 159.708 65.3467 159.575 65.88C159.455 66.4133 159.395 67.3467 159.395 68.68C159.395 69.36 159.468 69.9267 159.615 70.38C159.775 70.8333 159.955 71.1667 160.155 71.38C160.368 71.5933 160.555 71.7 160.715 71.7ZM167.86 73.18C167.793 73.18 167.64 73.0733 167.4 72.86C167.173 72.6467 167.06 72.5067 167.06 72.44V65.14L166.36 64.92V64.18C167.373 63.98 167.94 63.88 168.06 63.88C168.14 63.88 168.293 63.98 168.52 64.18C168.746 64.38 168.86 64.5267 168.86 64.62V71.92L169.56 72.12V72.86C168.546 73.0733 167.98 73.18 167.86 73.18ZM166.94 60.18L168.48 60.08L168.78 60.52L168.68 62.26H167.08L166.94 60.18ZM172.29 73.18C172.224 73.18 172.097 73.0867 171.91 72.9C171.724 72.7133 171.63 72.5867 171.63 72.52V61.42L170.91 61.14V60.4C172.03 60.1867 172.65 60.08 172.77 60.08C172.837 60.08 172.964 60.1733 173.15 60.36C173.337 60.5467 173.43 60.6733 173.43 60.74V71.82L174.11 72.12V72.86C173.017 73.0733 172.41 73.18 172.29 73.18ZM176.401 73.2C176.321 73.2 176.194 73.12 176.021 72.96C175.847 72.7867 175.761 72.66 175.761 72.58L175.721 70.92C175.974 70.8533 176.241 70.8 176.521 70.76C176.814 70.7067 177.021 70.68 177.141 70.68C177.207 70.68 177.327 70.7667 177.501 70.94C177.687 71.1133 177.781 71.2333 177.781 71.3L177.661 72.96C177.394 73.0267 177.147 73.08 176.921 73.12C176.694 73.16 176.521 73.1867 176.401 73.2ZM182.327 73.18C181.847 73.18 181.387 73.0267 180.947 72.72C180.507 72.4 180.147 71.9267 179.867 71.3C179.6 70.66 179.467 69.8733 179.467 68.94C179.467 68.2867 179.507 67.6733 179.587 67.1C179.68 66.5267 179.8 66.1067 179.947 65.84C180.08 65.64 180.347 65.38 180.747 65.06C181.16 64.74 181.574 64.46 181.987 64.22C182.4 63.98 182.687 63.86 182.847 63.86C183.487 63.86 184.22 63.9867 185.047 64.24L184.987 66.8H183.767L183.487 65.42C183.327 65.34 183.127 65.2667 182.887 65.2C182.647 65.1333 182.434 65.1 182.247 65.1C182.127 65.1 182.034 65.1267 181.967 65.18C181.78 65.3267 181.634 65.72 181.527 66.36C181.434 67 181.387 67.7733 181.387 68.68C181.387 69.3733 181.46 69.9467 181.607 70.4C181.767 70.8533 181.954 71.1867 182.167 71.4C182.38 71.6133 182.587 71.72 182.787 71.72H185.047V72.56C184.58 72.7067 184.047 72.8467 183.447 72.98C182.86 73.1133 182.487 73.18 182.327 73.18ZM190.502 73.18C189.115 73.18 188.075 72.8267 187.382 72.12C186.689 71.4133 186.342 70.3133 186.342 68.82C186.342 68.2067 186.382 67.6267 186.462 67.08C186.555 66.52 186.675 66.1067 186.822 65.84C186.955 65.64 187.229 65.3733 187.642 65.04C188.069 64.7067 188.495 64.4133 188.922 64.16C189.349 63.9067 189.642 63.78 189.802 63.78C191.149 63.78 192.162 64.1467 192.842 64.88C193.535 65.6 193.882 66.6467 193.882 68.02C193.882 68.66 193.835 69.26 193.742 69.82C193.662 70.38 193.562 70.84 193.442 71.2C193.229 71.4933 192.742 71.9 191.982 72.42C191.235 72.9267 190.742 73.18 190.502 73.18ZM190.602 72.04C190.695 72.0133 191.035 71.8467 191.622 71.54C191.849 70.54 191.962 69.4533 191.962 68.28C191.962 67.24 191.769 66.4267 191.382 65.84C191.009 65.2533 190.449 64.96 189.702 64.96C189.369 64.96 189.102 65.0133 188.902 65.12C188.715 65.2267 188.562 65.58 188.442 66.18C188.322 66.78 188.262 67.5667 188.262 68.54C188.262 69.8467 188.482 70.76 188.922 71.28C189.375 71.7867 189.935 72.04 190.602 72.04ZM196.705 73.18C196.638 73.18 196.505 73.0867 196.305 72.9C196.118 72.7133 196.025 72.5867 196.025 72.52V65.22L195.325 64.92V64.18C196.418 63.98 197.025 63.88 197.145 63.88C197.211 63.88 197.331 63.9733 197.505 64.16C197.691 64.3333 197.785 64.4533 197.785 64.52V65.28C198.131 64.9867 198.505 64.68 198.905 64.36C199.305 64.04 199.525 63.88 199.565 63.88C200.231 63.88 200.785 63.9867 201.225 64.2C201.678 64.4133 202.005 64.7733 202.205 65.28C202.525 64.9867 202.871 64.68 203.245 64.36C203.618 64.04 203.825 63.88 203.865 63.88C204.918 63.88 205.711 64.1333 206.245 64.64C206.778 65.1333 207.045 66 207.045 67.24V71.82L207.725 72.12V72.86C206.631 73.0733 206.031 73.18 205.925 73.18C205.858 73.18 205.725 73.0867 205.525 72.9C205.325 72.7133 205.225 72.5867 205.225 72.52V67.24C205.225 66.4133 205.091 65.8933 204.825 65.68C204.571 65.4667 204.285 65.36 203.965 65.36C203.845 65.36 203.338 65.6133 202.445 66.12V71.82L203.125 72.12V72.86C202.031 73.0733 201.431 73.18 201.325 73.18C201.258 73.18 201.125 73.0867 200.925 72.9C200.725 72.7133 200.625 72.5867 200.625 72.52V67.24C200.625 66.4133 200.505 65.8933 200.265 65.68C200.025 65.4667 199.758 65.36 199.465 65.36C199.331 65.36 198.791 65.6133 197.845 66.12V71.82L198.525 72.12V72.86C197.431 73.0733 196.825 73.18 196.705 73.18Z" fill="#4C845F"/>
</svg>
