<svg width="57" height="17" viewBox="0 0 57 17" fill="none" xmlns="http://www.w3.org/2000/svg">
<path d="M0.668125 12.24L1.90813 11.84V2.1L0.668125 1.7V0.939999H5.90813C6.94813 0.939999 7.74146 1.21333 8.28813 1.76C8.84813 2.30667 9.12813 3.19333 9.12813 4.42C9.12813 5.9 8.76813 6.98667 8.04813 7.68C7.34146 8.36 6.43479 8.7 5.32813 8.7H3.76813V11.74L5.46813 12.14V13H0.668125V12.24ZM5.56813 7.56C5.98146 7.56 6.28813 7.51333 6.48813 7.42C6.70146 7.32667 6.86813 7.10667 6.98813 6.76C7.10813 6.4 7.16813 5.84 7.16813 5.08C7.16813 4.08 7.06813 3.31333 6.86813 2.78C6.68146 2.23333 6.40146 1.96 6.02813 1.96L3.76813 2.16V7.56H5.56813ZM11.9467 13.18C11.8801 13.18 11.7467 13.0867 11.5467 12.9C11.3601 12.7133 11.2667 12.5867 11.2667 12.52V5.16L10.5667 4.92V4.18C11.5801 3.98 12.1467 3.88 12.2667 3.88C12.3334 3.88 12.4801 3.98667 12.7067 4.2C12.9467 4.41333 13.0667 4.54667 13.0667 4.6L13.0267 5.3C13.9867 4.28667 14.5067 3.78 14.5867 3.78C14.8001 3.78 15.2467 3.88667 15.9267 4.1C15.9667 4.19333 15.9934 4.3 16.0067 4.42C16.0334 4.54 16.0467 4.64 16.0467 4.72C16.0467 4.8 15.9667 4.98667 15.8067 5.28C15.6601 5.57333 15.5601 5.73333 15.5067 5.76C15.0667 5.58667 14.7134 5.5 14.4467 5.5C14.2734 5.5 13.8201 5.71333 13.0867 6.14V11.74L14.1067 12.04V12.86C12.7867 13.0733 12.0667 13.18 11.9467 13.18ZM20.8028 13.18C19.4161 13.18 18.3761 12.8267 17.6828 12.12C16.9895 11.4133 16.6428 10.3133 16.6428 8.82C16.6428 8.20667 16.6828 7.62667 16.7628 7.08C16.8561 6.52 16.9761 6.10667 17.1228 5.84C17.2561 5.64 17.5295 5.37333 17.9428 5.04C18.3695 4.70667 18.7961 4.41333 19.2228 4.16C19.6495 3.90667 19.9428 3.78 20.1028 3.78C21.4495 3.78 22.4628 4.14667 23.1428 4.88C23.8361 5.6 24.1828 6.64667 24.1828 8.02C24.1828 8.66 24.1361 9.26 24.0428 9.82C23.9628 10.38 23.8628 10.84 23.7428 11.2C23.5295 11.4933 23.0428 11.9 22.2828 12.42C21.5361 12.9267 21.0428 13.18 20.8028 13.18ZM20.9028 12.04C20.9961 12.0133 21.3361 11.8467 21.9228 11.54C22.1495 10.54 22.2628 9.45333 22.2628 8.28C22.2628 7.24 22.0695 6.42667 21.6828 5.84C21.3095 5.25333 20.7495 4.96 20.0028 4.96C19.6695 4.96 19.4028 5.01333 19.2028 5.12C19.0161 5.22667 18.8628 5.58 18.7428 6.18C18.6228 6.78 18.5628 7.56667 18.5628 8.54C18.5628 9.84667 18.7828 10.76 19.2228 11.28C19.6761 11.7867 20.2361 12.04 20.9028 12.04ZM26.3053 0.179999L27.8453 0.0799994L28.1453 0.52L28.0453 2.26H26.4453L26.3053 0.179999ZM25.7053 16.62C25.5453 16.62 25.2186 16.5333 24.7253 16.36C24.232 16.1867 23.9253 16.08 23.8053 16.04V15.26C25.0453 15.1933 25.7186 15.12 25.8253 15.04C26.1586 14.8533 26.3253 14.0867 26.3253 12.74V5.16L25.3653 4.96V4.18C26.552 3.98 27.2053 3.88 27.3253 3.88C27.4053 3.88 27.5586 3.98667 27.7853 4.2C28.012 4.4 28.1253 4.54 28.1253 4.62V13.44C28.1253 13.8267 27.972 14.2667 27.6653 14.76C27.3586 15.2667 27.0053 15.7 26.6053 16.06C26.2186 16.4333 25.9186 16.62 25.7053 16.62ZM33.4003 13.18C32.827 13.18 32.287 13.0267 31.7803 12.72C31.2736 12.4133 30.8603 11.94 30.5403 11.3C30.2336 10.66 30.0803 9.87333 30.0803 8.94C30.0803 8.27333 30.1203 7.66 30.2003 7.1C30.2936 6.52667 30.4136 6.10667 30.5603 5.84C30.6936 5.64 30.967 5.37333 31.3803 5.04C31.807 4.70667 32.2336 4.41333 32.6603 4.16C33.1003 3.90667 33.4003 3.78 33.5603 3.78C34.2803 3.78 34.8603 3.89333 35.3003 4.12C35.7536 4.34667 36.1003 4.78 36.3403 5.42C36.5936 6.06 36.7203 6.98 36.7203 8.18L32.0003 8.58C32.0003 9.38 32.107 10.02 32.3203 10.5C32.5336 10.9667 32.7803 11.2933 33.0603 11.48C33.3536 11.6667 33.6203 11.76 33.8603 11.76L34.8003 11.72L36.4403 11.66V12.48C35.947 12.64 35.3603 12.8 34.6803 12.96C34.0136 13.1067 33.587 13.18 33.4003 13.18ZM34.7803 7.4C34.7803 6.6 34.6736 6 34.4603 5.6C34.247 5.18667 33.8936 4.98 33.4003 4.98C33.107 4.98 32.8536 5.02667 32.6403 5.12C32.467 5.2 32.3203 5.50667 32.2003 6.04C32.0936 6.57333 32.0403 7.14667 32.0403 7.76L34.7803 7.4ZM41.0458 13.18C40.5658 13.18 40.1058 13.0267 39.6658 12.72C39.2258 12.4 38.8658 11.9267 38.5858 11.3C38.3191 10.66 38.1858 9.87333 38.1858 8.94C38.1858 8.28667 38.2258 7.67333 38.3058 7.1C38.3991 6.52667 38.5191 6.10667 38.6658 5.84C38.7991 5.64 39.0658 5.38 39.4658 5.06C39.8791 4.74 40.2924 4.46 40.7058 4.22C41.1191 3.98 41.4058 3.86 41.5658 3.86C42.2058 3.86 42.9391 3.98667 43.7658 4.24L43.7058 6.8H42.4858L42.2058 5.42C42.0458 5.34 41.8458 5.26667 41.6058 5.2C41.3658 5.13333 41.1524 5.1 40.9658 5.1C40.8458 5.1 40.7524 5.12667 40.6858 5.18C40.4991 5.32667 40.3524 5.72 40.2458 6.36C40.1524 7 40.1058 7.77333 40.1058 8.68C40.1058 9.37333 40.1791 9.94667 40.3258 10.4C40.4858 10.8533 40.6724 11.1867 40.8858 11.4C41.0991 11.6133 41.3058 11.72 41.5058 11.72H43.7658V12.56C43.2991 12.7067 42.7658 12.8467 42.1658 12.98C41.5791 13.1133 41.2058 13.18 41.0458 13.18ZM47.1608 13.18C47.0141 13.18 46.8208 13.0867 46.5808 12.9C46.3408 12.7 46.1274 12.4733 45.9408 12.22C45.7674 11.9667 45.6808 11.7667 45.6808 11.62V5.1H44.4008V4.5L45.6808 3.86L46.8008 2.5C46.9208 2.5 47.1541 2.59333 47.5008 2.78V4.04H49.4408V5.2H47.5008V10.74C47.5008 11.1533 47.5341 11.4333 47.6008 11.58C47.6674 11.7267 47.7941 11.8 47.9808 11.8L49.6208 11.84V12.8C49.2341 12.88 48.7608 12.96 48.2008 13.04C47.6408 13.1333 47.2941 13.18 47.1608 13.18ZM54.3063 13.18C54.0263 13.18 53.4663 13.1467 52.6263 13.08C51.7863 13.0267 51.1463 12.9733 50.7063 12.92L50.7463 10.04L51.7463 10.02L52.1663 11.54C52.4729 11.6467 52.8329 11.7467 53.2463 11.84C53.6729 11.92 53.9863 11.96 54.1863 11.96C54.2929 11.96 54.4196 11.8133 54.5663 11.52C54.7263 11.2267 54.8063 10.9667 54.8063 10.74C54.8063 10.5 54.7463 10.3 54.6263 10.14C54.5196 9.96667 54.3463 9.80667 54.1063 9.66C53.8663 9.5 53.4596 9.26667 52.8863 8.96C52.0729 8.52 51.5129 8.13333 51.2063 7.8C50.8996 7.46667 50.7463 7.06667 50.7463 6.6C50.7463 6.14667 50.7796 5.82 50.8463 5.62C51.0596 5.28667 51.4129 4.91333 51.9063 4.5C52.4129 4.08667 52.7729 3.88 52.9863 3.88C53.4263 3.88 53.9929 3.9 54.6863 3.94C55.3929 3.96667 55.9329 4 56.3063 4.04L56.2463 6.48H55.1263L54.9863 5.42C54.8796 5.38 54.5329 5.32 53.9463 5.24C53.3596 5.14667 52.9929 5.1 52.8462 5.1C52.5529 5.1 52.4062 5.38 52.4062 5.94C52.4062 6.19333 52.4996 6.41333 52.6863 6.6C52.8863 6.77333 53.1063 6.93333 53.3463 7.08C53.5996 7.22667 53.7663 7.32667 53.8463 7.38L54.3863 7.7C55.1063 8.1 55.6729 8.48 56.0863 8.84C56.5129 9.18667 56.7263 9.58667 56.7263 10.04C56.7263 10.3467 56.6796 10.6867 56.5863 11.06C56.3729 11.4467 56.0063 11.9 55.4863 12.42C54.9796 12.9267 54.5863 13.18 54.3063 13.18Z" fill="#4C845F"/>
</svg>
