<svg width="339" height="22" viewBox="0 0 339 22" fill="none" xmlns="http://www.w3.org/2000/svg">
<path d="M0.939844 6.575C0.873177 6.575 0.75651 6.49167 0.589844 6.325C0.423177 6.14167 0.339844 6.00833 0.339844 5.925V4.675C0.339844 4.35833 0.55651 3.8 0.989844 3C1.42318 2.18333 1.88151 1.45 2.36484 0.8L3.28984 1.25C2.73984 2.61667 2.49818 3.225 2.56484 3.075C2.48151 3.325 2.38984 3.56667 2.28984 3.8C2.32318 3.81667 2.41484 3.88333 2.56484 4C2.71484 4.1 2.78984 4.18333 2.78984 4.25L2.71484 6.425C1.88151 6.525 1.28984 6.575 0.939844 6.575ZM4.46484 6.575C4.39818 6.575 4.28151 6.49167 4.11484 6.325C3.94818 6.14167 3.86484 6.00833 3.86484 5.925V4.675C3.86484 4.35833 4.08151 3.8 4.51484 3C4.94818 2.18333 5.40651 1.45 5.88984 0.8L6.81484 1.25C6.26484 2.61667 6.02318 3.225 6.08984 3.075C6.00651 3.325 5.91484 3.56667 5.81484 3.8C5.84818 3.81667 5.93984 3.88333 6.08984 4C6.23984 4.1 6.31484 4.18333 6.31484 4.25L6.23984 6.425C5.40651 6.525 4.81484 6.575 4.46484 6.575ZM11.3492 16.05L12.8992 15.55V3.375L10.1742 3.525L9.92422 6.625H8.59922L8.27422 1.925H19.8492L19.5242 6.625H18.1742L17.9242 3.525L15.2242 3.375V15.425L16.8742 15.925V17H11.3492V16.05ZM22.6121 17.225C22.5288 17.225 22.3621 17.1083 22.1121 16.875C21.8788 16.6417 21.7621 16.4833 21.7621 16.4V7.2L20.8871 6.9V5.975C22.1538 5.725 22.8621 5.6 23.0121 5.6C23.0954 5.6 23.2788 5.73333 23.5621 6C23.8621 6.26667 24.0121 6.43333 24.0121 6.5L23.9621 7.375C25.1621 6.10833 25.8121 5.475 25.9121 5.475C26.1788 5.475 26.7371 5.60833 27.5871 5.875C27.6371 5.99167 27.6704 6.125 27.6871 6.275C27.7204 6.425 27.7371 6.55 27.7371 6.65C27.7371 6.75 27.6371 6.98333 27.4371 7.35C27.2538 7.71667 27.1288 7.91667 27.0621 7.95C26.5121 7.73333 26.0704 7.625 25.7371 7.625C25.5204 7.625 24.9538 7.89167 24.0371 8.425V15.425L25.3121 15.8V16.825C23.6621 17.0917 22.7621 17.225 22.6121 17.225ZM33.0264 17.225C31.8264 17.225 30.9264 16.9167 30.3264 16.3C29.7264 15.6667 29.4264 14.5667 29.4264 13V7.275L28.5764 6.9V5.975C29.943 5.725 30.693 5.6 30.8264 5.6C30.9097 5.6 31.0764 5.71667 31.3264 5.95C31.5764 6.18333 31.7014 6.33333 31.7014 6.4V13C31.7014 14.0333 31.8514 14.6917 32.1514 14.975C32.4514 15.2417 32.7847 15.375 33.1514 15.375C33.318 15.375 34.0764 15.0583 35.4264 14.425V7.275L34.5764 6.9V5.975C35.943 5.725 36.7014 5.6 36.8514 5.6C36.9347 5.6 37.093 5.71667 37.3264 5.95C37.5764 6.18333 37.7014 6.33333 37.7014 6.4V15.525L38.5514 15.9V16.825C37.2014 17.0917 36.4514 17.225 36.3014 17.225C36.218 17.225 36.0597 17.1083 35.8264 16.875C35.6097 16.6417 35.5014 16.4833 35.5014 16.4V15.45C35.0347 15.8167 34.518 16.2083 33.9514 16.625C33.3847 17.025 33.0764 17.225 33.0264 17.225ZM44.8975 17.225C44.5475 17.225 43.8475 17.1833 42.7975 17.1C41.7475 17.0333 40.9475 16.9667 40.3975 16.9L40.4475 13.3L41.6975 13.275L42.2225 15.175C42.6058 15.3083 43.0558 15.4333 43.5725 15.55C44.1058 15.65 44.4975 15.7 44.7475 15.7C44.8808 15.7 45.0391 15.5167 45.2225 15.15C45.4225 14.7833 45.5225 14.4583 45.5225 14.175C45.5225 13.875 45.4475 13.625 45.2975 13.425C45.1641 13.2083 44.9475 13.0083 44.6475 12.825C44.3475 12.625 43.8391 12.3333 43.1225 11.95C42.1058 11.4 41.4058 10.9167 41.0225 10.5C40.6391 10.0833 40.4475 9.58333 40.4475 9C40.4475 8.43333 40.4891 8.025 40.5725 7.775C40.8391 7.35833 41.2808 6.89167 41.8975 6.375C42.5308 5.85833 42.9808 5.6 43.2475 5.6C43.7975 5.6 44.5058 5.625 45.3725 5.675C46.2558 5.70833 46.9308 5.75 47.3975 5.8L47.3225 8.85H45.9225L45.7475 7.525C45.6141 7.475 45.1808 7.4 44.4475 7.3C43.7141 7.18333 43.2558 7.125 43.0725 7.125C42.7058 7.125 42.5225 7.475 42.5225 8.175C42.5225 8.49167 42.6391 8.76667 42.8725 9C43.1225 9.21667 43.3975 9.41667 43.6975 9.6C44.0141 9.78333 44.2225 9.90833 44.3225 9.975L44.9975 10.375C45.8975 10.875 46.6058 11.35 47.1225 11.8C47.6558 12.2333 47.9225 12.7333 47.9225 13.3C47.9225 13.6833 47.8641 14.1083 47.7475 14.575C47.4808 15.0583 47.0225 15.625 46.3725 16.275C45.7391 16.9083 45.2475 17.225 44.8975 17.225ZM52.0545 17.225C51.8712 17.225 51.6295 17.1083 51.3295 16.875C51.0295 16.625 50.7628 16.3417 50.5295 16.025C50.3128 15.7083 50.2045 15.4583 50.2045 15.275V7.125H48.6045V6.375L50.2045 5.575L51.6045 3.875C51.7545 3.875 52.0462 3.99167 52.4795 4.225V5.8H54.9045V7.25H52.4795V14.175C52.4795 14.6917 52.5212 15.0417 52.6045 15.225C52.6878 15.4083 52.8462 15.5 53.0795 15.5L55.1295 15.55V16.75C54.6462 16.85 54.0545 16.95 53.3545 17.05C52.6545 17.1667 52.2212 17.225 52.0545 17.225ZM59.3863 17.275C59.3363 17.275 59.228 17.2083 59.0613 17.075L56.3613 7.225L55.4363 6.95V5.925C56.703 5.725 57.4113 5.625 57.5613 5.625C57.6447 5.625 57.8197 5.725 58.0863 5.925C58.353 6.10833 58.503 6.25833 58.5363 6.375L59.9863 12.475L60.4863 14.625H60.7613L62.4863 8.875L62.0113 7.2L61.0863 6.95V5.925C62.353 5.725 63.0613 5.625 63.2113 5.625C63.2947 5.625 63.4697 5.725 63.7363 5.925C64.003 6.10833 64.153 6.25833 64.1863 6.375L65.6363 12.475L66.1363 14.625H66.4113L68.3613 7.175L66.7113 7V5.8L69.7613 5.625C69.8447 5.625 69.9863 5.74167 70.1863 5.975C70.3863 6.20833 70.4863 6.38333 70.4863 6.5L67.3113 16.825C65.9113 17.125 65.153 17.275 65.0363 17.275C64.9863 17.275 64.878 17.2083 64.7113 17.075L63.2613 11.575H63.1113L61.6613 16.825C60.2613 17.125 59.503 17.275 59.3863 17.275ZM76.8951 17.225C75.1618 17.225 73.8618 16.7833 72.9951 15.9C72.1285 15.0167 71.6951 13.6417 71.6951 11.775C71.6951 11.0083 71.7451 10.2833 71.8451 9.6C71.9618 8.9 72.1118 8.38333 72.2951 8.05C72.4618 7.8 72.8035 7.46667 73.3201 7.05C73.8535 6.63333 74.3868 6.26667 74.9201 5.95C75.4535 5.63333 75.8201 5.475 76.0201 5.475C77.7035 5.475 78.9701 5.93333 79.8201 6.85C80.6868 7.75 81.1201 9.05833 81.1201 10.775C81.1201 11.575 81.0618 12.325 80.9451 13.025C80.8451 13.725 80.7201 14.3 80.5701 14.75C80.3035 15.1167 79.6951 15.625 78.7451 16.275C77.8118 16.9083 77.1951 17.225 76.8951 17.225ZM77.0201 15.8C77.1368 15.7667 77.5618 15.5583 78.2951 15.175C78.5785 13.925 78.7201 12.5667 78.7201 11.1C78.7201 9.8 78.4785 8.78333 77.9951 8.05C77.5285 7.31667 76.8285 6.95 75.8951 6.95C75.4785 6.95 75.1451 7.01667 74.8951 7.15C74.6618 7.28333 74.4701 7.725 74.3201 8.475C74.1701 9.225 74.0951 10.2083 74.0951 11.425C74.0951 13.0583 74.3701 14.2 74.9201 14.85C75.4868 15.4833 76.1868 15.8 77.0201 15.8ZM84.6482 17.225C84.5649 17.225 84.3982 17.1083 84.1482 16.875C83.9149 16.6417 83.7982 16.4833 83.7982 16.4V7.2L82.9232 6.9V5.975C84.1899 5.725 84.8982 5.6 85.0482 5.6C85.1316 5.6 85.3149 5.73333 85.5982 6C85.8982 6.26667 86.0482 6.43333 86.0482 6.5L85.9982 7.375C87.1982 6.10833 87.8482 5.475 87.9482 5.475C88.2149 5.475 88.7732 5.60833 89.6232 5.875C89.6732 5.99167 89.7066 6.125 89.7232 6.275C89.7566 6.425 89.7732 6.55 89.7732 6.65C89.7732 6.75 89.6732 6.98333 89.4732 7.35C89.2899 7.71667 89.1649 7.91667 89.0982 7.95C88.5482 7.73333 88.1066 7.625 87.7732 7.625C87.5566 7.625 86.9899 7.89167 86.0732 8.425V15.425L87.3482 15.8V16.825C85.6982 17.0917 84.7982 17.225 84.6482 17.225ZM94.0467 17.225C93.8633 17.225 93.6217 17.1083 93.3217 16.875C93.0217 16.625 92.755 16.3417 92.5217 16.025C92.305 15.7083 92.1967 15.4583 92.1967 15.275V7.125H90.5967V6.375L92.1967 5.575L93.5967 3.875C93.7467 3.875 94.0383 3.99167 94.4717 4.225V5.8H96.8967V7.25H94.4717V14.175C94.4717 14.6917 94.5133 15.0417 94.5967 15.225C94.68 15.4083 94.8383 15.5 95.0717 15.5L97.1217 15.55V16.75C96.6383 16.85 96.0467 16.95 95.3467 17.05C94.6467 17.1667 94.2133 17.225 94.0467 17.225ZM100.029 17.225C99.9452 17.225 99.7868 17.1083 99.5535 16.875C99.3202 16.6417 99.2035 16.4833 99.2035 16.4V2.525L98.3285 2.175V1.25C99.6952 0.983332 100.454 0.849999 100.604 0.849999C100.687 0.849999 100.854 0.966666 101.104 1.2C101.354 1.43333 101.479 1.59167 101.479 1.675L101.354 7.325L101.479 7.35C103.045 6.18333 103.879 5.6 103.979 5.6C105.179 5.6 106.079 5.91667 106.679 6.55C107.279 7.16667 107.579 8.25 107.579 9.8V15.525L108.454 15.9V16.825C107.07 17.0917 106.304 17.225 106.154 17.225C106.07 17.225 105.904 17.1083 105.654 16.875C105.42 16.6417 105.304 16.4833 105.304 16.4V9.8C105.304 8.76667 105.154 8.11667 104.854 7.85C104.57 7.58333 104.237 7.45 103.854 7.45C103.687 7.45 102.895 7.76667 101.479 8.4V15.525L102.329 15.9V16.825C100.945 17.0917 100.179 17.225 100.029 17.225ZM113.294 21.525C113.228 21.525 113.119 21.3833 112.969 21.1C112.819 20.8167 112.744 20.625 112.744 20.525L113.919 16.975C113.586 17.0417 113.369 17.075 113.269 17.075C113.219 17.075 113.094 17.0083 112.894 16.875L110.244 7.225L109.269 6.95V5.925C110.536 5.725 111.244 5.625 111.394 5.625C111.478 5.625 111.653 5.725 111.919 5.925C112.203 6.10833 112.361 6.25833 112.394 6.375L113.844 12.2L114.419 14.875H114.669L116.769 7.175L115.269 7V5.8L118.144 5.625C118.228 5.625 118.369 5.74167 118.569 5.975C118.786 6.20833 118.886 6.38333 118.869 6.5L115.544 17L114.819 19.85L115.794 20.3V21.225C114.261 21.425 113.428 21.525 113.294 21.525ZM120.701 19.65C120.835 19.3667 121.01 18.9417 121.226 18.375C121.46 17.8083 121.618 17.3833 121.701 17.1C121.668 17.0833 121.576 17.025 121.426 16.925C121.276 16.825 121.201 16.7333 121.201 16.65L121.276 14.475C122.11 14.375 122.701 14.325 123.051 14.325C123.118 14.325 123.235 14.4167 123.401 14.6C123.568 14.7667 123.651 14.8917 123.651 14.975V16.225C123.651 16.5417 123.435 17.1 123.001 17.9C122.568 18.7167 122.11 19.45 121.626 20.1L120.701 19.65ZM129.925 16.05L131.475 15.55V3.375L129.925 2.875V1.925H135.45V3L133.8 3.5V8.575H139.475V3.5L137.825 3V1.925H143.35V2.875L141.8 3.375V15.55L143.35 16.05V17H137.825V15.925L139.475 15.425V9.9H133.8V15.425L135.45 15.925V17H129.925V16.05ZM149.252 17.225C148.569 17.225 147.927 17.0333 147.327 16.65C146.744 16.25 146.269 15.6417 145.902 14.825C145.536 14.0083 145.352 12.9917 145.352 11.775C145.352 10.9917 145.402 10.2667 145.502 9.6C145.619 8.91667 145.769 8.4 145.952 8.05C146.219 7.66667 146.811 7.15833 147.727 6.525C148.661 5.89167 149.277 5.575 149.577 5.575C149.911 5.575 151.369 5.76667 153.952 6.15V15.55L154.802 15.9V16.825C153.486 17.0917 152.752 17.225 152.602 17.225C152.536 17.225 152.377 17.1083 152.127 16.875C151.877 16.6417 151.752 16.4833 151.752 16.4V15.425C151.652 15.5083 151.236 15.8333 150.502 16.4C149.769 16.95 149.352 17.225 149.252 17.225ZM149.402 15.375C149.586 15.375 150.344 15.0417 151.677 14.375V7.5C151.261 7.36667 150.719 7.25 150.052 7.15C149.386 7.03333 148.936 6.99167 148.702 7.025C148.386 7.075 148.144 7.43333 147.977 8.1C147.827 8.76667 147.752 9.93333 147.752 11.6C147.752 12.45 147.844 13.1583 148.027 13.725C148.227 14.2917 148.452 14.7083 148.702 14.975C148.969 15.2417 149.202 15.375 149.402 15.375ZM158.183 17.225C158.1 17.225 157.933 17.1083 157.683 16.875C157.45 16.6417 157.333 16.4833 157.333 16.4V7.2L156.458 6.9V5.975C157.725 5.725 158.433 5.6 158.583 5.6C158.667 5.6 158.85 5.73333 159.133 6C159.433 6.26667 159.583 6.43333 159.583 6.5L159.533 7.375C160.733 6.10833 161.383 5.475 161.483 5.475C161.75 5.475 162.308 5.60833 163.158 5.875C163.208 5.99167 163.242 6.125 163.258 6.275C163.292 6.425 163.308 6.55 163.308 6.65C163.308 6.75 163.208 6.98333 163.008 7.35C162.825 7.71667 162.7 7.91667 162.633 7.95C162.083 7.73333 161.642 7.625 161.308 7.625C161.092 7.625 160.525 7.89167 159.608 8.425V15.425L160.883 15.8V16.825C159.233 17.0917 158.333 17.225 158.183 17.225ZM167.954 17.225C167.287 17.225 166.654 17.0333 166.054 16.65C165.47 16.25 164.987 15.6583 164.604 14.875C164.237 14.075 164.054 13.0917 164.054 11.925C164.054 11.075 164.104 10.3083 164.204 9.625C164.32 8.94167 164.47 8.41667 164.654 8.05C164.92 7.66667 165.512 7.15833 166.429 6.525C167.362 5.89167 167.979 5.575 168.279 5.575C168.545 5.575 169.287 5.66667 170.504 5.85V2.525L169.629 2.175V1.25C171.012 0.983332 171.77 0.849999 171.904 0.849999C171.987 0.849999 172.154 0.966666 172.404 1.2C172.654 1.43333 172.779 1.59167 172.779 1.675L172.654 6.325V15.55L173.504 15.9V16.825C172.187 17.0917 171.454 17.225 171.304 17.225C171.237 17.225 171.079 17.1083 170.829 16.875C170.579 16.6417 170.454 16.4833 170.454 16.4V15.425L169.704 16C168.62 16.8167 168.037 17.225 167.954 17.225ZM168.104 15.375C168.254 15.375 169.012 15.0417 170.379 14.375V7.5C169.912 7.36667 169.354 7.25 168.704 7.15C168.054 7.03333 167.62 6.99167 167.404 7.025C167.087 7.075 166.845 7.43333 166.679 8.1C166.529 8.76667 166.454 9.93333 166.454 11.6C166.454 12.45 166.545 13.1583 166.729 13.725C166.929 14.2917 167.154 14.7083 167.404 14.975C167.67 15.2417 167.904 15.375 168.104 15.375ZM178.283 17.275C178.233 17.275 178.124 17.2083 177.958 17.075L175.258 7.225L174.333 6.95V5.925C175.599 5.725 176.308 5.625 176.458 5.625C176.541 5.625 176.716 5.725 176.983 5.925C177.249 6.10833 177.399 6.25833 177.433 6.375L178.883 12.475L179.383 14.625H179.658L181.383 8.875L180.908 7.2L179.983 6.95V5.925C181.249 5.725 181.958 5.625 182.108 5.625C182.191 5.625 182.366 5.725 182.633 5.925C182.899 6.10833 183.049 6.25833 183.083 6.375L184.533 12.475L185.033 14.625H185.308L187.258 7.175L185.608 7V5.8L188.658 5.625C188.741 5.625 188.883 5.74167 189.083 5.975C189.283 6.20833 189.383 6.38333 189.383 6.5L186.208 16.825C184.808 17.125 184.049 17.275 183.933 17.275C183.883 17.275 183.774 17.2083 183.608 17.075L182.158 11.575H182.008L180.558 16.825C179.158 17.125 178.399 17.275 178.283 17.275ZM195.792 17.225C194.058 17.225 192.758 16.7833 191.892 15.9C191.025 15.0167 190.592 13.6417 190.592 11.775C190.592 11.0083 190.642 10.2833 190.742 9.6C190.858 8.9 191.008 8.38333 191.192 8.05C191.358 7.8 191.7 7.46667 192.217 7.05C192.75 6.63333 193.283 6.26667 193.817 5.95C194.35 5.63333 194.717 5.475 194.917 5.475C196.6 5.475 197.867 5.93333 198.717 6.85C199.583 7.75 200.017 9.05833 200.017 10.775C200.017 11.575 199.958 12.325 199.842 13.025C199.742 13.725 199.617 14.3 199.467 14.75C199.2 15.1167 198.592 15.625 197.642 16.275C196.708 16.9083 196.092 17.225 195.792 17.225ZM195.917 15.8C196.033 15.7667 196.458 15.5583 197.192 15.175C197.475 13.925 197.617 12.5667 197.617 11.1C197.617 9.8 197.375 8.78333 196.892 8.05C196.425 7.31667 195.725 6.95 194.792 6.95C194.375 6.95 194.042 7.01667 193.792 7.15C193.558 7.28333 193.367 7.725 193.217 8.475C193.067 9.225 192.992 10.2083 192.992 11.425C192.992 13.0583 193.267 14.2 193.817 14.85C194.383 15.4833 195.083 15.8 195.917 15.8ZM203.545 17.225C203.461 17.225 203.295 17.1083 203.045 16.875C202.811 16.6417 202.695 16.4833 202.695 16.4V7.2L201.82 6.9V5.975C203.086 5.725 203.795 5.6 203.945 5.6C204.028 5.6 204.211 5.73333 204.495 6C204.795 6.26667 204.945 6.43333 204.945 6.5L204.895 7.375C206.095 6.10833 206.745 5.475 206.845 5.475C207.111 5.475 207.67 5.60833 208.52 5.875C208.57 5.99167 208.603 6.125 208.62 6.275C208.653 6.425 208.67 6.55 208.67 6.65C208.67 6.75 208.57 6.98333 208.37 7.35C208.186 7.71667 208.061 7.91667 207.995 7.95C207.445 7.73333 207.003 7.625 206.67 7.625C206.453 7.625 205.886 7.89167 204.97 8.425V15.425L206.245 15.8V16.825C204.595 17.0917 203.695 17.225 203.545 17.225ZM211.284 17.225C211.201 17.225 211.042 17.1083 210.809 16.875C210.576 16.6417 210.459 16.4833 210.459 16.4V2.525L209.559 2.175V1.25C210.959 0.983332 211.734 0.849999 211.884 0.849999C211.967 0.849999 212.126 0.966666 212.359 1.2C212.592 1.43333 212.709 1.59167 212.709 1.675V15.525L213.559 15.9V16.825C212.192 17.0917 211.434 17.225 211.284 17.225ZM217.559 17.225C217.492 17.225 217.334 17.125 217.084 16.925C216.834 16.7083 216.667 16.5417 216.584 16.425L213.184 11.475V10.45L216.084 7.15L214.984 7V5.8L218.234 5.625C218.301 5.625 218.392 5.78333 218.509 6.1C218.626 6.41667 218.684 6.65 218.684 6.8L215.009 10.65L218.609 15.5L219.609 15.9V16.825C218.376 17.0917 217.692 17.225 217.559 17.225ZM222.396 17.225C222.313 17.225 222.121 17.0917 221.821 16.825C221.538 16.5583 221.396 16.3833 221.396 16.3V7.175L220.521 6.9V5.975C221.788 5.725 222.496 5.6 222.646 5.6C222.746 5.6 222.938 5.725 223.221 5.975C223.504 6.225 223.646 6.40833 223.646 6.525V15.65L224.521 15.9V16.825C223.254 17.0917 222.546 17.225 222.396 17.225ZM221.246 0.974999L223.171 0.849999L223.546 1.4L223.421 3.575H221.421L221.246 0.974999ZM227.934 17.225C227.851 17.225 227.684 17.1083 227.434 16.875C227.201 16.6417 227.084 16.4833 227.084 16.4V7.275L226.209 6.9V5.975C227.576 5.725 228.334 5.6 228.484 5.6C228.568 5.6 228.718 5.71667 228.934 5.95C229.168 6.16667 229.284 6.31667 229.284 6.4V7.35C229.784 6.98333 230.318 6.6 230.884 6.2C231.468 5.8 231.793 5.6 231.859 5.6C233.059 5.6 233.959 5.91667 234.559 6.55C235.159 7.16667 235.459 8.25 235.459 9.8V15.525L236.334 15.9V16.825C234.951 17.0917 234.193 17.225 234.059 17.225C233.976 17.225 233.809 17.1083 233.559 16.875C233.309 16.6417 233.184 16.4833 233.184 16.4V9.8C233.184 8.76667 233.034 8.11667 232.734 7.85C232.434 7.58333 232.101 7.45 231.734 7.45C231.551 7.45 231.134 7.6 230.484 7.9C229.851 8.18333 229.476 8.35 229.359 8.4V15.525L230.209 15.9V16.825C228.843 17.0917 228.084 17.225 227.934 17.225ZM242.95 21.525C242.367 21.525 241.5 21.45 240.35 21.3C239.217 21.15 238.375 21.0083 237.825 20.875L238.05 19.05L241.15 16.25C240.7 16.25 240.242 16.05 239.775 15.65C239.325 15.25 238.95 14.675 238.65 13.925C238.35 13.175 238.2 12.2917 238.2 11.275C238.2 10.7417 238.242 10.1667 238.325 9.55C238.425 8.91667 238.559 8.41667 238.725 8.05C238.992 7.68333 239.592 7.18333 240.525 6.55C241.475 5.9 242.1 5.575 242.4 5.575C242.567 5.575 243.15 5.65 244.15 5.8C245.167 5.95 245.959 6.06667 246.525 6.15V17.525C246.525 18.0417 246.3 18.6083 245.85 19.225C245.417 19.8583 244.909 20.4 244.325 20.85C243.759 21.3 243.3 21.525 242.95 21.525ZM242.425 15.1C242.592 15.1 243.2 14.7333 244.25 14V7.5C243.9 7.38333 243.475 7.275 242.975 7.175C242.475 7.075 242.092 7.025 241.825 7.025C241.692 7.025 241.609 7.03333 241.575 7.05C240.909 7.28333 240.575 8.7 240.575 11.3C240.575 12.2 240.684 12.9417 240.9 13.525C241.117 14.0917 241.367 14.5 241.65 14.75C241.95 14.9833 242.209 15.1 242.425 15.1ZM243.7 20.375C243.884 20.375 244.034 19.975 244.15 19.175C244.267 18.375 244.325 17.525 244.325 16.625V15.375L244.2 15.325C243.284 16.1583 242.167 17.2 240.85 18.45C240.467 18.8333 240.125 19.1583 239.825 19.425V19.575C240.092 19.6917 240.717 19.85 241.7 20.05C242.7 20.2667 243.367 20.375 243.7 20.375ZM249.144 19.65C249.277 19.3667 249.452 18.9417 249.669 18.375C249.902 17.8083 250.06 17.3833 250.144 17.1C250.11 17.0833 250.019 17.025 249.869 16.925C249.719 16.825 249.644 16.7333 249.644 16.65L249.719 14.475C250.552 14.375 251.144 14.325 251.494 14.325C251.56 14.325 251.677 14.4167 251.844 14.6C252.01 14.7667 252.094 14.8917 252.094 14.975V16.225C252.094 16.5417 251.877 17.1 251.444 17.9C251.01 18.7167 250.552 19.45 250.069 20.1L249.144 19.65ZM258.367 16.05L259.917 15.55V3.375L258.367 2.875V1.925H267.842L267.517 6.3H266.167L265.892 3.15L262.242 3.5V8.875L265.717 9V10.175L262.242 10.3V15.375L264.742 15.925V17H258.367V16.05ZM270.976 17.225C270.893 17.225 270.726 17.1083 270.476 16.875C270.243 16.6417 270.126 16.4833 270.126 16.4V7.2L269.251 6.9V5.975C270.518 5.725 271.226 5.6 271.376 5.6C271.46 5.6 271.643 5.73333 271.926 6C272.226 6.26667 272.376 6.43333 272.376 6.5L272.326 7.375C273.526 6.10833 274.176 5.475 274.276 5.475C274.543 5.475 275.101 5.60833 275.951 5.875C276.001 5.99167 276.035 6.125 276.051 6.275C276.085 6.425 276.101 6.55 276.101 6.65C276.101 6.75 276.001 6.98333 275.801 7.35C275.618 7.71667 275.493 7.91667 275.426 7.95C274.876 7.73333 274.435 7.625 274.101 7.625C273.885 7.625 273.318 7.89167 272.401 8.425V15.425L273.676 15.8V16.825C272.026 17.0917 271.126 17.225 270.976 17.225ZM278.866 17.225C278.782 17.225 278.591 17.0917 278.291 16.825C278.007 16.5583 277.866 16.3833 277.866 16.3V7.175L276.991 6.9V5.975C278.257 5.725 278.966 5.6 279.116 5.6C279.216 5.6 279.407 5.725 279.691 5.975C279.974 6.225 280.116 6.40833 280.116 6.525V15.65L280.991 15.9V16.825C279.724 17.0917 279.016 17.225 278.866 17.225ZM277.716 0.974999L279.641 0.849999L280.016 1.4L279.891 3.575H277.891L277.716 0.974999ZM286.929 17.225C286.212 17.225 285.537 17.0333 284.904 16.65C284.271 16.2667 283.754 15.675 283.354 14.875C282.971 14.075 282.779 13.0917 282.779 11.925C282.779 11.0917 282.829 10.325 282.929 9.625C283.046 8.90833 283.196 8.38333 283.379 8.05C283.546 7.8 283.887 7.46667 284.404 7.05C284.937 6.63333 285.471 6.26667 286.004 5.95C286.554 5.63333 286.929 5.475 287.129 5.475C288.029 5.475 288.754 5.61667 289.304 5.9C289.871 6.18333 290.304 6.725 290.604 7.525C290.921 8.325 291.079 9.475 291.079 10.975L285.179 11.475C285.179 12.475 285.312 13.275 285.579 13.875C285.846 14.4583 286.154 14.8667 286.504 15.1C286.871 15.3333 287.204 15.45 287.504 15.45L288.679 15.4L290.729 15.325V16.35C290.112 16.55 289.379 16.75 288.529 16.95C287.696 17.1333 287.162 17.225 286.929 17.225ZM288.654 10C288.654 9 288.521 8.25 288.254 7.75C287.987 7.23333 287.546 6.975 286.929 6.975C286.562 6.975 286.246 7.03333 285.979 7.15C285.762 7.25 285.579 7.63333 285.429 8.3C285.296 8.96667 285.229 9.68333 285.229 10.45L288.654 10ZM294.536 17.225C294.453 17.225 294.286 17.1083 294.036 16.875C293.803 16.6417 293.686 16.4833 293.686 16.4V7.275L292.811 6.9V5.975C294.178 5.725 294.936 5.6 295.086 5.6C295.169 5.6 295.319 5.71667 295.536 5.95C295.769 6.16667 295.886 6.31667 295.886 6.4V7.35C296.386 6.98333 296.919 6.6 297.486 6.2C298.069 5.8 298.394 5.6 298.461 5.6C299.661 5.6 300.561 5.91667 301.161 6.55C301.761 7.16667 302.061 8.25 302.061 9.8V15.525L302.936 15.9V16.825C301.553 17.0917 300.794 17.225 300.661 17.225C300.578 17.225 300.411 17.1083 300.161 16.875C299.911 16.6417 299.786 16.4833 299.786 16.4V9.8C299.786 8.76667 299.636 8.11667 299.336 7.85C299.036 7.58333 298.703 7.45 298.336 7.45C298.153 7.45 297.736 7.6 297.086 7.9C296.453 8.18333 296.078 8.35 295.961 8.4V15.525L296.811 15.9V16.825C295.444 17.0917 294.686 17.225 294.536 17.225ZM308.652 17.225C307.985 17.225 307.352 17.0333 306.752 16.65C306.168 16.25 305.685 15.6583 305.302 14.875C304.935 14.075 304.752 13.0917 304.752 11.925C304.752 11.075 304.802 10.3083 304.902 9.625C305.018 8.94167 305.168 8.41667 305.352 8.05C305.618 7.66667 306.21 7.15833 307.127 6.525C308.06 5.89167 308.677 5.575 308.977 5.575C309.243 5.575 309.985 5.66667 311.202 5.85V2.525L310.327 2.175V1.25C311.71 0.983332 312.468 0.849999 312.602 0.849999C312.685 0.849999 312.852 0.966666 313.102 1.2C313.352 1.43333 313.477 1.59167 313.477 1.675L313.352 6.325V15.55L314.202 15.9V16.825C312.885 17.0917 312.152 17.225 312.002 17.225C311.935 17.225 311.777 17.1083 311.527 16.875C311.277 16.6417 311.152 16.4833 311.152 16.4V15.425L310.402 16C309.318 16.8167 308.735 17.225 308.652 17.225ZM308.802 15.375C308.952 15.375 309.71 15.0417 311.077 14.375V7.5C310.61 7.36667 310.052 7.25 309.402 7.15C308.752 7.03333 308.318 6.99167 308.102 7.025C307.785 7.075 307.543 7.43333 307.377 8.1C307.227 8.76667 307.152 9.93333 307.152 11.6C307.152 12.45 307.243 13.1583 307.427 13.725C307.627 14.2917 307.852 14.7083 308.102 14.975C308.368 15.2417 308.602 15.375 308.802 15.375ZM317.656 17.225C317.573 17.225 317.414 17.1083 317.181 16.875C316.948 16.6417 316.831 16.4833 316.831 16.4V2.525L315.931 2.175V1.25C317.331 0.983332 318.106 0.849999 318.256 0.849999C318.339 0.849999 318.498 0.966666 318.731 1.2C318.964 1.43333 319.081 1.59167 319.081 1.675V15.525L319.931 15.9V16.825C318.564 17.0917 317.806 17.225 317.656 17.225ZM324.769 21.525C324.702 21.525 324.594 21.3833 324.444 21.1C324.294 20.8167 324.219 20.625 324.219 20.525L325.394 16.975C325.061 17.0417 324.844 17.075 324.744 17.075C324.694 17.075 324.569 17.0083 324.369 16.875L321.719 7.225L320.744 6.95V5.925C322.011 5.725 322.719 5.625 322.869 5.625C322.952 5.625 323.127 5.725 323.394 5.925C323.677 6.10833 323.836 6.25833 323.869 6.375L325.319 12.2L325.894 14.875H326.144L328.244 7.175L326.744 7V5.8L329.619 5.625C329.702 5.625 329.844 5.74167 330.044 5.975C330.261 6.20833 330.361 6.38333 330.344 6.5L327.019 17L326.294 19.85L327.269 20.3V21.225C325.736 21.425 324.902 21.525 324.769 21.525ZM332.176 6.05C332.726 4.68333 332.967 4.075 332.901 4.225C332.984 3.975 333.076 3.73333 333.176 3.5C333.142 3.48333 333.051 3.425 332.901 3.325C332.751 3.20833 332.676 3.11667 332.676 3.05L332.751 0.874999C333.584 0.774999 334.176 0.724999 334.526 0.724999C334.592 0.724999 334.709 0.816666 334.876 0.999999C335.042 1.16667 335.126 1.29167 335.126 1.375V2.625C335.126 2.94167 334.909 3.50833 334.476 4.325C334.042 5.125 333.584 5.85 333.101 6.5L332.176 6.05ZM335.701 6.05C336.251 4.68333 336.492 4.075 336.426 4.225C336.509 3.975 336.601 3.73333 336.701 3.5C336.667 3.48333 336.576 3.425 336.426 3.325C336.276 3.20833 336.201 3.11667 336.201 3.05L336.276 0.874999C337.109 0.774999 337.701 0.724999 338.051 0.724999C338.117 0.724999 338.234 0.816666 338.401 0.999999C338.567 1.16667 338.651 1.29167 338.651 1.375V2.625C338.651 2.94167 338.434 3.50833 338.001 4.325C337.567 5.125 337.109 5.85 336.626 6.5L335.701 6.05Z" fill="#82B593"/>
</svg>
