<svg width="123" height="26" viewBox="0 0 123 26" fill="none" xmlns="http://www.w3.org/2000/svg">
<path d="M7.92 25.36C6.66667 25.36 5.49333 24.9467 4.4 24.12C3.30667 23.2933 2.41333 22.0267 1.72 20.32C1.05333 18.5867 0.72 16.4533 0.72 13.92C0.72 12.1067 0.826667 10.44 1.04 8.92C1.25333 7.37333 1.54667 6.14667 1.92 5.24C2.32 4.6 2.97333 3.92 3.88 3.2C4.78667 2.45333 5.69333 1.82667 6.6 1.32C7.50667 0.813333 8.16 0.56 8.56 0.56C9.33333 0.586666 10.4133 0.639999 11.8 0.719998C13.2133 0.773332 14.6 0.853333 15.96 0.96L15.48 7.88H13.32L12.84 3.8C12.2 3.66667 11.36 3.56 10.32 3.48C9.28 3.4 8.49333 3.36 7.96 3.36C7.42667 3.36 7 3.44 6.68 3.6C6.04 3.94667 5.54667 4.90667 5.2 6.48C4.85333 8.05333 4.68 10.0667 4.68 12.52C4.68 16.2533 5.13333 18.84 6.04 20.28C6.97333 21.6933 8.22667 22.4 9.8 22.4H12.68L13.36 17.32L15.4 17.36L15.44 24.44C14.8 24.6267 13.4933 24.8267 11.52 25.04C9.54667 25.2533 8.34667 25.36 7.92 25.36ZM27.0822 25.36C24.3089 25.36 22.2289 24.6533 20.8422 23.24C19.4555 21.8267 18.7622 19.6267 18.7622 16.64C18.7622 15.4133 18.8422 14.2533 19.0022 13.16C19.1889 12.04 19.4289 11.2133 19.7222 10.68C19.9889 10.28 20.5355 9.74667 21.3622 9.08C22.2155 8.41333 23.0689 7.82667 23.9222 7.32C24.7755 6.81333 25.3622 6.56 25.6822 6.56C28.3755 6.56 30.4022 7.29333 31.7622 8.76C33.1489 10.2 33.8422 12.2933 33.8422 15.04C33.8422 16.32 33.7489 17.52 33.5622 18.64C33.4022 19.76 33.2022 20.68 32.9622 21.4C32.5355 21.9867 31.5622 22.8 30.0422 23.84C28.5489 24.8533 27.5622 25.36 27.0822 25.36ZM27.2822 23.08C27.4689 23.0267 28.1489 22.6933 29.3222 22.08C29.7755 20.08 30.0022 17.9067 30.0022 15.56C30.0022 13.48 29.6155 11.8533 28.8422 10.68C28.0955 9.50667 26.9755 8.92 25.4822 8.92C24.8155 8.92 24.2822 9.02667 23.8822 9.24C23.5089 9.45333 23.2022 10.16 22.9622 11.36C22.7222 12.56 22.6022 14.1333 22.6022 16.08C22.6022 18.6933 23.0422 20.52 23.9222 21.56C24.8289 22.5733 25.9489 23.08 27.2822 23.08ZM39.4872 25.36C39.3539 25.36 39.0872 25.1733 38.6872 24.8C38.3139 24.4267 38.1272 24.1733 38.1272 24.04V9.44L36.7272 8.84V7.36C38.9139 6.96 40.1272 6.76 40.3672 6.76C40.5005 6.76 40.7405 6.94667 41.0872 7.32C41.4605 7.66667 41.6472 7.90667 41.6472 8.04V9.56C42.4472 8.97333 43.3005 8.36 44.2072 7.72C45.1405 7.08 45.6605 6.76 45.7672 6.76C47.6872 6.76 49.1272 7.26667 50.0872 8.28C51.0472 9.26667 51.5272 11 51.5272 13.48V22.64L52.9272 23.24V24.72C50.7139 25.1467 49.5005 25.36 49.2872 25.36C49.1539 25.36 48.8872 25.1733 48.4872 24.8C48.0872 24.4267 47.8872 24.1733 47.8872 24.04V13.48C47.8872 11.8267 47.6472 10.7867 47.1672 10.36C46.6872 9.93333 46.1539 9.72 45.5672 9.72C45.2739 9.72 44.6072 9.96 43.5672 10.44C42.5539 10.8933 41.9539 11.16 41.7672 11.24V22.64L43.1272 23.24V24.72C40.9405 25.1467 39.7272 25.36 39.4872 25.36ZM60.0325 25.36C59.7392 25.36 59.3525 25.1733 58.8725 24.8C58.3925 24.4 57.9658 23.9467 57.5925 23.44C57.2458 22.9333 57.0725 22.5333 57.0725 22.24V9.2H54.5125V8L57.0725 6.72L59.3125 4C59.5525 4 60.0192 4.18667 60.7125 4.56V7.08H64.5925V9.4H60.7125V20.48C60.7125 21.3067 60.7792 21.8667 60.9125 22.16C61.0458 22.4533 61.2992 22.6 61.6725 22.6L64.9525 22.68V24.6C64.1792 24.76 63.2325 24.92 62.1125 25.08C60.9925 25.2667 60.2992 25.36 60.0325 25.36ZM73.2834 25.36C72.1901 25.36 71.1634 25.0533 70.2034 24.44C69.2701 23.8 68.5101 22.8267 67.9234 21.52C67.3368 20.2133 67.0434 18.5867 67.0434 16.64C67.0434 15.3867 67.1234 14.2267 67.2834 13.16C67.4701 12.0667 67.7101 11.24 68.0034 10.68C68.4301 10.0667 69.3768 9.25333 70.8434 8.24C72.3368 7.22667 73.3234 6.72 73.8034 6.72C74.3368 6.72 76.6701 7.02667 80.8034 7.64V22.68L82.1634 23.24V24.72C80.0568 25.1467 78.8834 25.36 78.6434 25.36C78.5368 25.36 78.2834 25.1733 77.8834 24.8C77.4834 24.4267 77.2834 24.1733 77.2834 24.04V22.48C77.1234 22.6133 76.4568 23.1333 75.2834 24.04C74.1101 24.92 73.4434 25.36 73.2834 25.36ZM73.5234 22.4C73.8168 22.4 75.0301 21.8667 77.1634 20.8V9.8C76.4968 9.58667 75.6301 9.4 74.5634 9.24C73.4968 9.05333 72.7768 8.98667 72.4034 9.04C71.8968 9.12 71.5101 9.69333 71.2434 10.76C71.0034 11.8267 70.8834 13.6933 70.8834 16.36C70.8834 17.72 71.0301 18.8533 71.3234 19.76C71.6434 20.6667 72.0034 21.3333 72.4034 21.76C72.8301 22.1867 73.2034 22.4 73.5234 22.4ZM90.6931 25.36C89.7331 25.36 88.8131 25.0533 87.9331 24.44C87.0531 23.8 86.3331 22.8533 85.7731 21.6C85.2398 20.32 84.9731 18.7467 84.9731 16.88C84.9731 15.5733 85.0531 14.3467 85.2131 13.2C85.3998 12.0533 85.6398 11.2133 85.9331 10.68C86.1998 10.28 86.7331 9.76 87.5331 9.12C88.3598 8.48 89.1865 7.92 90.0131 7.44C90.8398 6.96 91.4131 6.72 91.7331 6.72C93.0131 6.72 94.4798 6.97333 96.1331 7.48L96.0131 12.6H93.5731L93.0131 9.84C92.6931 9.68 92.2931 9.53333 91.8131 9.4C91.3331 9.26667 90.9065 9.2 90.5331 9.2C90.2931 9.2 90.1065 9.25333 89.9731 9.36C89.5998 9.65333 89.3065 10.44 89.0931 11.72C88.9065 13 88.8131 14.5467 88.8131 16.36C88.8131 17.7467 88.9598 18.8933 89.2531 19.8C89.5731 20.7067 89.9465 21.3733 90.3731 21.8C90.7998 22.2267 91.2131 22.44 91.6131 22.44H96.1331V24.12C95.1998 24.4133 94.1331 24.6933 92.9331 24.96C91.7598 25.2267 91.0131 25.36 90.6931 25.36ZM102.923 25.36C102.63 25.36 102.243 25.1733 101.763 24.8C101.283 24.4 100.856 23.9467 100.483 23.44C100.136 22.9333 99.9631 22.5333 99.9631 22.24V9.2H97.4031V8L99.9631 6.72L102.203 4C102.443 4 102.91 4.18667 103.603 4.56V7.08H107.483V9.4H103.603V20.48C103.603 21.3067 103.67 21.8667 103.803 22.16C103.936 22.4533 104.19 22.6 104.563 22.6L107.843 22.68V24.6C107.07 24.76 106.123 24.92 105.003 25.08C103.883 25.2667 103.19 25.36 102.923 25.36ZM117.214 25.36C116.654 25.36 115.534 25.2933 113.854 25.16C112.174 25.0533 110.894 24.9467 110.014 24.84L110.094 19.08L112.094 19.04L112.934 22.08C113.547 22.2933 114.267 22.4933 115.094 22.68C115.947 22.84 116.574 22.92 116.974 22.92C117.187 22.92 117.441 22.6267 117.734 22.04C118.054 21.4533 118.214 20.9333 118.214 20.48C118.214 20 118.094 19.6 117.854 19.28C117.641 18.9333 117.294 18.6133 116.814 18.32C116.334 18 115.521 17.5333 114.374 16.92C112.747 16.04 111.627 15.2667 111.014 14.6C110.401 13.9333 110.094 13.1333 110.094 12.2C110.094 11.2933 110.161 10.64 110.294 10.24C110.721 9.57333 111.427 8.82667 112.414 8C113.427 7.17333 114.147 6.76 114.574 6.76C115.454 6.76 116.587 6.8 117.974 6.88C119.387 6.93333 120.467 7 121.214 7.08L121.094 11.96H118.854L118.574 9.84C118.361 9.76 117.667 9.64 116.494 9.48C115.321 9.29333 114.587 9.2 114.294 9.2C113.707 9.2 113.414 9.76 113.414 10.88C113.414 11.3867 113.601 11.8267 113.974 12.2C114.374 12.5467 114.814 12.8667 115.294 13.16C115.801 13.4533 116.134 13.6533 116.294 13.76L117.374 14.4C118.814 15.2 119.947 15.96 120.774 16.68C121.627 17.3733 122.054 18.1733 122.054 19.08C122.054 19.6933 121.961 20.3733 121.774 21.12C121.347 21.8933 120.614 22.8 119.574 23.84C118.561 24.8533 117.774 25.36 117.214 25.36Z" fill="#4C845F"/>
</svg>
