<svg width="447" height="94" viewBox="0 0 447 94" fill="none" xmlns="http://www.w3.org/2000/svg">
<path d="M2.68 25.48L5.16 24.68V5.2L2.68 4.4V2.88H11.52V4.6L8.88 5.4V13.52H17.96V5.4L15.32 4.6V2.88H24.16V4.4L21.68 5.2V24.68L24.16 25.48V27H15.32V25.28L17.96 24.48V15.64H8.88V24.48L11.52 25.28V27H2.68V25.48ZM30.2038 27.36C30.0704 27.36 29.7638 27.1467 29.2838 26.72C28.8304 26.2933 28.6038 26.0133 28.6038 25.88V11.28L27.2038 10.84V9.36C29.2304 8.96 30.3638 8.76 30.6038 8.76C30.7638 8.76 31.0704 8.96 31.5238 9.36C31.9771 9.76 32.2038 10.0533 32.2038 10.24V24.84L33.6038 25.24V26.72C31.5771 27.1467 30.4438 27.36 30.2038 27.36ZM28.3638 1.36L31.4438 1.16L32.0438 2.04L31.8438 5.52H28.6438L28.3638 1.36ZM36.9453 31.24C37.1586 30.7867 37.4386 30.1067 37.7853 29.2C38.1586 28.2933 38.412 27.6133 38.5453 27.16C38.492 27.1333 38.3453 27.04 38.1053 26.88C37.8653 26.72 37.7453 26.5733 37.7453 26.44L37.8653 22.96C39.1986 22.8 40.1453 22.72 40.7053 22.72C40.812 22.72 40.9986 22.8667 41.2653 23.16C41.532 23.4267 41.6653 23.6267 41.6653 23.76V25.76C41.6653 26.2667 41.3186 27.16 40.6253 28.44C39.932 29.7467 39.1986 30.92 38.4253 31.96L36.9453 31.24ZM51.7434 25.48L54.2234 24.68V5.2L51.7034 4.4V2.88H60.5834V4.6L57.9434 5.4V24.48L60.5834 25.28V27H51.7434V25.48ZM64.25 9.48C65.13 7.29333 65.5167 6.32 65.41 6.56C65.5433 6.16 65.69 5.77333 65.85 5.4C65.7967 5.37333 65.65 5.28 65.41 5.12C65.17 4.93333 65.05 4.78667 65.05 4.68L65.17 1.2C66.5033 1.04 67.45 0.959999 68.01 0.959999C68.1167 0.959999 68.3033 1.10667 68.57 1.4C68.8367 1.66666 68.97 1.86667 68.97 2V4C68.97 4.50666 68.6233 5.41333 67.93 6.72C67.2367 8 66.5033 9.16 65.73 10.2L64.25 9.48ZM75.0809 27.36C74.9476 27.36 74.6809 27.1733 74.2809 26.8C73.9076 26.4267 73.7209 26.1733 73.7209 26.04V11.44L72.3209 10.84V9.36C74.5076 8.96 75.7209 8.76 75.9609 8.76C76.0943 8.76 76.3343 8.94667 76.6809 9.32C77.0543 9.66667 77.2409 9.90667 77.2409 10.04V11.56C77.9343 10.9733 78.6809 10.36 79.4809 9.72C80.2809 9.08 80.7209 8.76 80.8009 8.76C82.1343 8.76 83.2409 8.97333 84.1209 9.4C85.0276 9.82667 85.6809 10.5467 86.0809 11.56C86.7209 10.9733 87.4143 10.36 88.1609 9.72C88.9076 9.08 89.3209 8.76 89.4009 8.76C91.5076 8.76 93.0943 9.26667 94.1609 10.28C95.2276 11.2667 95.7609 13 95.7609 15.48V24.64L97.1209 25.24V26.72C94.9343 27.1467 93.7343 27.36 93.5209 27.36C93.3876 27.36 93.1209 27.1733 92.7209 26.8C92.3209 26.4267 92.1209 26.1733 92.1209 26.04V15.48C92.1209 13.8267 91.8543 12.7867 91.3209 12.36C90.8143 11.9333 90.2409 11.72 89.6009 11.72C89.3609 11.72 88.3476 12.2267 86.5609 13.24V24.64L87.9209 25.24V26.72C85.7343 27.1467 84.5343 27.36 84.3209 27.36C84.1876 27.36 83.9209 27.1733 83.5209 26.8C83.1209 26.4267 82.9209 26.1733 82.9209 26.04V15.48C82.9209 13.8267 82.6809 12.7867 82.2009 12.36C81.7209 11.9333 81.1876 11.72 80.6009 11.72C80.3343 11.72 79.2543 12.2267 77.3609 13.24V24.64L78.7209 25.24V26.72C76.5343 27.1467 75.3209 27.36 75.0809 27.36ZM107.386 31.92C107.013 31.92 106.146 31.72 104.786 31.32L103.386 30.96V29.08C105.92 29.08 107.386 29.04 107.786 28.96C108.64 28.8 109.066 27.2133 109.066 24.2V5.2L106.466 4.4V2.88H115.386V4.4L112.786 5.2V25.48C112.786 26.2533 112.426 27.1333 111.706 28.12C111.013 29.1333 110.226 30.0133 109.346 30.76C108.466 31.5333 107.813 31.92 107.386 31.92ZM124.698 27.36C123.604 27.36 122.578 27.0533 121.618 26.44C120.684 25.8 119.924 24.8267 119.338 23.52C118.751 22.2133 118.458 20.5867 118.458 18.64C118.458 17.3867 118.538 16.2267 118.698 15.16C118.884 14.0667 119.124 13.24 119.418 12.68C119.844 12.0667 120.791 11.2533 122.258 10.24C123.751 9.22667 124.738 8.72 125.218 8.72C125.751 8.72 128.084 9.02667 132.218 9.64V24.68L133.578 25.24V26.72C131.471 27.1467 130.298 27.36 130.058 27.36C129.951 27.36 129.698 27.1733 129.298 26.8C128.898 26.4267 128.697 26.1733 128.697 26.04V24.48C128.538 24.6133 127.871 25.1333 126.698 26.04C125.524 26.92 124.858 27.36 124.698 27.36ZM124.938 24.4C125.231 24.4 126.444 23.8667 128.578 22.8V11.8C127.911 11.5867 127.044 11.4 125.978 11.24C124.911 11.0533 124.191 10.9867 123.818 11.04C123.311 11.12 122.924 11.6933 122.658 12.76C122.418 13.8267 122.298 15.6933 122.298 18.36C122.298 19.72 122.444 20.8533 122.738 21.76C123.058 22.6667 123.418 23.3333 123.818 23.76C124.244 24.1867 124.618 24.4 124.938 24.4ZM143.667 27.36C143.107 27.36 141.987 27.2933 140.307 27.16C138.627 27.0533 137.347 26.9467 136.467 26.84L136.547 21.08L138.547 21.04L139.387 24.08C140.001 24.2933 140.721 24.4933 141.547 24.68C142.401 24.84 143.027 24.92 143.427 24.92C143.641 24.92 143.894 24.6267 144.187 24.04C144.507 23.4533 144.667 22.9333 144.667 22.48C144.667 22 144.547 21.6 144.307 21.28C144.094 20.9333 143.747 20.6133 143.267 20.32C142.787 20 141.974 19.5333 140.827 18.92C139.201 18.04 138.081 17.2667 137.467 16.6C136.854 15.9333 136.547 15.1333 136.547 14.2C136.547 13.2933 136.614 12.64 136.747 12.24C137.174 11.5733 137.881 10.8267 138.867 10C139.881 9.17333 140.601 8.76 141.027 8.76C141.907 8.76 143.041 8.8 144.427 8.88C145.841 8.93333 146.921 9 147.667 9.08L147.547 13.96H145.307L145.027 11.84C144.814 11.76 144.121 11.64 142.947 11.48C141.774 11.2933 141.041 11.2 140.747 11.2C140.161 11.2 139.867 11.76 139.867 12.88C139.867 13.3867 140.054 13.8267 140.427 14.2C140.827 14.5467 141.267 14.8667 141.747 15.16C142.254 15.4533 142.587 15.6533 142.747 15.76L143.827 16.4C145.267 17.2 146.401 17.96 147.227 18.68C148.081 19.3733 148.507 20.1733 148.507 21.08C148.507 21.6933 148.414 22.3733 148.227 23.12C147.801 23.8933 147.067 24.8 146.027 25.84C145.014 26.8533 144.227 27.36 143.667 27.36ZM159.238 27.36C156.465 27.36 154.385 26.6533 152.998 25.24C151.612 23.8267 150.918 21.6267 150.918 18.64C150.918 17.4133 150.998 16.2533 151.158 15.16C151.345 14.04 151.585 13.2133 151.878 12.68C152.145 12.28 152.692 11.7467 153.518 11.08C154.372 10.4133 155.225 9.82667 156.078 9.32C156.932 8.81333 157.518 8.56 157.838 8.56C160.532 8.56 162.558 9.29333 163.918 10.76C165.305 12.2 165.998 14.2933 165.998 17.04C165.998 18.32 165.905 19.52 165.718 20.64C165.558 21.76 165.358 22.68 165.118 23.4C164.692 23.9867 163.718 24.8 162.198 25.84C160.705 26.8533 159.718 27.36 159.238 27.36ZM159.438 25.08C159.625 25.0267 160.305 24.6933 161.478 24.08C161.932 22.08 162.158 19.9067 162.158 17.56C162.158 15.48 161.772 13.8533 160.998 12.68C160.252 11.5067 159.132 10.92 157.638 10.92C156.972 10.92 156.438 11.0267 156.038 11.24C155.665 11.4533 155.358 12.16 155.118 13.36C154.878 14.56 154.758 16.1333 154.758 18.08C154.758 20.6933 155.198 22.52 156.078 23.56C156.985 24.5733 158.105 25.08 159.438 25.08ZM171.643 27.36C171.51 27.36 171.243 27.1733 170.843 26.8C170.47 26.4267 170.283 26.1733 170.283 26.04V11.44L168.883 10.84V9.36C171.07 8.96 172.283 8.76 172.523 8.76C172.657 8.76 172.897 8.94667 173.243 9.32C173.617 9.66667 173.803 9.90667 173.803 10.04V11.56C174.603 10.9733 175.457 10.36 176.363 9.72C177.297 9.08 177.817 8.76 177.923 8.76C179.843 8.76 181.283 9.26667 182.243 10.28C183.203 11.2667 183.683 13 183.683 15.48V24.64L185.083 25.24V26.72C182.87 27.1467 181.657 27.36 181.443 27.36C181.31 27.36 181.043 27.1733 180.643 26.8C180.243 26.4267 180.043 26.1733 180.043 26.04V15.48C180.043 13.8267 179.803 12.7867 179.323 12.36C178.843 11.9333 178.31 11.72 177.723 11.72C177.43 11.72 176.763 11.96 175.723 12.44C174.71 12.8933 174.11 13.16 173.923 13.24V24.64L175.283 25.24V26.72C173.097 27.1467 171.883 27.36 171.643 27.36ZM201.756 27.36C200.503 27.36 199.329 26.9467 198.236 26.12C197.143 25.2933 196.249 24.0267 195.556 22.32C194.889 20.5867 194.556 18.4533 194.556 15.92C194.556 14.1067 194.663 12.44 194.876 10.92C195.089 9.37333 195.383 8.14667 195.756 7.24C196.156 6.6 196.809 5.92 197.716 5.2C198.623 4.45333 199.529 3.82667 200.436 3.32C201.343 2.81333 201.996 2.56 202.396 2.56C203.169 2.58667 204.249 2.64 205.636 2.72C207.049 2.77333 208.436 2.85333 209.796 2.96L209.316 9.88H207.156L206.676 5.8C206.036 5.66667 205.196 5.56 204.156 5.48C203.116 5.4 202.329 5.36 201.796 5.36C201.263 5.36 200.836 5.44 200.516 5.6C199.876 5.94667 199.383 6.90667 199.036 8.48C198.689 10.0533 198.516 12.0667 198.516 14.52C198.516 18.2533 198.969 20.84 199.876 22.28C200.809 23.6933 202.063 24.4 203.636 24.4H206.516L207.196 19.32L209.236 19.36L209.276 26.44C208.636 26.6267 207.329 26.8267 205.356 27.04C203.383 27.2533 202.183 27.36 201.756 27.36ZM215.158 27.36C215.025 27.36 214.771 27.1733 214.398 26.8C214.025 26.4267 213.838 26.1733 213.838 26.04V3.84L212.438 3.28V1.8C214.625 1.37333 215.838 1.16 216.078 1.16C216.211 1.16 216.478 1.34667 216.878 1.72C217.278 2.09333 217.478 2.34667 217.478 2.48L217.278 11.52L217.478 11.56C219.985 9.69333 221.318 8.76 221.478 8.76C223.398 8.76 224.838 9.26667 225.798 10.28C226.758 11.2667 227.238 13 227.238 15.48V24.64L228.638 25.24V26.72C226.425 27.1467 225.198 27.36 224.958 27.36C224.825 27.36 224.558 27.1733 224.158 26.8C223.785 26.4267 223.598 26.1733 223.598 26.04V15.48C223.598 13.8267 223.358 12.7867 222.878 12.36C222.425 11.9333 221.891 11.72 221.278 11.72C221.011 11.72 219.745 12.2267 217.478 13.24V24.64L218.838 25.24V26.72C216.625 27.1467 215.398 27.36 215.158 27.36ZM238.183 27.36C237.037 27.36 235.957 27.0533 234.943 26.44C233.93 25.8267 233.103 24.88 232.463 23.6C231.85 22.32 231.543 20.7467 231.543 18.88C231.543 17.5467 231.623 16.32 231.783 15.2C231.97 14.0533 232.21 13.2133 232.503 12.68C232.77 12.28 233.317 11.7467 234.143 11.08C234.997 10.4133 235.85 9.82667 236.703 9.32C237.583 8.81333 238.183 8.56 238.503 8.56C239.943 8.56 241.103 8.78667 241.983 9.24C242.89 9.69333 243.583 10.56 244.063 11.84C244.57 13.12 244.823 14.96 244.823 17.36L235.383 18.16C235.383 19.76 235.597 21.04 236.023 22C236.45 22.9333 236.943 23.5867 237.503 23.96C238.09 24.3333 238.623 24.52 239.103 24.52L240.983 24.44L244.263 24.32V25.96C243.277 26.28 242.103 26.6 240.743 26.92C239.41 27.2133 238.557 27.36 238.183 27.36ZM240.943 15.8C240.943 14.2 240.73 13 240.303 12.2C239.877 11.3733 239.17 10.96 238.183 10.96C237.597 10.96 237.09 11.0533 236.663 11.24C236.317 11.4 236.023 12.0133 235.783 13.08C235.57 14.1467 235.463 15.2933 235.463 16.52L240.943 15.8ZM250.354 27.36C250.221 27.36 249.954 27.1733 249.554 26.8C249.181 26.4267 248.994 26.1733 248.994 26.04V11.44L247.594 10.84V9.36C249.781 8.96 250.994 8.76 251.234 8.76C251.368 8.76 251.608 8.94667 251.954 9.32C252.328 9.66667 252.514 9.90667 252.514 10.04V11.56C253.314 10.9733 254.168 10.36 255.074 9.72C256.008 9.08 256.528 8.76 256.634 8.76C258.554 8.76 259.994 9.26667 260.954 10.28C261.914 11.2667 262.394 13 262.394 15.48V24.64L263.794 25.24V26.72C261.581 27.1467 260.368 27.36 260.154 27.36C260.021 27.36 259.754 27.1733 259.354 26.8C258.954 26.4267 258.754 26.1733 258.754 26.04V15.48C258.754 13.8267 258.514 12.7867 258.034 12.36C257.554 11.9333 257.021 11.72 256.434 11.72C256.141 11.72 255.474 11.96 254.434 12.44C253.421 12.8933 252.821 13.16 252.634 13.24V24.64L253.994 25.24V26.72C251.808 27.1467 250.594 27.36 250.354 27.36ZM268.38 27.4C268.22 27.4 267.966 27.24 267.62 26.92C267.273 26.5733 267.1 26.32 267.1 26.16L267.02 22.84C267.526 22.7067 268.06 22.6 268.62 22.52C269.206 22.4133 269.62 22.36 269.86 22.36C269.993 22.36 270.233 22.5333 270.58 22.88C270.953 23.2267 271.14 23.4667 271.14 23.6L270.9 26.92C270.366 27.0533 269.873 27.16 269.42 27.24C268.966 27.32 268.62 27.3733 268.38 27.4ZM7 84.48L9.6 83.68V77.04L3.24 64.2L0.76 63.4V61.88H9.92V63.6L7.28 64.4L11.52 73.4H11.88L15.92 64.4L13.16 63.6V61.88H22V63.4L19.52 64.2L13.32 76.92V83.68L15.92 84.48V86H7V84.48ZM31.5822 86.36C28.8089 86.36 26.7289 85.6533 25.3422 84.24C23.9555 82.8267 23.2622 80.6267 23.2622 77.64C23.2622 76.4133 23.3422 75.2533 23.5022 74.16C23.6889 73.04 23.9289 72.2133 24.2222 71.68C24.4889 71.28 25.0355 70.7467 25.8622 70.08C26.7155 69.4133 27.5689 68.8267 28.4222 68.32C29.2755 67.8133 29.8622 67.56 30.1822 67.56C32.8755 67.56 34.9022 68.2933 36.2622 69.76C37.6489 71.2 38.3422 73.2933 38.3422 76.04C38.3422 77.32 38.2489 78.52 38.0622 79.64C37.9022 80.76 37.7022 81.68 37.4622 82.4C37.0355 82.9867 36.0622 83.8 34.5422 84.84C33.0489 85.8533 32.0622 86.36 31.5822 86.36ZM31.7822 84.08C31.9689 84.0267 32.6489 83.6933 33.8222 83.08C34.2755 81.08 34.5022 78.9067 34.5022 76.56C34.5022 74.48 34.1155 72.8533 33.3422 71.68C32.5955 70.5067 31.4755 69.92 29.9822 69.92C29.3155 69.92 28.7822 70.0267 28.3822 70.24C28.0089 70.4533 27.7022 71.16 27.4622 72.36C27.2222 73.56 27.1022 75.1333 27.1022 77.08C27.1022 79.6933 27.5422 81.52 28.4222 82.56C29.3289 83.5733 30.4489 84.08 31.7822 84.08ZM48.2672 86.36C46.3472 86.36 44.9072 85.8667 43.9472 84.88C42.9872 83.8667 42.5072 82.1067 42.5072 79.6V70.44L41.1472 69.84V68.36C43.3339 67.96 44.5339 67.76 44.7472 67.76C44.8805 67.76 45.1472 67.9467 45.5472 68.32C45.9472 68.6933 46.1472 68.9333 46.1472 69.04V79.6C46.1472 81.2533 46.3872 82.3067 46.8672 82.76C47.3472 83.1867 47.8805 83.4 48.4672 83.4C48.7339 83.4 49.9472 82.8933 52.1072 81.88V70.44L50.7472 69.84V68.36C52.9339 67.96 54.1472 67.76 54.3872 67.76C54.5205 67.76 54.7739 67.9467 55.1472 68.32C55.5472 68.6933 55.7472 68.9333 55.7472 69.04V83.64L57.1072 84.24V85.72C54.9472 86.1467 53.7472 86.36 53.5072 86.36C53.3739 86.36 53.1205 86.1733 52.7472 85.8C52.4005 85.4267 52.2272 85.1733 52.2272 85.04V83.52C51.4805 84.1067 50.6539 84.7333 49.7472 85.4C48.8405 86.04 48.3472 86.36 48.2672 86.36ZM62.5809 86.36C62.4476 86.36 62.1809 86.1733 61.7809 85.8C61.4076 85.4267 61.2209 85.1733 61.2209 85.04V70.32L59.8209 69.84V68.36C61.8476 67.96 62.9809 67.76 63.2209 67.76C63.3543 67.76 63.6476 67.9733 64.1009 68.4C64.5809 68.8267 64.8209 69.0933 64.8209 69.2L64.7409 70.6C66.6609 68.5733 67.7009 67.56 67.8609 67.56C68.2876 67.56 69.1809 67.7733 70.5409 68.2C70.6209 68.3867 70.6743 68.6 70.7009 68.84C70.7543 69.08 70.7809 69.28 70.7809 69.44C70.7809 69.6 70.6209 69.9733 70.3009 70.56C70.0076 71.1467 69.8076 71.4667 69.7009 71.52C68.8209 71.1733 68.1143 71 67.5809 71C67.2343 71 66.3276 71.4267 64.8609 72.28V83.48L66.9009 84.08V85.72C64.2609 86.1467 62.8209 86.36 62.5809 86.36ZM78.8909 84.48L81.3709 83.68V64.2L78.8909 63.4V61.88H94.0509L93.5309 68.88H91.3709L90.9309 63.84L85.0909 64.4V73L90.6509 73.2V75.08L85.0909 75.28V83.4L89.0909 84.28V86H78.8909V84.48ZM103.345 86.36C101.425 86.36 99.9853 85.8667 99.0253 84.88C98.0653 83.8667 97.5853 82.1067 97.5853 79.6V70.44L96.2253 69.84V68.36C98.412 67.96 99.612 67.76 99.8253 67.76C99.9586 67.76 100.225 67.9467 100.625 68.32C101.025 68.6933 101.225 68.9333 101.225 69.04V79.6C101.225 81.2533 101.465 82.3067 101.945 82.76C102.425 83.1867 102.959 83.4 103.545 83.4C103.812 83.4 105.025 82.8933 107.185 81.88V70.44L105.825 69.84V68.36C108.012 67.96 109.225 67.76 109.465 67.76C109.599 67.76 109.852 67.9467 110.225 68.32C110.625 68.6933 110.825 68.9333 110.825 69.04V83.64L112.185 84.24V85.72C110.025 86.1467 108.825 86.36 108.585 86.36C108.452 86.36 108.199 86.1733 107.825 85.8C107.479 85.4267 107.305 85.1733 107.305 85.04V83.52C106.559 84.1067 105.732 84.7333 104.825 85.4C103.919 86.04 103.425 86.36 103.345 86.36ZM119.259 86.36C118.966 86.36 118.579 86.1733 118.099 85.8C117.619 85.4 117.192 84.9467 116.819 84.44C116.472 83.9333 116.299 83.5333 116.299 83.24V70.2H113.739V69L116.299 67.72L118.539 65C118.779 65 119.246 65.1867 119.939 65.56V68.08H123.819V70.4H119.939V81.48C119.939 82.3067 120.006 82.8667 120.139 83.16C120.272 83.4533 120.526 83.6 120.899 83.6L124.179 83.68V85.6C123.406 85.76 122.459 85.92 121.339 86.08C120.219 86.2667 119.526 86.36 119.259 86.36ZM133.15 86.36C131.23 86.36 129.79 85.8667 128.83 84.88C127.87 83.8667 127.39 82.1067 127.39 79.6V70.44L126.03 69.84V68.36C128.217 67.96 129.417 67.76 129.63 67.76C129.763 67.76 130.03 67.9467 130.43 68.32C130.83 68.6933 131.03 68.9333 131.03 69.04V79.6C131.03 81.2533 131.27 82.3067 131.75 82.76C132.23 83.1867 132.763 83.4 133.35 83.4C133.617 83.4 134.83 82.8933 136.99 81.88V70.44L135.63 69.84V68.36C137.817 67.96 139.03 67.76 139.27 67.76C139.403 67.76 139.657 67.9467 140.03 68.32C140.43 68.6933 140.63 68.9333 140.63 69.04V83.64L141.99 84.24V85.72C139.83 86.1467 138.63 86.36 138.39 86.36C138.257 86.36 138.003 86.1733 137.63 85.8C137.283 85.4267 137.11 85.1733 137.11 85.04V83.52C136.363 84.1067 135.537 84.7333 134.63 85.4C133.723 86.04 133.23 86.36 133.15 86.36ZM147.464 86.36C147.33 86.36 147.064 86.1733 146.664 85.8C146.29 85.4267 146.104 85.1733 146.104 85.04V70.32L144.704 69.84V68.36C146.73 67.96 147.864 67.76 148.104 67.76C148.237 67.76 148.53 67.9733 148.984 68.4C149.464 68.8267 149.704 69.0933 149.704 69.2L149.624 70.6C151.544 68.5733 152.584 67.56 152.744 67.56C153.17 67.56 154.064 67.7733 155.424 68.2C155.504 68.3867 155.557 68.6 155.584 68.84C155.637 69.08 155.664 69.28 155.664 69.44C155.664 69.6 155.504 69.9733 155.184 70.56C154.89 71.1467 154.69 71.4667 154.584 71.52C153.704 71.1733 152.997 71 152.464 71C152.117 71 151.21 71.4267 149.744 72.28V83.48L151.784 84.08V85.72C149.144 86.1467 147.704 86.36 147.464 86.36ZM163.496 86.36C162.349 86.36 161.269 86.0533 160.256 85.44C159.243 84.8267 158.416 83.88 157.776 82.6C157.163 81.32 156.856 79.7467 156.856 77.88C156.856 76.5467 156.936 75.32 157.096 74.2C157.283 73.0533 157.523 72.2133 157.816 71.68C158.083 71.28 158.629 70.7467 159.456 70.08C160.309 69.4133 161.163 68.8267 162.016 68.32C162.896 67.8133 163.496 67.56 163.816 67.56C165.256 67.56 166.416 67.7867 167.296 68.24C168.203 68.6933 168.896 69.56 169.376 70.84C169.883 72.12 170.136 73.96 170.136 76.36L160.696 77.16C160.696 78.76 160.909 80.04 161.336 81C161.763 81.9333 162.256 82.5867 162.816 82.96C163.403 83.3333 163.936 83.52 164.416 83.52L166.296 83.44L169.576 83.32V84.96C168.589 85.28 167.416 85.6 166.056 85.92C164.723 86.2133 163.869 86.36 163.496 86.36ZM166.256 74.8C166.256 73.2 166.043 72 165.616 71.2C165.189 70.3733 164.483 69.96 163.496 69.96C162.909 69.96 162.403 70.0533 161.976 70.24C161.629 70.4 161.336 71.0133 161.096 72.08C160.883 73.1467 160.776 74.2933 160.776 75.52L166.256 74.8ZM187.474 86.36C185.474 86.36 182.874 86.2267 179.674 85.96L179.954 78.64H182.194L182.834 83.12C183.874 83.28 184.941 83.4267 186.034 83.56C187.154 83.6667 188.074 83.72 188.794 83.72C188.954 83.72 189.167 83.5467 189.434 83.2C189.701 82.8533 189.941 82.44 190.154 81.96C190.367 81.4533 190.474 80.9733 190.474 80.52C190.474 79.48 190.087 78.6133 189.314 77.92C188.567 77.2267 187.407 76.44 185.834 75.56C184.581 74.84 183.567 74.2 182.794 73.64C182.021 73.08 181.354 72.3733 180.794 71.52C180.261 70.6667 179.994 69.68 179.994 68.56C179.994 67.8133 180.061 67.12 180.194 66.48C180.514 65.8933 181.114 65.2133 181.994 64.44C182.874 63.6667 183.781 63 184.714 62.44C185.647 61.8533 186.341 61.56 186.794 61.56C187.007 61.56 188.581 61.7067 191.514 62C191.834 62.0267 192.167 62.0533 192.514 62.08C192.861 62.1067 193.207 62.1467 193.554 62.2L193.274 69.12H191.034L190.434 65.04C189.581 64.88 188.567 64.7333 187.394 64.6C186.247 64.44 185.381 64.36 184.794 64.36C184.447 64.36 184.154 64.6 183.914 65.08C183.674 65.5333 183.554 66.2533 183.554 67.24C183.554 68.3067 183.927 69.2 184.674 69.92C185.421 70.64 186.527 71.4133 187.994 72.24C189.434 73.0667 190.541 73.76 191.314 74.32C192.114 74.8533 192.807 75.5467 193.394 76.4C193.981 77.2533 194.274 78.28 194.274 79.48C194.274 80.1467 194.194 80.8 194.034 81.44C193.714 82.1067 193.127 82.8267 192.274 83.6C191.421 84.3733 190.527 85.0267 189.594 85.56C188.687 86.0933 187.981 86.36 187.474 86.36ZM205.41 86.36C202.637 86.36 200.557 85.6533 199.17 84.24C197.784 82.8267 197.09 80.6267 197.09 77.64C197.09 76.4133 197.17 75.2533 197.33 74.16C197.517 73.04 197.757 72.2133 198.05 71.68C198.317 71.28 198.864 70.7467 199.69 70.08C200.544 69.4133 201.397 68.8267 202.25 68.32C203.104 67.8133 203.69 67.56 204.01 67.56C206.704 67.56 208.73 68.2933 210.09 69.76C211.477 71.2 212.17 73.2933 212.17 76.04C212.17 77.32 212.077 78.52 211.89 79.64C211.73 80.76 211.53 81.68 211.29 82.4C210.864 82.9867 209.89 83.8 208.37 84.84C206.877 85.8533 205.89 86.36 205.41 86.36ZM205.61 84.08C205.797 84.0267 206.477 83.6933 207.65 83.08C208.104 81.08 208.33 78.9067 208.33 76.56C208.33 74.48 207.944 72.8533 207.17 71.68C206.424 70.5067 205.304 69.92 203.81 69.92C203.144 69.92 202.61 70.0267 202.21 70.24C201.837 70.4533 201.53 71.16 201.29 72.36C201.05 73.56 200.93 75.1333 200.93 77.08C200.93 79.6933 201.37 81.52 202.25 82.56C203.157 83.5733 204.277 84.08 205.61 84.08ZM217.815 86.36C217.682 86.36 217.415 86.1733 217.015 85.8C216.642 85.4267 216.455 85.1733 216.455 85.04V70.2H214.575V68.64L216.455 67.88V66.36C216.455 65.8267 216.775 65.0667 217.415 64.08C218.082 63.0667 218.815 62.16 219.615 61.36C220.442 60.56 221.055 60.16 221.455 60.16C221.829 60.16 222.349 60.1867 223.015 60.24C223.682 60.2933 224.335 60.3467 224.975 60.4C225.162 60.5333 225.349 60.7333 225.535 61C225.749 61.2667 225.855 61.4667 225.855 61.6C225.855 61.68 225.735 62 225.495 62.56C225.255 63.0933 225.109 63.44 225.055 63.6C224.442 63.44 223.669 63.2533 222.735 63.04C221.802 62.8267 221.189 62.72 220.895 62.72C220.709 62.72 220.535 62.96 220.375 63.44C220.215 63.8933 220.135 64.4 220.135 64.96L220.095 68.08H223.895V70.24H220.095V83.48L222.135 84.08V85.72C219.495 86.1467 218.055 86.36 217.815 86.36ZM229.845 86.36C229.552 86.36 229.165 86.1733 228.685 85.8C228.205 85.4 227.778 84.9467 227.405 84.44C227.058 83.9333 226.885 83.5333 226.885 83.24V70.2H224.325V69L226.885 67.72L229.125 65C229.365 65 229.832 65.1867 230.525 65.56V68.08H234.405V70.4H230.525V81.48C230.525 82.3067 230.592 82.8667 230.725 83.16C230.858 83.4533 231.112 83.6 231.485 83.6L234.765 83.68V85.6C233.992 85.76 233.045 85.92 231.925 86.08C230.805 86.2667 230.112 86.36 229.845 86.36ZM241.576 86.44C241.496 86.44 241.323 86.3333 241.056 86.12L236.736 70.36L235.256 69.92V68.28C237.283 67.96 238.416 67.8 238.656 67.8C238.789 67.8 239.069 67.96 239.496 68.28C239.923 68.5733 240.163 68.8133 240.216 69L242.536 78.76L243.336 82.2H243.776L246.536 73L245.776 70.32L244.296 69.92V68.28C246.323 67.96 247.456 67.8 247.696 67.8C247.829 67.8 248.109 67.96 248.536 68.28C248.963 68.5733 249.203 68.8133 249.256 69L251.576 78.76L252.376 82.2H252.816L255.936 70.28L253.296 70V68.08L258.176 67.8C258.309 67.8 258.536 67.9867 258.856 68.36C259.176 68.7333 259.336 69.0133 259.336 69.2L254.256 85.72C252.016 86.2 250.803 86.44 250.616 86.44C250.536 86.44 250.363 86.3333 250.096 86.12L247.776 77.32H247.536L245.216 85.72C242.976 86.2 241.763 86.44 241.576 86.44ZM267.51 86.36C266.417 86.36 265.39 86.0533 264.43 85.44C263.497 84.8 262.737 83.8267 262.15 82.52C261.563 81.2133 261.27 79.5867 261.27 77.64C261.27 76.3867 261.35 75.2267 261.51 74.16C261.697 73.0667 261.937 72.24 262.23 71.68C262.657 71.0667 263.603 70.2533 265.07 69.24C266.563 68.2267 267.55 67.72 268.03 67.72C268.563 67.72 270.897 68.0267 275.03 68.64V83.68L276.39 84.24V85.72C274.283 86.1467 273.11 86.36 272.87 86.36C272.763 86.36 272.51 86.1733 272.11 85.8C271.71 85.4267 271.51 85.1733 271.51 85.04V83.48C271.35 83.6133 270.683 84.1333 269.51 85.04C268.337 85.92 267.67 86.36 267.51 86.36ZM267.75 83.4C268.043 83.4 269.257 82.8667 271.39 81.8V70.8C270.723 70.5867 269.857 70.4 268.79 70.24C267.723 70.0533 267.003 69.9867 266.63 70.04C266.123 70.12 265.737 70.6933 265.47 71.76C265.23 72.8267 265.11 74.6933 265.11 77.36C265.11 78.72 265.257 79.8533 265.55 80.76C265.87 81.6667 266.23 82.3333 266.63 82.76C267.057 83.1867 267.43 83.4 267.75 83.4ZM281.8 86.36C281.666 86.36 281.4 86.1733 281 85.8C280.626 85.4267 280.44 85.1733 280.44 85.04V70.32L279.04 69.84V68.36C281.066 67.96 282.2 67.76 282.44 67.76C282.573 67.76 282.866 67.9733 283.32 68.4C283.8 68.8267 284.04 69.0933 284.04 69.2L283.96 70.6C285.88 68.5733 286.92 67.56 287.08 67.56C287.506 67.56 288.4 67.7733 289.76 68.2C289.84 68.3867 289.893 68.6 289.92 68.84C289.973 69.08 290 69.28 290 69.44C290 69.6 289.84 69.9733 289.52 70.56C289.226 71.1467 289.026 71.4667 288.92 71.52C288.04 71.1733 287.333 71 286.8 71C286.453 71 285.546 71.4267 284.08 72.28V83.48L286.12 84.08V85.72C283.48 86.1467 282.04 86.36 281.8 86.36ZM297.832 86.36C296.685 86.36 295.605 86.0533 294.592 85.44C293.579 84.8267 292.752 83.88 292.112 82.6C291.499 81.32 291.192 79.7467 291.192 77.88C291.192 76.5467 291.272 75.32 291.432 74.2C291.619 73.0533 291.859 72.2133 292.152 71.68C292.419 71.28 292.965 70.7467 293.792 70.08C294.645 69.4133 295.499 68.8267 296.352 68.32C297.232 67.8133 297.832 67.56 298.152 67.56C299.592 67.56 300.752 67.7867 301.632 68.24C302.539 68.6933 303.232 69.56 303.712 70.84C304.219 72.12 304.472 73.96 304.472 76.36L295.032 77.16C295.032 78.76 295.245 80.04 295.672 81C296.099 81.9333 296.592 82.5867 297.152 82.96C297.739 83.3333 298.272 83.52 298.752 83.52L300.632 83.44L303.912 83.32V84.96C302.925 85.28 301.752 85.6 300.392 85.92C299.059 86.2133 298.205 86.36 297.832 86.36ZM300.592 74.8C300.592 73.2 300.379 72 299.952 71.2C299.525 70.3733 298.819 69.96 297.832 69.96C297.245 69.96 296.739 70.0533 296.312 70.24C295.965 70.4 295.672 71.0133 295.432 72.08C295.219 73.1467 295.112 74.2933 295.112 75.52L300.592 74.8ZM313.93 84.48L316.41 83.68V64.2L313.93 63.4V61.88H329.85L329.33 68.88H327.17L326.73 63.84L320.13 64.4V72.32L325.97 72.52V74.4L320.13 74.6V83.4L327.09 84.04L327.73 78.84H329.89L330.05 86H313.93V84.48ZM335.354 86.36C335.221 86.36 334.954 86.1733 334.554 85.8C334.181 85.4267 333.994 85.1733 333.994 85.04V70.44L332.594 69.84V68.36C334.781 67.96 335.994 67.76 336.234 67.76C336.368 67.76 336.608 67.9467 336.954 68.32C337.328 68.6667 337.514 68.9067 337.514 69.04V70.56C338.314 69.9733 339.168 69.36 340.074 68.72C341.008 68.08 341.528 67.76 341.634 67.76C343.554 67.76 344.994 68.2667 345.954 69.28C346.914 70.2667 347.394 72 347.394 74.48V83.64L348.794 84.24V85.72C346.581 86.1467 345.368 86.36 345.154 86.36C345.021 86.36 344.754 86.1733 344.354 85.8C343.954 85.4267 343.754 85.1733 343.754 85.04V74.48C343.754 72.8267 343.514 71.7867 343.034 71.36C342.554 70.9333 342.021 70.72 341.434 70.72C341.141 70.72 340.474 70.96 339.434 71.44C338.421 71.8933 337.821 72.16 337.634 72.24V83.64L338.994 84.24V85.72C336.808 86.1467 335.594 86.36 335.354 86.36ZM359.38 93.24C358.446 93.24 357.06 93.12 355.22 92.88C353.406 92.64 352.06 92.4133 351.18 92.2L351.54 89.28L356.5 84.8C355.78 84.8 355.046 84.48 354.3 83.84C353.58 83.2 352.98 82.28 352.5 81.08C352.02 79.88 351.78 78.4667 351.78 76.84C351.78 75.9867 351.846 75.0667 351.98 74.08C352.14 73.0667 352.353 72.2667 352.62 71.68C353.046 71.0933 354.006 70.2933 355.5 69.28C357.02 68.24 358.02 67.72 358.5 67.72C358.766 67.72 359.7 67.84 361.3 68.08C362.926 68.32 364.193 68.5067 365.1 68.64V86.84C365.1 87.6667 364.74 88.5733 364.02 89.56C363.326 90.5733 362.513 91.44 361.58 92.16C360.673 92.88 359.94 93.24 359.38 93.24ZM358.54 82.96C358.806 82.96 359.78 82.3733 361.46 81.2V70.8C360.9 70.6133 360.22 70.44 359.42 70.28C358.62 70.12 358.006 70.04 357.58 70.04C357.366 70.04 357.233 70.0533 357.18 70.08C356.113 70.4533 355.58 72.72 355.58 76.88C355.58 78.32 355.753 79.5067 356.1 80.44C356.446 81.3467 356.846 82 357.3 82.4C357.78 82.7733 358.193 82.96 358.54 82.96ZM360.58 91.4C360.873 91.4 361.113 90.76 361.3 89.48C361.486 88.2 361.58 86.84 361.58 85.4V83.4L361.38 83.32C359.913 84.6533 358.126 86.32 356.02 88.32C355.406 88.9333 354.86 89.4533 354.38 89.88V90.12C354.806 90.3067 355.806 90.56 357.38 90.88C358.98 91.2267 360.046 91.4 360.58 91.4ZM371.649 86.36C371.516 86.36 371.209 86.1467 370.729 85.72C370.276 85.2933 370.049 85.0133 370.049 84.88V70.28L368.649 69.84V68.36C370.676 67.96 371.809 67.76 372.049 67.76C372.209 67.76 372.516 67.96 372.969 68.36C373.422 68.76 373.649 69.0533 373.649 69.24V83.84L375.049 84.24V85.72C373.022 86.1467 371.889 86.36 371.649 86.36ZM369.809 60.36L372.889 60.16L373.489 61.04L373.289 64.52H370.089L369.809 60.36ZM380.511 86.36C380.377 86.36 380.111 86.1733 379.711 85.8C379.337 85.4267 379.151 85.1733 379.151 85.04V70.44L377.751 69.84V68.36C379.937 67.96 381.151 67.76 381.391 67.76C381.524 67.76 381.764 67.9467 382.111 68.32C382.484 68.6667 382.671 68.9067 382.671 69.04V70.56C383.471 69.9733 384.324 69.36 385.231 68.72C386.164 68.08 386.684 67.76 386.791 67.76C388.711 67.76 390.151 68.2667 391.111 69.28C392.071 70.2667 392.551 72 392.551 74.48V83.64L393.951 84.24V85.72C391.737 86.1467 390.524 86.36 390.311 86.36C390.177 86.36 389.911 86.1733 389.511 85.8C389.111 85.4267 388.911 85.1733 388.911 85.04V74.48C388.911 72.8267 388.671 71.7867 388.191 71.36C387.711 70.9333 387.177 70.72 386.591 70.72C386.297 70.72 385.631 70.96 384.591 71.44C383.577 71.8933 382.977 72.16 382.791 72.24V83.64L384.151 84.24V85.72C381.964 86.1467 380.751 86.36 380.511 86.36ZM403.496 86.36C402.349 86.36 401.269 86.0533 400.256 85.44C399.243 84.8267 398.416 83.88 397.776 82.6C397.163 81.32 396.856 79.7467 396.856 77.88C396.856 76.5467 396.936 75.32 397.096 74.2C397.283 73.0533 397.523 72.2133 397.816 71.68C398.083 71.28 398.629 70.7467 399.456 70.08C400.309 69.4133 401.163 68.8267 402.016 68.32C402.896 67.8133 403.496 67.56 403.816 67.56C405.256 67.56 406.416 67.7867 407.296 68.24C408.203 68.6933 408.896 69.56 409.376 70.84C409.883 72.12 410.136 73.96 410.136 76.36L400.696 77.16C400.696 78.76 400.909 80.04 401.336 81C401.763 81.9333 402.256 82.5867 402.816 82.96C403.403 83.3333 403.936 83.52 404.416 83.52L406.296 83.44L409.576 83.32V84.96C408.589 85.28 407.416 85.6 406.056 85.92C404.723 86.2133 403.869 86.36 403.496 86.36ZM406.256 74.8C406.256 73.2 406.043 72 405.616 71.2C405.189 70.3733 404.483 69.96 403.496 69.96C402.909 69.96 402.403 70.0533 401.976 70.24C401.629 70.4 401.336 71.0133 401.096 72.08C400.883 73.1467 400.776 74.2933 400.776 75.52L406.256 74.8ZM419.707 86.36C418.56 86.36 417.48 86.0533 416.467 85.44C415.454 84.8267 414.627 83.88 413.987 82.6C413.374 81.32 413.067 79.7467 413.067 77.88C413.067 76.5467 413.147 75.32 413.307 74.2C413.494 73.0533 413.734 72.2133 414.027 71.68C414.294 71.28 414.84 70.7467 415.667 70.08C416.52 69.4133 417.374 68.8267 418.227 68.32C419.107 67.8133 419.707 67.56 420.027 67.56C421.467 67.56 422.627 67.7867 423.507 68.24C424.414 68.6933 425.107 69.56 425.587 70.84C426.094 72.12 426.347 73.96 426.347 76.36L416.907 77.16C416.907 78.76 417.12 80.04 417.547 81C417.974 81.9333 418.467 82.5867 419.027 82.96C419.614 83.3333 420.147 83.52 420.627 83.52L422.507 83.44L425.787 83.32V84.96C424.8 85.28 423.627 85.6 422.267 85.92C420.934 86.2133 420.08 86.36 419.707 86.36ZM422.467 74.8C422.467 73.2 422.254 72 421.827 71.2C421.4 70.3733 420.694 69.96 419.707 69.96C419.12 69.96 418.614 70.0533 418.187 70.24C417.84 70.4 417.547 71.0133 417.307 72.08C417.094 73.1467 416.987 74.2933 416.987 75.52L422.467 74.8ZM431.878 86.36C431.744 86.36 431.478 86.1733 431.078 85.8C430.704 85.4267 430.518 85.1733 430.518 85.04V70.32L429.118 69.84V68.36C431.144 67.96 432.278 67.76 432.518 67.76C432.651 67.76 432.944 67.9733 433.398 68.4C433.878 68.8267 434.118 69.0933 434.118 69.2L434.038 70.6C435.958 68.5733 436.998 67.56 437.158 67.56C437.584 67.56 438.478 67.7733 439.838 68.2C439.918 68.3867 439.971 68.6 439.998 68.84C440.051 69.08 440.078 69.28 440.078 69.44C440.078 69.6 439.918 69.9733 439.598 70.56C439.304 71.1467 439.104 71.4667 438.998 71.52C438.118 71.1733 437.411 71 436.878 71C436.531 71 435.624 71.4267 434.158 72.28V83.48L436.198 84.08V85.72C433.558 86.1467 432.118 86.36 431.878 86.36ZM443.341 86.4C443.181 86.4 442.927 86.24 442.581 85.92C442.234 85.5733 442.061 85.32 442.061 85.16L441.981 81.84C442.487 81.7067 443.021 81.6 443.581 81.52C444.167 81.4133 444.581 81.36 444.821 81.36C444.954 81.36 445.194 81.5333 445.541 81.88C445.914 82.2267 446.101 82.4667 446.101 82.6L445.861 85.92C445.327 86.0533 444.834 86.16 444.381 86.24C443.927 86.32 443.581 86.3733 443.341 86.4Z" fill="#4C845F"/>
</svg>
