<svg width="55" height="14" viewBox="0 0 55 14" fill="none" xmlns="http://www.w3.org/2000/svg">
<path d="M4.10648 13.18C3.47982 13.18 2.89315 12.9733 2.34648 12.56C1.79982 12.1467 1.35315 11.5133 1.00648 10.66C0.673151 9.79333 0.506484 8.72667 0.506484 7.46C0.506484 6.55333 0.559818 5.72 0.666484 4.96C0.773151 4.18667 0.919818 3.57333 1.10648 3.12C1.30648 2.8 1.63315 2.46 2.08648 2.1C2.53982 1.72667 2.99315 1.41333 3.44648 1.16C3.89982 0.906667 4.22648 0.78 4.42648 0.78C4.81315 0.793333 5.35315 0.819999 6.04648 0.859999C6.75315 0.886666 7.44648 0.926666 8.12648 0.98L7.88648 4.44H6.80648L6.56648 2.4C6.24648 2.33333 5.82648 2.28 5.30648 2.24C4.78648 2.2 4.39315 2.18 4.12648 2.18C3.85982 2.18 3.64648 2.22 3.48648 2.3C3.16648 2.47333 2.91982 2.95333 2.74648 3.74C2.57315 4.52667 2.48648 5.53333 2.48648 6.76C2.48648 8.62667 2.71315 9.92 3.16648 10.64C3.63315 11.3467 4.25982 11.7 5.04648 11.7H6.48648L6.82648 9.16L7.84648 9.18L7.86648 12.72C7.54648 12.8133 6.89315 12.9133 5.90648 13.02C4.91982 13.1267 4.31982 13.18 4.10648 13.18ZM13.6876 13.18C12.3009 13.18 11.2609 12.8267 10.5676 12.12C9.87424 11.4133 9.52758 10.3133 9.52758 8.82C9.52758 8.20667 9.56758 7.62667 9.64758 7.08C9.74091 6.52 9.86091 6.10667 10.0076 5.84C10.1409 5.64 10.4142 5.37333 10.8276 5.04C11.2542 4.70667 11.6809 4.41333 12.1076 4.16C12.5342 3.90667 12.8276 3.78 12.9876 3.78C14.3342 3.78 15.3476 4.14667 16.0276 4.88C16.7209 5.6 17.0676 6.64667 17.0676 8.02C17.0676 8.66 17.0209 9.26 16.9276 9.82C16.8476 10.38 16.7476 10.84 16.6276 11.2C16.4142 11.4933 15.9276 11.9 15.1676 12.42C14.4209 12.9267 13.9276 13.18 13.6876 13.18ZM13.7876 12.04C13.8809 12.0133 14.2209 11.8467 14.8076 11.54C15.0342 10.54 15.1476 9.45333 15.1476 8.28C15.1476 7.24 14.9542 6.42667 14.5676 5.84C14.1942 5.25333 13.6342 4.96 12.8876 4.96C12.5542 4.96 12.2876 5.01333 12.0876 5.12C11.9009 5.22667 11.7476 5.58 11.6276 6.18C11.5076 6.78 11.4476 7.56667 11.4476 8.54C11.4476 9.84667 11.6676 10.76 12.1076 11.28C12.5609 11.7867 13.1209 12.04 13.7876 12.04ZM19.8901 13.18C19.8234 13.18 19.6901 13.0867 19.4901 12.9C19.3034 12.7133 19.2101 12.5867 19.2101 12.52V5.22L18.5101 4.92V4.18C19.6034 3.98 20.2101 3.88 20.3301 3.88C20.3967 3.88 20.5167 3.97333 20.6901 4.16C20.8767 4.33333 20.9701 4.45333 20.9701 4.52V5.28C21.3701 4.98667 21.7967 4.68 22.2501 4.36C22.7167 4.04 22.9767 3.88 23.0301 3.88C23.9901 3.88 24.7101 4.13333 25.1901 4.64C25.6701 5.13333 25.9101 6 25.9101 7.24V11.82L26.6101 12.12V12.86C25.5034 13.0733 24.8967 13.18 24.7901 13.18C24.7234 13.18 24.5901 13.0867 24.3901 12.9C24.1901 12.7133 24.0901 12.5867 24.0901 12.52V7.24C24.0901 6.41333 23.9701 5.89333 23.7301 5.68C23.4901 5.46667 23.2234 5.36 22.9301 5.36C22.7834 5.36 22.4501 5.48 21.9301 5.72C21.4234 5.94667 21.1234 6.08 21.0301 6.12V11.82L21.7101 12.12V12.86C20.6167 13.0733 20.0101 13.18 19.8901 13.18ZM30.1627 13.18C30.0161 13.18 29.8227 13.0867 29.5827 12.9C29.3427 12.7 29.1294 12.4733 28.9427 12.22C28.7694 11.9667 28.6827 11.7667 28.6827 11.62V5.1H27.4027V4.5L28.6827 3.86L29.8027 2.5C29.9227 2.5 30.1561 2.59333 30.5027 2.78V4.04H32.4427V5.2H30.5027V10.74C30.5027 11.1533 30.5361 11.4333 30.6027 11.58C30.6694 11.7267 30.7961 11.8 30.9827 11.8L32.6227 11.84V12.8C32.2361 12.88 31.7627 12.96 31.2027 13.04C30.6427 13.1333 30.2961 13.18 30.1627 13.18ZM36.7882 13.18C36.2415 13.18 35.7282 13.0267 35.2482 12.72C34.7815 12.4 34.4015 11.9133 34.1082 11.26C33.8149 10.6067 33.6682 9.79333 33.6682 8.82C33.6682 8.19333 33.7082 7.61333 33.7882 7.08C33.8815 6.53333 34.0015 6.12 34.1482 5.84C34.3615 5.53333 34.8349 5.12667 35.5682 4.62C36.3149 4.11333 36.8082 3.86 37.0482 3.86C37.3149 3.86 38.4815 4.01333 40.5482 4.32V11.84L41.2282 12.12V12.86C40.1749 13.0733 39.5882 13.18 39.4682 13.18C39.4149 13.18 39.2882 13.0867 39.0882 12.9C38.8882 12.7133 38.7882 12.5867 38.7882 12.52V11.74C38.7082 11.8067 38.3749 12.0667 37.7882 12.52C37.2015 12.96 36.8682 13.18 36.7882 13.18ZM36.9082 11.7C37.0549 11.7 37.6615 11.4333 38.7282 10.9V5.4C38.3949 5.29333 37.9615 5.2 37.4282 5.12C36.8949 5.02667 36.5349 4.99333 36.3482 5.02C36.0949 5.06 35.9015 5.34667 35.7682 5.88C35.6482 6.41333 35.5882 7.34667 35.5882 8.68C35.5882 9.36 35.6615 9.92667 35.8082 10.38C35.9682 10.8333 36.1482 11.1667 36.3482 11.38C36.5615 11.5933 36.7482 11.7 36.9082 11.7ZM45.493 13.18C45.013 13.18 44.553 13.0267 44.113 12.72C43.673 12.4 43.313 11.9267 43.033 11.3C42.7664 10.66 42.633 9.87333 42.633 8.94C42.633 8.28667 42.673 7.67333 42.753 7.1C42.8464 6.52667 42.9664 6.10667 43.113 5.84C43.2464 5.64 43.513 5.38 43.913 5.06C44.3264 4.74 44.7397 4.46 45.153 4.22C45.5664 3.98 45.853 3.86 46.013 3.86C46.653 3.86 47.3864 3.98667 48.213 4.24L48.153 6.8H46.933L46.653 5.42C46.493 5.34 46.293 5.26667 46.053 5.2C45.813 5.13333 45.5997 5.1 45.413 5.1C45.293 5.1 45.1997 5.12667 45.133 5.18C44.9464 5.32667 44.7997 5.72 44.693 6.36C44.5997 7 44.553 7.77333 44.553 8.68C44.553 9.37333 44.6264 9.94667 44.773 10.4C44.933 10.8533 45.1197 11.1867 45.333 11.4C45.5464 11.6133 45.753 11.72 45.953 11.72H48.213V12.56C47.7464 12.7067 47.213 12.8467 46.613 12.98C46.0264 13.1133 45.653 13.18 45.493 13.18ZM51.608 13.18C51.4614 13.18 51.268 13.0867 51.028 12.9C50.788 12.7 50.5747 12.4733 50.388 12.22C50.2147 11.9667 50.128 11.7667 50.128 11.62V5.1H48.848V4.5L50.128 3.86L51.248 2.5C51.368 2.5 51.6014 2.59333 51.948 2.78V4.04H53.888V5.2H51.948V10.74C51.948 11.1533 51.9814 11.4333 52.048 11.58C52.1147 11.7267 52.2414 11.8 52.428 11.8L54.068 11.84V12.8C53.6814 12.88 53.208 12.96 52.648 13.04C52.088 13.1333 51.7414 13.18 51.608 13.18Z" fill="#4C845F"/>
</svg>
