<svg width="56" height="14" viewBox="0 0 56 14" fill="none" xmlns="http://www.w3.org/2000/svg">
<path d="M0.285313 12.24L1.52531 11.84V2.1L0.285313 1.7V0.939999H5.32531C6.43198 0.939999 7.24531 1.18667 7.76531 1.68C8.28531 2.16 8.54531 3.00667 8.54531 4.22C8.54531 5.19333 8.32531 5.96667 7.88531 6.54C7.45865 7.1 6.89865 7.46 6.20531 7.62V7.74C7.25865 9.5 8.10531 10.8733 8.74531 11.86L9.82531 12.16V13H7.18531C6.99865 12.6267 6.65198 11.96 6.14531 11C5.31865 9.48 4.76531 8.41333 4.48531 7.8H3.38531V11.74L4.72531 12.08V13H0.285313V12.24ZM5.00531 6.66C5.56531 6.66 5.96531 6.52667 6.20531 6.26C6.45865 5.98 6.58531 5.43333 6.58531 4.62C6.58531 3.7 6.49198 3.02667 6.30531 2.6C6.11865 2.17333 5.83198 1.96 5.44531 1.96L3.38531 2.16V6.66H5.00531ZM14.0722 13.18C13.4989 13.18 12.9589 13.0267 12.4522 12.72C11.9455 12.4133 11.5322 11.94 11.2122 11.3C10.9055 10.66 10.7522 9.87333 10.7522 8.94C10.7522 8.27333 10.7922 7.66 10.8722 7.1C10.9655 6.52667 11.0855 6.10667 11.2322 5.84C11.3655 5.64 11.6389 5.37333 12.0522 5.04C12.4789 4.70667 12.9055 4.41333 13.3322 4.16C13.7722 3.90667 14.0722 3.78 14.2322 3.78C14.9522 3.78 15.5322 3.89333 15.9722 4.12C16.4255 4.34667 16.7722 4.78 17.0122 5.42C17.2655 6.06 17.3922 6.98 17.3922 8.18L12.6722 8.58C12.6722 9.38 12.7789 10.02 12.9922 10.5C13.2055 10.9667 13.4522 11.2933 13.7322 11.48C14.0255 11.6667 14.2922 11.76 14.5322 11.76L15.4722 11.72L17.1122 11.66V12.48C16.6189 12.64 16.0322 12.8 15.3522 12.96C14.6855 13.1067 14.2589 13.18 14.0722 13.18ZM15.4522 7.4C15.4522 6.6 15.3455 6 15.1322 5.6C14.9189 5.18667 14.5655 4.98 14.0722 4.98C13.7789 4.98 13.5255 5.02667 13.3122 5.12C13.1389 5.2 12.9922 5.50667 12.8722 6.04C12.7655 6.57333 12.7122 7.14667 12.7122 7.76L15.4522 7.4ZM22.4977 13.18C22.2177 13.18 21.6577 13.1467 20.8177 13.08C19.9777 13.0267 19.3377 12.9733 18.8977 12.92L18.9377 10.04L19.9377 10.02L20.3577 11.54C20.6643 11.6467 21.0243 11.7467 21.4377 11.84C21.8643 11.92 22.1777 11.96 22.3777 11.96C22.4843 11.96 22.611 11.8133 22.7577 11.52C22.9177 11.2267 22.9977 10.9667 22.9977 10.74C22.9977 10.5 22.9377 10.3 22.8177 10.14C22.711 9.96667 22.5377 9.80667 22.2977 9.66C22.0577 9.5 21.651 9.26667 21.0777 8.96C20.2643 8.52 19.7043 8.13333 19.3977 7.8C19.091 7.46667 18.9377 7.06667 18.9377 6.6C18.9377 6.14667 18.971 5.82 19.0377 5.62C19.251 5.28667 19.6043 4.91333 20.0977 4.5C20.6043 4.08667 20.9643 3.88 21.1777 3.88C21.6177 3.88 22.1843 3.9 22.8777 3.94C23.5843 3.96667 24.1243 4 24.4977 4.04L24.4377 6.48H23.3177L23.1777 5.42C23.071 5.38 22.7243 5.32 22.1377 5.24C21.551 5.14667 21.1843 5.1 21.0377 5.1C20.7443 5.1 20.5977 5.38 20.5977 5.94C20.5977 6.19333 20.691 6.41333 20.8777 6.6C21.0777 6.77333 21.2977 6.93333 21.5377 7.08C21.791 7.22667 21.9577 7.32667 22.0377 7.38L22.5777 7.7C23.2977 8.1 23.8643 8.48 24.2777 8.84C24.7043 9.18667 24.9177 9.58667 24.9177 10.04C24.9177 10.3467 24.871 10.6867 24.7777 11.06C24.5643 11.4467 24.1977 11.9 23.6777 12.42C23.171 12.9267 22.7777 13.18 22.4977 13.18ZM29.5633 13.18C28.6033 13.18 27.8833 12.9333 27.4033 12.44C26.9233 11.9333 26.6833 11.0533 26.6833 9.8V5.22L26.0033 4.92V4.18C27.0966 3.98 27.6966 3.88 27.8033 3.88C27.8699 3.88 28.0033 3.97333 28.2033 4.16C28.4033 4.34667 28.5033 4.46667 28.5033 4.52V9.8C28.5033 10.6267 28.6233 11.1533 28.8633 11.38C29.1033 11.5933 29.3699 11.7 29.6633 11.7C29.7966 11.7 30.4033 11.4467 31.4833 10.94V5.22L30.8033 4.92V4.18C31.8966 3.98 32.5033 3.88 32.6233 3.88C32.6899 3.88 32.8166 3.97333 33.0033 4.16C33.2033 4.34667 33.3033 4.46667 33.3033 4.52V11.82L33.9833 12.12V12.86C32.9033 13.0733 32.3033 13.18 32.1833 13.18C32.1166 13.18 31.9899 13.0867 31.8033 12.9C31.6299 12.7133 31.5433 12.5867 31.5433 12.52V11.76C31.1699 12.0533 30.7566 12.3667 30.3033 12.7C29.8499 13.02 29.6033 13.18 29.5633 13.18ZM36.7202 13.18C36.6535 13.18 36.5202 13.0867 36.3202 12.9C36.1335 12.7133 36.0402 12.5867 36.0402 12.52V5.22L35.3402 4.92V4.18C36.4335 3.98 37.0402 3.88 37.1602 3.88C37.2268 3.88 37.3468 3.97333 37.5202 4.16C37.7068 4.33333 37.8002 4.45333 37.8002 4.52V5.28C38.1468 4.98667 38.5202 4.68 38.9202 4.36C39.3202 4.04 39.5402 3.88 39.5802 3.88C40.2468 3.88 40.8002 3.98667 41.2402 4.2C41.6935 4.41333 42.0202 4.77333 42.2202 5.28C42.5402 4.98667 42.8868 4.68 43.2602 4.36C43.6335 4.04 43.8402 3.88 43.8802 3.88C44.9335 3.88 45.7268 4.13333 46.2602 4.64C46.7935 5.13333 47.0602 6 47.0602 7.24V11.82L47.7402 12.12V12.86C46.6468 13.0733 46.0468 13.18 45.9402 13.18C45.8735 13.18 45.7402 13.0867 45.5402 12.9C45.3402 12.7133 45.2402 12.5867 45.2402 12.52V7.24C45.2402 6.41333 45.1068 5.89333 44.8402 5.68C44.5868 5.46667 44.3002 5.36 43.9802 5.36C43.8602 5.36 43.3535 5.61333 42.4602 6.12V11.82L43.1402 12.12V12.86C42.0468 13.0733 41.4468 13.18 41.3402 13.18C41.2735 13.18 41.1402 13.0867 40.9402 12.9C40.7402 12.7133 40.6402 12.5867 40.6402 12.52V7.24C40.6402 6.41333 40.5202 5.89333 40.2802 5.68C40.0402 5.46667 39.7735 5.36 39.4802 5.36C39.3468 5.36 38.8068 5.61333 37.8602 6.12V11.82L38.5402 12.12V12.86C37.4468 13.0733 36.8402 13.18 36.7202 13.18ZM52.5292 13.18C51.9559 13.18 51.4159 13.0267 50.9092 12.72C50.4026 12.4133 49.9892 11.94 49.6692 11.3C49.3626 10.66 49.2092 9.87333 49.2092 8.94C49.2092 8.27333 49.2492 7.66 49.3292 7.1C49.4226 6.52667 49.5426 6.10667 49.6892 5.84C49.8226 5.64 50.0959 5.37333 50.5092 5.04C50.9359 4.70667 51.3626 4.41333 51.7892 4.16C52.2292 3.90667 52.5292 3.78 52.6892 3.78C53.4092 3.78 53.9892 3.89333 54.4292 4.12C54.8826 4.34667 55.2292 4.78 55.4692 5.42C55.7226 6.06 55.8492 6.98 55.8492 8.18L51.1292 8.58C51.1292 9.38 51.2359 10.02 51.4492 10.5C51.6626 10.9667 51.9092 11.2933 52.1892 11.48C52.4826 11.6667 52.7492 11.76 52.9892 11.76L53.9292 11.72L55.5692 11.66V12.48C55.0759 12.64 54.4892 12.8 53.8092 12.96C53.1426 13.1067 52.7159 13.18 52.5292 13.18ZM53.9092 7.4C53.9092 6.6 53.8026 6 53.5892 5.6C53.3759 5.18667 53.0226 4.98 52.5292 4.98C52.2359 4.98 51.9826 5.02667 51.7692 5.12C51.5959 5.2 51.4492 5.50667 51.3292 6.04C51.2226 6.57333 51.1692 7.14667 51.1692 7.76L53.9092 7.4Z" fill="#4C845F"/>
</svg>
