<svg width="45" height="14" viewBox="0 0 45 14" fill="none" xmlns="http://www.w3.org/2000/svg">
<path d="M0.912969 12.24L2.15297 11.84L5.35297 1.08C5.77964 1.01333 6.2063 0.953333 6.63297 0.9C7.07297 0.846666 7.37964 0.813333 7.55297 0.8C7.6063 0.8 7.71297 0.853333 7.87297 0.959999L11.133 11.84L12.373 12.24V13H7.79297V12.14L9.15297 11.74L8.37297 8.96H4.65297L3.91297 11.74L5.33297 12.14V13H0.912969V12.24ZM8.07297 7.9L6.63297 2.54H6.39297L4.95297 7.9H8.07297ZM17.0969 13.18C16.9369 13.18 16.3969 13.1267 15.4769 13.02C14.5702 12.9133 13.9435 12.8267 13.5969 12.76V1.42L12.8969 1.14V0.399999C13.1902 0.333332 13.5169 0.266666 13.8769 0.199999C14.2502 0.133332 14.5302 0.0933326 14.7169 0.0799994C14.7835 0.0799994 14.9169 0.173333 15.1169 0.359999C15.3169 0.546666 15.4169 0.673333 15.4169 0.739999L15.3169 5.22L15.4169 5.24C15.5635 5.13333 15.7035 5.02667 15.8369 4.92C15.9835 4.81333 16.1169 4.72 16.2369 4.64C16.9169 4.12 17.2902 3.86 17.3569 3.86C17.8902 3.86 18.3969 4.01333 18.8769 4.32C19.3569 4.62667 19.7435 5.1 20.0369 5.74C20.3302 6.38 20.4769 7.16667 20.4769 8.1C20.4769 8.78 20.4302 9.39333 20.3369 9.94C20.2569 10.4867 20.1435 10.9067 19.9969 11.2C19.7835 11.5067 19.3035 11.9133 18.5569 12.42C17.8235 12.9267 17.3369 13.18 17.0969 13.18ZM17.7969 12.02C18.0502 11.98 18.2369 11.6933 18.3569 11.16C18.4902 10.6267 18.5569 9.69333 18.5569 8.36C18.5569 7.68 18.4769 7.11333 18.3169 6.66C18.1702 6.20667 17.9902 5.87333 17.7769 5.66C17.5769 5.44667 17.3969 5.34 17.2369 5.34C17.1702 5.34 16.9302 5.43333 16.5169 5.62C16.1169 5.79333 15.7502 5.96667 15.4169 6.14V11.64C15.7502 11.7467 16.1835 11.8467 16.7169 11.94C17.2502 12.02 17.6102 12.0467 17.7969 12.02ZM26.1622 13.18C24.7755 13.18 23.7355 12.8267 23.0422 12.12C22.3489 11.4133 22.0022 10.3133 22.0022 8.82C22.0022 8.20667 22.0422 7.62667 22.1222 7.08C22.2155 6.52 22.3355 6.10667 22.4822 5.84C22.6155 5.64 22.8889 5.37333 23.3022 5.04C23.7289 4.70667 24.1555 4.41333 24.5822 4.16C25.0089 3.90667 25.3022 3.78 25.4622 3.78C26.8089 3.78 27.8222 4.14667 28.5022 4.88C29.1955 5.6 29.5422 6.64667 29.5422 8.02C29.5422 8.66 29.4955 9.26 29.4022 9.82C29.3222 10.38 29.2222 10.84 29.1022 11.2C28.8889 11.4933 28.4022 11.9 27.6422 12.42C26.8955 12.9267 26.4022 13.18 26.1622 13.18ZM26.2622 12.04C26.3555 12.0133 26.6955 11.8467 27.2822 11.54C27.5089 10.54 27.6222 9.45333 27.6222 8.28C27.6222 7.24 27.4289 6.42667 27.0422 5.84C26.6689 5.25333 26.1089 4.96 25.3622 4.96C25.0289 4.96 24.7622 5.01333 24.5622 5.12C24.3755 5.22667 24.2222 5.58 24.1022 6.18C23.9822 6.78 23.9222 7.56667 23.9222 8.54C23.9222 9.84667 24.1422 10.76 24.5822 11.28C25.0355 11.7867 25.5955 12.04 26.2622 12.04ZM34.5047 13.18C33.5447 13.18 32.8247 12.9333 32.3447 12.44C31.8647 11.9333 31.6247 11.0533 31.6247 9.8V5.22L30.9447 4.92V4.18C32.038 3.98 32.638 3.88 32.7447 3.88C32.8114 3.88 32.9447 3.97333 33.1447 4.16C33.3447 4.34667 33.4447 4.46667 33.4447 4.52V9.8C33.4447 10.6267 33.5647 11.1533 33.8047 11.38C34.0447 11.5933 34.3114 11.7 34.6047 11.7C34.738 11.7 35.3447 11.4467 36.4247 10.94V5.22L35.7447 4.92V4.18C36.838 3.98 37.4447 3.88 37.5647 3.88C37.6314 3.88 37.758 3.97333 37.9447 4.16C38.1447 4.34667 38.2447 4.46667 38.2447 4.52V11.82L38.9247 12.12V12.86C37.8447 13.0733 37.2447 13.18 37.1247 13.18C37.058 13.18 36.9314 13.0867 36.7447 12.9C36.5714 12.7133 36.4847 12.5867 36.4847 12.52V11.76C36.1114 12.0533 35.698 12.3667 35.2447 12.7C34.7914 13.02 34.5447 13.18 34.5047 13.18ZM42.4616 13.18C42.3149 13.18 42.1216 13.0867 41.8816 12.9C41.6416 12.7 41.4282 12.4733 41.2416 12.22C41.0682 11.9667 40.9816 11.7667 40.9816 11.62V5.1H39.7016V4.5L40.9816 3.86L42.1016 2.5C42.2216 2.5 42.4549 2.59333 42.8016 2.78V4.04H44.7416V5.2H42.8016V10.74C42.8016 11.1533 42.8349 11.4333 42.9016 11.58C42.9682 11.7267 43.0949 11.8 43.2816 11.8L44.9216 11.84V12.8C44.5349 12.88 44.0616 12.96 43.5016 13.04C42.9416 13.1333 42.5949 13.18 42.4616 13.18Z" fill="#4C845F"/>
</svg>
