<svg width="83" height="49" viewBox="0 0 83 49" fill="none" xmlns="http://www.w3.org/2000/svg">
<path d="M1.04287 32.9714L2.9894 32.797L13.7125 45.7794C14.3407 45.6214 14.9649 45.4542 15.5853 45.2778C16.2241 45.0935 16.6671 44.9598 16.9142 44.8767C16.9879 44.8454 17.1039 44.7093 17.2623 44.4682L15.3887 27.5342L16.8665 26.2552L16.4212 25.2058L10.0973 27.8899L10.6012 29.0774L12.7134 28.8327L13.2653 33.1285L8.12881 35.3087L5.47816 31.9037L7.20449 30.5191L6.70059 29.3316L0.597568 31.922L1.04287 32.9714ZM13.4721 34.768L14.6244 43.0132L14.293 43.1539L9.16413 36.5965L13.4721 34.768ZM17.9213 25.8075L19.8678 25.6331L25.5748 39.0824L24.097 40.3614L24.5423 41.4109L31.3633 38.5157C32.7993 37.9062 33.7304 37.1308 34.1566 36.1895C34.5827 35.2482 34.4599 33.9858 33.788 32.4025C33.3505 31.3715 32.787 30.709 32.0974 30.4151C31.4078 30.1211 30.6429 29.9569 29.8026 29.9225L29.7323 29.7568C30.7404 29.1116 31.4221 28.3117 31.7774 27.357C32.1589 26.4129 32.131 25.4253 31.6935 24.3943C30.9591 22.6637 29.9754 21.6255 28.7424 21.2797C27.5278 20.9262 26.1565 21.0737 24.6284 21.7223L17.476 24.7581L17.9213 25.8075ZM27.529 31.246C28.3022 30.9178 28.9327 30.8675 29.4203 31.0951C29.9342 31.3332 30.4294 32.0138 30.9059 33.1369C31.4372 34.3889 31.724 35.3209 31.7665 35.9329C31.8351 36.5556 31.6368 36.9331 31.1716 37.0654L28.1313 37.9647L25.6235 32.0548L27.529 31.246ZM25.9524 22.6921C26.4813 22.4024 26.9904 22.5014 27.4797 22.9889C27.9769 23.4949 28.5262 24.4567 29.1278 25.8744C29.4403 26.6108 29.5748 27.1838 29.5313 27.5934C29.4956 28.0213 29.3408 28.3477 29.0669 28.5726C28.793 28.7975 28.3707 29.0311 27.8 29.2733L24.9556 30.4806L22.4712 24.6259L25.9524 22.6921ZM38.8483 15.3935C36.3813 16.4406 34.8137 17.8664 34.1455 19.6709C33.4851 21.4938 33.7447 23.7953 34.9244 26.5753C35.4478 27.8089 35.9941 28.8915 36.5632 29.8232C37.1402 30.7733 37.6943 31.5158 38.2254 32.0508C38.6891 32.3755 39.3302 32.6574 40.1486 32.8966C40.9933 33.1465 41.8029 33.3134 42.5773 33.3976C43.3701 33.4739 43.9045 33.4534 44.1807 33.3362C46.6477 32.2891 48.2114 30.8541 48.8718 29.0312C49.54 27.2267 49.2803 24.9252 48.0929 22.1267C47.1866 19.9911 46.1362 18.1556 44.9416 16.6203C44.4751 16.3403 43.8012 16.0832 42.9196 15.849C42.0565 15.6069 41.2247 15.4386 40.4241 15.3438C39.6497 15.2597 39.1244 15.2763 38.8483 15.3935ZM39.3305 17.1442C39.533 17.0583 40.0267 17.0442 40.8117 17.1022C41.6151 17.1522 42.081 17.2261 42.2093 17.3237C43.2153 18.7218 44.1949 20.5439 45.148 22.79C46.1245 25.0914 46.5696 26.934 46.4833 28.3177C46.3969 29.7014 45.6266 30.7019 44.1721 31.3192C43.2516 31.71 42.5328 31.8847 42.0156 31.8435C41.4538 31.7995 40.8188 31.276 40.1107 30.2729C39.4211 29.262 38.6817 27.8268 37.8927 25.9673C37.1271 24.163 36.6622 22.7091 36.4981 21.6055C36.3524 20.494 36.5026 19.5938 36.9489 18.9046C37.3952 18.2155 38.189 17.6287 39.3305 17.1442ZM52.277 9.72633C49.5339 10.8906 48.8576 13.1114 50.2482 16.3885L54.6427 26.7448L53.1649 28.0238L53.6102 29.0732L59.7132 26.4829L59.2093 25.2953L57.1523 25.5166L53.0625 15.8784C52.5078 14.5712 52.284 13.6342 52.3911 13.0673C52.5244 12.511 52.8396 12.1274 53.3367 11.9164C53.6496 11.7836 54.2633 11.6426 55.1777 11.4935C56.1184 11.3549 57.0129 11.236 57.8615 11.1365L62.9239 23.0669L61.3357 24.3928L61.8396 25.5803L67.9426 22.9899L67.4973 21.9405L65.5508 22.1149L59.8438 8.66562L61.3216 7.38658L60.8763 6.33715L57.2311 7.88434L57.3425 9.75986C57.1718 9.76714 56.9749 9.76383 56.7517 9.74991C56.5285 9.736 56.287 9.7299 56.027 9.73161C53.7295 9.64214 52.4795 9.64038 52.277 9.72633ZM66.0902 5.36257L68.0368 5.18819L73.7437 18.6375L70.6633 19.7494L68.9341 16.4421L67.4704 17.0633L69.3145 22.4076L82.1005 16.9807L79.5384 11.9412L78.0472 12.5741L79.2241 16.1158L76.312 17.5474L70.6636 4.2362L72.2519 2.91027L71.748 1.72276L65.6449 4.31314L66.0902 5.36257Z" fill="#686565"/>
</svg>
