<svg width="152" height="76" viewBox="0 0 152 76" fill="none" xmlns="http://www.w3.org/2000/svg">
<path d="M7.09221 74.5426L8.59242 73.29L3.12452 59.7417L1.17521 59.8816L0.748557 58.8245L11.8204 54.3548L13.4236 59.3692L11.9214 59.9757L10.2007 56.5939L5.7678 58.8364L7.99089 64.3447L12.1086 62.8442L12.6363 64.1517L8.63087 65.9304L11.101 72.0508L16.1211 70.5418L15.1066 66.7456L16.6088 66.1391L18.7298 71.074L7.51887 75.5998L7.09221 74.5426ZM18.8487 69.7966L20.3489 68.5439L21.8763 59.9039L15.1313 54.8946L13.4324 54.9334L13.0057 53.8763L19.3762 51.3045L19.859 52.5008L18.0806 53.8658L22.9825 57.3544L23.0938 57.3095L23.7556 51.5748L21.6116 51.7933L21.1288 50.597L27.2767 48.1151L27.7034 49.1723L26.2032 50.4249L24.9851 58.2283L32.3665 63.6924L34.3158 63.5525L34.7425 64.6097L28.0938 67.2937L27.611 66.0975L29.2503 64.7886L23.9345 60.7553L23.8232 60.8002L22.7964 67.3941L24.9404 67.1756L25.4232 68.3718L19.2753 70.8537L18.8487 69.7966ZM34.9924 63.2794L36.4926 62.0267L31.0247 48.4785L29.0754 48.6184L28.6487 47.5612L35.9372 44.6189C37.3838 44.0349 38.6407 43.9696 39.708 44.4231C40.7938 44.869 41.681 45.9452 42.3697 47.6514C43.2005 49.7101 43.3098 51.4238 42.6976 52.7925C42.0964 54.1352 41.0262 55.1172 39.4869 55.7386L37.317 56.6146L39.0236 60.8432L41.6128 60.445L42.0955 61.6413L35.4191 64.3365L34.9924 63.2794ZM39.1807 54.0181C39.7556 53.786 40.156 53.5489 40.3818 53.3068C40.6261 53.0572 40.7344 52.6576 40.7067 52.108C40.6715 51.5399 40.4406 50.7272 40.014 49.6701C39.4526 48.2791 38.8831 47.2688 38.3055 46.6392C37.739 45.9837 37.1961 45.7607 36.6768 45.9703L33.6455 47.5175L36.677 55.0289L39.1807 54.0181ZM48.9833 57.6313L50.4835 56.3786L45.0156 42.8304L43.0662 42.9703L42.6396 41.9132L53.7114 37.4435L55.3146 42.4579L53.8124 43.0644L52.0917 39.6826L47.6588 41.9251L49.8819 47.4334L53.9996 45.9329L54.5273 47.2404L50.5219 49.0191L52.992 55.1395L58.0121 53.6305L56.9976 49.8343L58.4998 49.2278L60.6208 54.1626L49.4099 58.6885L48.9833 57.6313ZM62.1863 52.3013L63.6865 51.0486L58.2186 37.5004L56.2693 37.6403L55.8426 36.5831L62.8529 33.7531C64.3922 33.1317 65.662 33.0181 66.6622 33.4123C67.655 33.788 68.4919 34.8197 69.1731 36.5075C69.7195 37.8613 69.8476 39.0606 69.5575 40.1051C69.2784 41.1237 68.7016 41.9389 67.827 42.5508L67.8944 42.7177C70.3475 44.5744 72.2961 46.0092 73.7402 47.0223L75.4109 46.8332L75.8824 48.0016L72.2104 49.484C71.7411 49.0695 70.8847 48.3368 69.641 47.286C67.6379 45.6359 66.2694 44.4629 65.5356 43.7669L64.0056 44.3846L66.2175 49.8651L68.2722 49.5856L68.7887 50.8653L62.6129 53.3585L62.1863 52.3013ZM65.6189 41.8892C66.3979 41.5748 66.8794 41.1647 67.0635 40.659C67.2587 40.1273 67.128 39.2958 66.6714 38.1644C66.1549 36.8847 65.6471 36.0005 65.1479 35.5118C64.6488 35.0232 64.1303 34.8874 63.5924 35.1045L60.8394 36.5394L63.3656 42.7989L65.6189 41.8892ZM76.8841 46.3678L78.3843 45.1151L72.9164 31.5669L70.9393 31.718L70.5126 30.6609L76.6884 28.1678L77.1712 29.364L75.5597 30.6616L80.9153 43.9316L82.9759 43.7468L83.4587 44.9431L77.3107 47.425L76.8841 46.3678ZM85.3595 42.9463L86.8597 41.6937L81.3918 28.1454L79.4424 28.2853L79.0158 27.2282L90.0876 22.7585L91.6908 27.773L90.1886 28.3794L88.4679 24.9976L84.035 27.2401L86.2581 32.7484L90.3758 31.2479L90.9035 32.5554L86.8981 34.3342L89.3682 40.4545L94.3883 38.9455L93.3738 35.1493L94.876 34.5429L96.997 39.4777L85.7861 44.0035L85.3595 42.9463ZM108.776 34.9488C108.702 34.9788 108.524 34.9645 108.242 34.9059L101.658 28.0521C100.92 27.2931 99.5471 25.7877 97.5383 23.5359L97.3436 23.6145L101.967 34.2685L102.371 35.27L104.432 35.0852L104.914 36.2814L98.9891 38.6735L98.5625 37.6163L100.063 36.3636L94.5948 22.8154L92.6455 22.9553L92.2188 21.8982L97.3374 19.8318L104.91 27.6128C105.398 28.1275 106.65 29.5739 108.667 31.9519L108.889 31.8621L103.918 20.3457L103.525 19.372L101.464 19.5569L100.982 18.3606L106.907 15.9685L107.334 17.0257L105.834 18.2784L111.874 33.2454C111.459 33.4993 110.895 33.813 110.183 34.1867C109.498 34.5714 109.029 34.8255 108.776 34.9488ZM120.724 30.1902C119.853 30.5421 118.921 30.5841 117.928 30.3161C116.936 30.0481 115.959 29.418 114.998 28.4257C114.047 27.4073 113.217 26.0172 112.506 24.2553C111.997 22.9941 111.603 21.805 111.325 20.6879C111.039 19.5524 110.899 18.6169 110.904 17.8815C111.002 17.324 111.266 16.6677 111.694 15.9124C112.115 15.1385 112.57 14.4481 113.058 13.8412C113.547 13.2342 113.93 12.8746 114.208 12.7623C114.753 12.5637 115.52 12.2976 116.506 11.9639C117.504 11.6042 118.491 11.2705 119.467 10.9629L121.075 15.9105L119.573 16.5169L118.094 13.8141C117.612 13.901 116.998 14.0627 116.252 14.299C115.506 14.5354 114.948 14.7284 114.577 14.8782C114.206 15.0279 113.932 15.2033 113.754 15.4044C113.406 15.8252 113.333 16.6314 113.533 17.823C113.734 19.0146 114.178 20.4635 114.867 22.1698C115.915 24.7663 116.956 26.438 117.991 27.185C119.037 27.9059 120.107 28.0455 121.201 27.6038L123.204 26.7952L122.251 23.0712L123.681 22.5262L125.696 27.4391C125.303 27.7486 124.451 28.2546 123.138 28.957C121.826 29.6594 121.021 30.0705 120.724 30.1902ZM127.848 25.7938L129.348 24.5411L123.88 10.9929L121.931 11.1328L121.504 10.0756L132.576 5.60593L134.18 10.6204L132.677 11.2268L130.957 7.84506L126.524 10.0875L128.747 15.5959L132.864 14.0953L133.392 15.4029L129.387 17.1816L131.857 23.3019L136.877 21.793L135.862 17.9967L137.365 17.3903L139.486 22.3251L128.275 26.8509L127.848 25.7938ZM147.059 19.5589C145.668 20.1204 143.823 20.7576 141.522 21.4706L139.662 16.301L141.22 15.6721L142.923 18.6082C143.691 18.4275 144.474 18.23 145.272 18.0158C146.081 17.7755 146.735 17.5543 147.236 17.3522C147.347 17.3073 147.447 17.1268 147.535 16.8108C147.623 16.4949 147.674 16.14 147.688 15.7463C147.694 15.334 147.634 14.9702 147.506 14.6549C147.214 13.9316 146.702 13.4374 145.97 13.1723C145.256 12.8998 144.228 12.6783 142.887 12.508C141.813 12.3591 140.929 12.1985 140.234 12.0262C139.539 11.8538 138.877 11.5495 138.248 11.1132C137.638 10.6695 137.175 10.0581 136.861 9.27917C136.651 8.75987 136.503 8.25895 136.416 7.7764C136.474 7.27853 136.7 6.63714 137.095 5.85222C137.49 5.06731 137.934 4.34909 138.425 3.69757C138.91 3.02751 139.31 2.62884 139.625 2.50156C139.773 2.44167 140.909 2.10195 143.031 1.4824C143.261 1.4111 143.501 1.33606 143.749 1.25728C143.998 1.1785 144.25 1.10899 144.506 1.04875L146.254 5.94018L144.696 6.56908L143.133 3.89992C142.495 4.02822 141.749 4.21072 140.896 4.44741C140.053 4.65806 139.428 4.84575 139.02 5.01046C138.779 5.10779 138.642 5.35706 138.61 5.75828C138.57 6.14096 138.689 6.6754 138.966 7.36162C139.265 8.10348 139.776 8.61997 140.497 8.9111C141.219 9.20222 142.205 9.42936 143.457 9.59252C144.691 9.76317 145.655 9.93468 146.35 10.107C147.056 10.2534 147.733 10.5409 148.381 10.9697C149.028 11.3985 149.52 12.0301 149.857 12.8647C150.044 13.3284 150.172 13.8052 150.24 14.2953C150.205 14.8488 149.999 15.5143 149.623 16.2917C149.246 17.0691 148.808 17.7743 148.309 18.4073C147.828 19.0328 147.412 19.4166 147.059 19.5589Z" fill="#9FBFB5"/>
</svg>
