<svg width="115" height="70" viewBox="0 0 115 70" fill="none" xmlns="http://www.w3.org/2000/svg">
<path d="M5.29532 50.3947C4.45375 50.8134 3.80397 51.483 3.34598 52.4034C2.88799 53.3238 2.71128 54.4728 2.81585 55.8505C2.94723 57.2372 3.43605 58.7811 4.28232 60.4822C4.88806 61.6999 5.51644 62.7834 6.16745 63.7328C6.82736 64.7001 7.43409 65.4258 7.98765 65.9099C8.47003 66.206 9.13587 66.4443 9.98519 66.6249C10.8434 66.8233 11.6615 66.9412 12.4396 66.9785C13.2176 67.0158 13.741 66.9676 14.0095 66.834C14.5199 66.5577 15.2273 66.161 16.1317 65.644C17.0628 65.136 17.9672 64.6189 18.8448 64.0929L16.2108 59.6065L14.7605 60.3282L15.8011 63.2283C15.4159 63.5317 14.8875 63.8839 14.2159 64.2851C13.5443 64.6863 13.0294 64.976 12.6713 65.1542C12.3132 65.3324 12 65.4213 11.7317 65.4207C11.1861 65.4018 10.5342 64.922 9.77583 63.9813C9.01748 63.0407 8.22854 61.7466 7.409 60.0992C6.16187 57.5923 5.60218 55.7039 5.72994 54.434C5.88452 53.1731 6.49003 52.2798 7.54647 51.7541L9.48029 50.7919L11.6339 53.9759L12.9903 53.2674L10.6521 48.4999C10.16 48.5884 9.21578 48.8906 7.81949 49.4067C6.4232 49.9228 5.58181 50.2521 5.29532 50.3947ZM19.8542 43.1503C17.4548 44.3442 15.976 45.8619 15.4178 47.7034C14.8685 49.5628 15.2664 51.8445 16.6115 54.5484C17.2083 55.7481 17.8189 56.7958 18.4432 57.6915C19.0764 58.6051 19.6742 59.3129 20.2367 59.8149C20.719 60.111 21.3759 60.3538 22.2073 60.5432C23.0656 60.7417 23.8837 60.8596 24.6617 60.8969C25.4577 60.9252 25.99 60.8726 26.2586 60.739C28.6579 59.5451 30.1323 58.0184 30.6816 56.159C31.2398 54.3175 30.8419 52.0358 29.4879 49.314C28.4545 47.2369 27.2954 45.468 26.0104 44.0076C25.5279 43.7562 24.8396 43.5402 23.9456 43.3595C23.0695 43.17 22.229 43.0521 21.4241 43.0058C20.6461 42.9685 20.1228 43.0167 19.8542 43.1503ZM20.441 44.8688C20.638 44.7708 21.13 44.727 21.917 44.7375C22.722 44.7391 23.1915 44.7847 23.3254 44.8744C24.4139 46.2093 25.5016 47.969 26.5883 50.1536C27.7019 52.392 28.2572 54.2043 28.2544 55.5907C28.2517 56.9772 27.543 58.0223 26.1284 58.7262C25.2331 59.1717 24.5261 59.3894 24.0074 59.3795C23.444 59.3694 22.7786 58.8851 22.0113 57.9265C21.262 56.9591 20.4375 55.571 19.5377 53.7625C18.6648 52.0076 18.1131 50.5844 17.8827 49.4927C17.6703 48.3921 17.766 47.4844 18.1699 46.7696C18.5738 46.0548 19.3309 45.4212 20.441 44.8688ZM36.7979 34.7863C36.7262 34.8219 36.6186 34.9648 36.475 35.215L37.2341 44.6888C37.3125 45.7445 37.5276 47.7708 37.8793 50.768L37.6913 50.8615L32.7888 40.3331L32.3078 39.3661L33.8132 37.9469L33.2386 36.7919L27.5177 39.6386L28.0255 40.6592L29.958 40.3678L36.4653 53.4486L35.0673 54.8144L35.5751 55.8351L40.5171 53.376L39.7204 42.547C39.6592 41.8402 39.4081 39.9435 38.9671 36.8567L39.182 36.7498L44.4987 48.1109L44.9664 49.051L43.461 50.4703L44.0355 51.6252L49.7564 48.7786L49.2487 47.7579L47.3162 48.0493L40.1274 33.5987C39.662 33.7409 39.0534 33.9544 38.3015 34.2391C37.5587 34.4971 37.0574 34.6795 36.7979 34.7863ZM46.4419 31.4954L48.3744 31.204L54.8817 44.2848L51.874 45.5803L49.9485 42.3834L48.525 43.0917L50.6879 48.3151L63.1234 42.1273L60.2622 37.2513L58.8118 37.973L60.2001 41.4373L57.3796 43.0419L50.9391 30.0954L52.4445 28.6761L51.8699 27.5211L45.9342 30.4747L46.4419 31.4954ZM55.2549 27.1101L57.1874 26.8187L68.6736 39.131C69.2911 38.9354 69.9042 38.7309 70.5128 38.5174C71.1393 38.295 71.5734 38.1349 71.8151 38.0369C71.8867 38.0013 71.9943 37.8584 72.1379 37.6082L69.2469 20.818L70.6449 19.4522L70.1372 18.4315L63.9865 21.492L64.5611 22.647L66.6547 22.2754L67.4646 26.5302L62.4689 29.016L59.6178 25.7769L61.2575 24.2908L60.6829 23.1359L54.7471 26.0895L55.2549 27.1101ZM67.7699 28.1542L69.4171 36.3149L69.0948 36.4753L63.5799 30.2391L67.7699 28.1542ZM75.6419 15.3908C74.8003 15.8096 74.1505 16.4792 73.6926 17.3996C73.2346 18.32 73.0579 19.469 73.1624 20.8467C73.2938 22.2334 73.7826 23.7773 74.6289 25.4784C75.2346 26.6961 75.863 27.7796 76.514 28.729C77.1739 29.6963 77.7807 30.422 78.3342 30.9061C78.8166 31.2022 79.4825 31.4405 80.3318 31.6211C81.19 31.8195 82.0081 31.9374 82.7862 31.9747C83.5642 32.012 84.0875 31.9638 84.3561 31.8301C84.8665 31.5539 85.5739 31.1572 86.4782 30.6402C87.4094 30.1321 88.3138 29.6151 89.1914 29.0891L86.5574 24.6027L85.107 25.3244L86.1477 28.2245C85.7625 28.5278 85.2341 28.8801 84.5625 29.2813C83.8909 29.6825 83.376 29.9722 83.0179 30.1504C82.6598 30.3286 82.3466 30.4175 82.0783 30.4169C81.5327 30.398 80.8808 29.9182 80.1224 28.9775C79.3641 28.0368 78.5751 26.7428 77.7556 25.0954C76.5084 22.5885 75.9488 20.7001 76.0765 19.4302C76.2311 18.1693 76.8366 17.276 77.893 16.7503L79.8269 15.7881L81.9804 18.9721L83.3369 18.2636L80.9986 13.4961C80.5066 13.5846 79.5624 13.8868 78.1661 14.4029C76.7698 14.919 75.9284 15.2483 75.6419 15.3908ZM86.0479 11.7878L87.9804 11.4964L94.4877 24.5772L91.48 25.8728L89.5545 22.6758L88.131 23.3841L90.2939 28.6075L102.729 22.4197L99.8682 17.5438L98.4178 18.2654L99.8062 21.7297L96.9856 23.3343L90.5451 10.3878L92.0505 8.96852L91.4759 7.81355L85.5402 10.7671L86.0479 11.7878ZM101.173 2.68683C99.83 3.35506 98.1287 4.3133 96.0691 5.56153L98.7024 10.3833L100.206 9.63492L99.1397 6.41278C99.7845 5.95786 100.452 5.50298 101.141 5.04815C101.858 4.60232 102.458 4.25912 102.941 4.01855C103.049 3.96509 103.25 4.01021 103.545 4.1539C103.839 4.29759 104.139 4.49495 104.442 4.74599C104.755 5.01494 104.987 5.30162 105.138 5.60603C105.486 6.30439 105.515 7.01555 105.228 7.7395C104.958 8.45454 104.442 9.37036 103.679 10.487C103.078 11.3892 102.612 12.1575 102.28 12.7919C101.947 13.4264 101.736 14.1236 101.645 14.8837C101.572 15.635 101.722 16.3866 102.096 17.1387C102.346 17.6401 102.622 18.0834 102.926 18.4686C103.336 18.7556 103.966 19.0117 104.816 19.237C105.665 19.4623 106.496 19.607 107.31 19.6712C108.133 19.7533 108.696 19.7186 109.001 19.5672C109.144 19.4959 110.152 18.8717 112.023 17.6947C112.229 17.5699 112.444 17.4406 112.668 17.3069C112.892 17.1731 113.111 17.0304 113.326 16.8788L110.826 12.3256L109.322 13.074L110.282 16.0142C109.763 16.4067 109.131 16.8438 108.388 17.3254C107.672 17.8159 107.116 18.1592 106.723 18.3552C106.49 18.471 106.213 18.4079 105.891 18.1658C105.579 17.9415 105.257 17.4981 104.928 16.8356C104.572 16.1193 104.524 15.3947 104.785 14.6618C105.045 13.9288 105.53 13.0398 106.239 11.9946C106.93 10.9584 107.441 10.1231 107.773 9.48866C108.132 8.86324 108.366 8.16601 108.475 7.39699C108.584 6.62796 108.438 5.84055 108.037 5.03475C107.814 4.58709 107.543 4.1751 107.221 3.7988C106.784 3.45805 106.149 3.17059 105.318 2.93641C104.487 2.70223 103.669 2.562 102.864 2.5157C102.077 2.4605 101.513 2.51755 101.173 2.68683Z" fill="#686565"/>
</svg>
