<svg width="54" height="11" viewBox="0 0 54 11" fill="none" xmlns="http://www.w3.org/2000/svg">
<path d="M3.345 10.1351C2.875 10.1351 2.435 9.98012 2.025 9.67012C1.615 9.36012 1.28 8.88512 1.02 8.24512C0.77 7.59512 0.645 6.79512 0.645 5.84512C0.645 5.16512 0.685 4.54012 0.765 3.97012C0.845 3.39012 0.955 2.93012 1.095 2.59012C1.245 2.35012 1.49 2.09512 1.83 1.82512C2.17 1.54512 2.51 1.31012 2.85 1.12012C3.19 0.930122 3.435 0.835122 3.585 0.835122C3.875 0.845122 4.28 0.865122 4.8 0.895121C5.33 0.915122 5.85 0.945122 6.36 0.985122L6.18 3.58012H5.37L5.19 2.05012C4.95 2.00012 4.635 1.96012 4.245 1.93012C3.855 1.90012 3.56 1.88512 3.36 1.88512C3.16 1.88512 3 1.91512 2.88 1.97512C2.64 2.10512 2.455 2.46512 2.325 3.05512C2.195 3.64512 2.13 4.40012 2.13 5.32012C2.13 6.72012 2.3 7.69012 2.64 8.23012C2.99 8.76012 3.46 9.02512 4.05 9.02512H5.13L5.385 7.12012L6.15 7.13512L6.165 9.79012C5.925 9.86012 5.435 9.93512 4.695 10.0151C3.955 10.0951 3.505 10.1351 3.345 10.1351ZM11.4758 10.1351C10.1358 10.1351 9.13582 9.78512 8.47582 9.08512C7.81582 8.37512 7.48582 7.26512 7.48582 5.75512C7.48582 5.08512 7.52582 4.48012 7.60582 3.94012C7.68582 3.39012 7.79582 2.94012 7.93582 2.59012C8.08582 2.35012 8.32582 2.09512 8.65582 1.82512C8.99582 1.54512 9.33582 1.31012 9.67582 1.12012C10.0258 0.930122 10.2758 0.835122 10.4258 0.835122C11.7658 0.835122 12.7658 1.19012 13.4258 1.90012C14.0858 2.60012 14.4158 3.71012 14.4158 5.23012C14.4158 6.39012 14.2908 7.44012 14.0408 8.38012C13.8808 8.60012 13.6208 8.85012 13.2608 9.13012C12.9108 9.41012 12.5608 9.65012 12.2108 9.85012C11.8708 10.0401 11.6258 10.1351 11.4758 10.1351ZM11.3558 9.23512C11.4658 9.23512 11.6958 9.14512 12.0458 8.96512C12.4058 8.78512 12.6058 8.66012 12.6458 8.59012C12.8358 7.75012 12.9308 6.72012 12.9308 5.50012C12.9308 4.25012 12.7758 3.31512 12.4658 2.69512C12.1558 2.07512 11.6058 1.76512 10.8158 1.76512C10.3158 1.76512 9.95082 1.82512 9.72082 1.94512C9.47082 2.07512 9.28082 2.44012 9.15082 3.04012C9.03082 3.64012 8.97082 4.44512 8.97082 5.45512C8.97082 6.43512 9.04082 7.19512 9.18082 7.73512C9.33082 8.27512 9.57582 8.66012 9.91582 8.89012C10.2558 9.12012 10.7358 9.23512 11.3558 9.23512ZM20.9236 10.1051C20.8836 10.1051 20.8036 10.0651 20.6836 9.98512L18.9136 5.57512C18.7136 5.08512 18.3586 4.13012 17.8486 2.71012H17.7436L17.8936 8.51512V9.05512L18.8836 9.35512V10.0001H15.6886V9.43012L16.6186 9.13012V1.82512L15.6886 1.52512V0.955121H18.4486L20.5036 5.98012C20.6336 6.31012 20.9436 7.21512 21.4336 8.69512H21.5536L21.4036 2.42512V1.90012L20.4136 1.60012V0.955121H23.6086V1.52512L22.6786 1.82512V9.89512C22.4386 9.93512 22.1186 9.97512 21.7186 10.0151C21.3286 10.0651 21.0636 10.0951 20.9236 10.1051ZM25.9738 9.43012L26.9038 9.13012V1.82512L25.2688 1.91512L25.1188 3.77512H24.3238L24.1288 0.955121H31.0738L30.8788 3.77512H30.0688L29.9188 1.91512L28.2988 1.82512V9.05512L29.2888 9.35512V10.0001H25.9738V9.43012ZM30.8957 9.43012L31.8257 9.13012L34.2257 1.06012C34.5457 1.01012 34.8657 0.965122 35.1857 0.925122C35.5157 0.885122 35.7457 0.860122 35.8757 0.850122C35.9157 0.850122 35.9957 0.890122 36.1157 0.970121L38.5607 9.13012L39.4907 9.43012V10.0001H36.0557V9.35512L37.0757 9.05512L36.4907 6.97012H33.7007L33.1457 9.05512L34.2107 9.35512V10.0001H30.8957V9.43012ZM36.2657 6.17512L35.1857 2.15512H35.0057L33.9257 6.17512H36.2657ZM42.6321 10.1351C42.1621 10.1351 41.7221 9.98012 41.3121 9.67012C40.9021 9.36012 40.5671 8.88512 40.3071 8.24512C40.0571 7.59512 39.9321 6.79512 39.9321 5.84512C39.9321 5.16512 39.9721 4.54012 40.0521 3.97012C40.1321 3.39012 40.2421 2.93012 40.3821 2.59012C40.5321 2.35012 40.7771 2.09512 41.1171 1.82512C41.4571 1.54512 41.7971 1.31012 42.1371 1.12012C42.4771 0.930122 42.7221 0.835122 42.8721 0.835122C43.1621 0.845122 43.5671 0.865122 44.0871 0.895121C44.6171 0.915122 45.1371 0.945122 45.6471 0.985122L45.4671 3.58012H44.6571L44.4771 2.05012C44.2371 2.00012 43.9221 1.96012 43.5321 1.93012C43.1421 1.90012 42.8471 1.88512 42.6471 1.88512C42.4471 1.88512 42.2871 1.91512 42.1671 1.97512C41.9271 2.10512 41.7421 2.46512 41.6121 3.05512C41.4821 3.64512 41.4171 4.40012 41.4171 5.32012C41.4171 6.72012 41.5871 7.69012 41.9271 8.23012C42.2771 8.76012 42.7471 9.02512 43.3371 9.02512H44.4171L44.6721 7.12012L45.4371 7.13512L45.4521 9.79012C45.2121 9.86012 44.7221 9.93512 43.9821 10.0151C43.2421 10.0951 42.7921 10.1351 42.6321 10.1351ZM48.0929 9.43012L49.0229 9.13012V1.82512L47.3879 1.91512L47.2379 3.77512H46.4429L46.2479 0.955121H53.1929L52.9979 3.77512H52.1879L52.0379 1.91512L50.4179 1.82512V9.05512L51.4079 9.35512V10.0001H48.0929V9.43012Z" fill="#9FBFB5"/>
</svg>
