<svg width="348" height="52" viewBox="0 0 348 52" fill="none" xmlns="http://www.w3.org/2000/svg">
<path d="M7.16353 51.5924C6.51019 51.5924 5.00063 51.2424 2.63482 50.5426L0.197604 49.9127L0.264341 46.6234C4.69768 46.6234 7.26576 46.5534 7.9686 46.4134C9.46762 46.1335 10.2706 43.3574 10.3776 38.0852L11.0521 4.842L6.53045 3.44229L6.58441 0.782834H22.1944L22.1405 3.44229L17.5621 4.842L16.8421 40.3247C16.8147 41.6777 16.1534 43.2174 14.8584 44.9437C13.6091 46.7167 12.2012 48.2564 10.6347 49.5628C9.06725 50.9158 7.91019 51.5924 7.16353 51.5924ZM24.5268 40.3247L28.8952 38.925L40.8592 1.27274C42.3572 1.03945 43.8548 0.829494 45.3519 0.642865C46.8957 0.456237 47.9714 0.339594 48.579 0.292938C48.7657 0.292938 49.1353 0.479565 49.6877 0.852819L60.3252 38.925L64.6368 40.3247L64.5829 42.9841H48.5529L48.6139 39.9748L53.4023 38.5751L50.8697 28.8471H37.8497L35.0623 38.5751L40.0039 39.9748L39.9429 42.9841H24.4729L24.5268 40.3247ZM49.895 25.1378L45.2355 6.38168H44.3955L38.975 25.1378H49.895ZM81.0338 43.614C77.5338 43.614 72.9885 43.3807 67.398 42.9142L68.1478 30.1068H72.0678L73.0288 37.9452C74.8431 38.2251 76.7046 38.4817 78.6132 38.715C80.5694 38.9017 82.1775 38.995 83.4375 38.995C83.7175 38.995 84.097 38.6917 84.5759 38.0852C85.0549 37.4786 85.4896 36.7554 85.88 35.9156C86.2713 35.0291 86.475 34.1893 86.4911 33.3961C86.528 31.5765 85.8821 30.0601 84.5534 28.8471C83.2713 27.634 81.2692 26.2576 78.5472 24.7179C76.3794 23.4582 74.6288 22.3384 73.2953 21.3586C71.9619 20.3788 70.8203 19.1424 69.8706 17.6494C68.9675 16.1563 68.5359 14.43 68.5756 12.4704C68.6021 11.164 68.7434 9.95095 68.9995 8.83118C69.5803 7.80472 70.6544 6.61497 72.2219 5.26191C73.7894 3.90886 75.3997 2.74243 77.0529 1.76263C78.7071 0.736179 79.9308 0.222953 80.7241 0.222953C81.0975 0.222953 83.8456 0.479566 88.9685 0.992793C89.5276 1.03945 90.11 1.08611 90.7157 1.13276C91.3214 1.17942 91.9266 1.24941 92.5314 1.34272L91.7958 13.4502H87.8758L86.9706 6.3117C85.4829 6.03175 83.7148 5.77514 81.6662 5.54186C79.6652 5.26191 78.1514 5.12194 77.1247 5.12194C76.5181 5.12194 75.9962 5.54186 75.5592 6.38168C75.1231 7.17485 74.8875 8.43459 74.8525 10.1609C74.8146 12.0272 75.4363 13.5902 76.7174 14.8499C77.9985 16.1097 79.9077 17.4627 82.445 18.9091C84.9357 20.3555 86.8477 21.5686 88.1812 22.5484C89.5622 23.4815 90.751 24.6946 91.7473 26.1876C92.7437 27.6806 93.2206 29.4769 93.178 31.5765C93.1543 32.7429 92.9911 33.886 92.6884 35.0058C92.1048 36.1722 91.0525 37.432 89.5317 38.785C88.011 40.1381 86.4244 41.2812 84.7722 42.2143C83.1666 43.1474 81.9204 43.614 81.0338 43.614ZM116.832 43.614C110.579 43.614 105.945 41.981 102.932 38.715C99.9188 35.4024 98.4839 30.2234 98.6268 23.1782C98.6903 20.0522 98.9342 17.2294 99.3586 14.71C99.784 12.1438 100.34 10.0443 101.026 8.41127C101.749 7.2915 102.893 6.10174 104.459 4.842C106.072 3.5356 107.681 2.43916 109.286 1.55268C110.937 0.666195 112.113 0.222953 112.813 0.222953C119.066 0.222953 123.699 1.87928 126.712 5.19193C129.725 8.45792 131.16 13.6369 131.017 20.7287C130.907 26.1409 130.224 31.0399 128.968 35.4257C128.201 36.4522 126.964 37.6186 125.257 38.925C123.598 40.2314 121.941 41.3512 120.289 42.2843C118.685 43.1708 117.532 43.614 116.832 43.614ZM116.357 39.4149C116.871 39.4149 117.953 38.995 119.603 38.1551C121.3 37.3153 122.245 36.7321 122.438 36.4055C123.405 32.4863 123.945 27.6806 124.061 21.9885C124.179 16.1563 123.544 11.7939 122.157 8.90116C120.769 6.00843 118.231 4.56206 114.545 4.56206C112.211 4.56206 110.502 4.842 109.417 5.40189C108.239 6.00843 107.317 7.71141 106.654 10.5108C106.037 13.3103 105.681 17.0662 105.585 21.7785C105.492 26.3509 105.747 29.8968 106.349 32.4163C106.998 34.9358 108.105 36.7321 109.67 37.8052C111.235 38.8783 113.464 39.4149 116.357 39.4149ZM160.925 43.474C160.738 43.474 160.368 43.2874 159.816 42.9142L151.973 22.3384C151.087 20.0522 149.52 15.5965 147.275 8.97115H146.785L146.935 36.0556L146.884 38.5751L151.476 39.9748L151.415 42.9841H136.505L136.559 40.3247L140.927 38.925L141.618 4.842L137.307 3.44229L137.361 0.782834H150.241L159.355 24.228C159.931 25.7677 161.292 29.9902 163.438 36.8954H163.998L163.892 7.64143L163.941 5.19193L159.35 3.79222L159.411 0.782834H174.321L174.267 3.44229L169.898 4.842L169.135 42.4942C168.011 42.6809 166.514 42.8675 164.643 43.0541C162.818 43.2874 161.579 43.4274 160.925 43.474Z" fill="#9FBFB5"/>
<path d="M213.215 43.614C211.021 43.614 208.983 42.8908 207.099 41.4445C205.215 39.9981 203.696 37.7819 202.543 34.7958C201.438 31.7631 200.931 28.0306 201.021 23.5981C201.085 20.4255 201.331 17.5094 201.758 14.8499C202.186 12.1438 202.743 9.99761 203.429 8.41127C204.152 7.2915 205.319 6.10174 206.931 4.842C208.544 3.5356 210.153 2.43916 211.758 1.55268C213.363 0.666195 214.515 0.222953 215.215 0.222953C216.567 0.269609 218.455 0.362922 220.879 0.502892C223.351 0.596207 225.775 0.736179 228.151 0.922808L227.065 13.0303H223.285L222.59 5.89178C221.475 5.6585 220.008 5.47187 218.191 5.3319C216.374 5.19193 214.999 5.12194 214.066 5.12194C213.132 5.12194 212.383 5.26191 211.817 5.54186C210.685 6.1484 209.787 7.82805 209.125 10.5808C208.462 13.3336 208.087 16.8562 208 21.1486C207.868 27.6806 208.569 32.2064 210.105 34.7258C211.688 37.1987 213.856 38.4351 216.61 38.4351H221.65L223.02 29.5469L226.589 29.6169L226.407 42.0043C225.281 42.3309 222.987 42.6809 219.526 43.0541C216.065 43.4274 213.961 43.614 213.215 43.614ZM232.535 40.3247L236.904 38.925L237.595 4.842L233.283 3.44229L233.337 0.782834H248.807L248.746 3.79222L244.098 5.19193L243.81 19.399H259.7L259.988 5.19193L255.396 3.79222L255.457 0.782834H270.927L270.873 3.44229L266.505 4.842L265.814 38.925L270.125 40.3247L270.071 42.9841H254.601L254.662 39.9748L259.311 38.5751L259.624 23.1082H243.734L243.421 38.5751L248.012 39.9748L247.951 42.9841H232.481L232.535 40.3247ZM276.012 40.3247L280.38 38.925L281.072 4.842L276.76 3.44229L276.814 0.782834H304.674L303.515 13.0303H299.735L299.144 4.21213L287.575 5.19193L287.293 19.0491L297.506 19.399L297.44 22.6883L287.212 23.0383L286.9 38.4351L299.057 39.5549L300.362 30.4567H304.142L304.168 42.9841H275.958L276.012 40.3247ZM333.6 43.474C333.414 43.474 333.044 43.2874 332.492 42.9142L324.649 22.3384C323.762 20.0522 322.196 15.5965 319.95 8.97115H319.46L319.611 36.0556L319.56 38.5751L324.151 39.9748L324.09 42.9841H309.18L309.234 40.3247L313.603 38.925L314.294 4.842L309.983 3.44229L310.037 0.782834H322.917L332.031 24.228C332.606 25.7677 333.967 29.9902 336.114 36.8954H336.674L336.567 7.64143L336.617 5.19193L332.026 3.79222L332.087 0.782834H346.997L346.943 3.44229L342.574 4.842L341.81 42.4942C340.687 42.6809 339.189 42.8675 337.319 43.0541C335.494 43.2874 334.255 43.4274 333.6 43.474Z" fill="#9FBFB5"/>
</svg>
