<svg width="83" height="50" viewBox="0 0 83 50" fill="none" xmlns="http://www.w3.org/2000/svg">
<path d="M7.61081 47.8695L9.0886 46.5905L7.20248 29.8573C7.75255 29.5152 8.30653 29.1823 8.86441 28.8586C9.4407 28.5271 9.8446 28.3014 10.0761 28.1814C10.1498 28.1501 10.3283 28.1613 10.6117 28.2148L21.4879 41.3276L23.4345 41.1533L23.8798 42.2027L17.5558 44.8868L17.0519 43.6993L18.6954 42.35L15.9895 38.9684L10.8531 41.1485L11.4602 45.4209L13.6552 45.141L14.1591 46.3285L8.05611 48.9189L7.61081 47.8695ZM14.9542 37.6805L9.82533 31.1232L9.49394 31.2639L10.6462 39.509L14.9542 37.6805ZM24.4893 40.7056L25.967 39.4265L20.2601 25.9773L18.3136 26.1516L17.8683 25.1022L24.6893 22.2071C26.1253 21.5976 27.3298 21.4666 28.3028 21.814C29.2759 22.1615 30.0983 23.1269 30.7702 24.7102C31.2077 25.7412 31.2925 26.6069 31.0248 27.3071C30.7571 28.0074 30.3437 28.6717 29.7847 29.3L29.8551 29.4657C31.0194 29.1888 32.0683 29.2542 33.0017 29.6619C33.9457 30.0434 34.6365 30.7497 35.074 31.7807C35.8083 33.5113 35.8715 34.9402 35.2635 36.0674C34.6739 37.1867 33.615 38.0707 32.087 38.7192L24.9346 41.755L24.4893 40.7056ZM27.2533 30.016C28.0265 29.6878 28.5007 29.2693 28.6759 28.7604C28.8616 28.2253 28.7162 27.3962 28.2396 26.2731C27.7084 25.0212 27.2374 24.1673 26.8268 23.7115C26.4267 23.2295 26.0175 23.1099 25.5991 23.3527L22.8401 24.9148L25.3478 30.8248L27.2533 30.016ZM32.3094 37.0931C32.8852 36.9139 33.1677 36.4789 33.1571 35.7882C33.1386 35.079 32.8286 34.0156 32.227 32.598C31.9145 31.8615 31.5959 31.3667 31.2712 31.1134C30.9386 30.8417 30.5964 30.7263 30.2443 30.7671C29.8923 30.8079 29.4309 30.9494 28.8602 31.1916L26.0158 32.3989L28.5001 38.2536L32.3094 37.0931ZM46.5177 32.8875C44.0508 33.9346 41.9363 34.0716 40.1743 33.2986C38.4046 32.5071 36.9299 30.7214 35.7502 27.9413C35.2268 26.7078 34.8278 25.5626 34.5532 24.5059C34.2708 23.4308 34.1217 22.5163 34.1061 21.7626C34.1947 21.2035 34.4373 20.5465 34.8339 19.7915C35.2412 19.0103 35.6835 18.312 36.161 17.6965C36.657 17.0732 37.043 16.7029 37.3191 16.5857C39.7861 15.5386 41.9045 15.4108 43.6743 16.2023C45.4362 16.9753 46.9109 18.7611 48.0984 21.5595C49.0046 23.6952 49.5948 25.7261 49.8689 27.652C49.7462 28.1821 49.4629 28.8456 49.0188 29.6424C48.5932 30.4314 48.1364 31.1467 47.6482 31.7885C47.1707 32.4039 46.7939 32.7703 46.5177 32.8875ZM45.5937 31.3243C45.7962 31.2383 46.1493 30.8929 46.6531 30.288C47.1752 29.6753 47.4458 29.2889 47.4647 29.1287C47.1583 27.4338 46.5285 25.4632 45.5754 23.217C44.5989 20.9157 43.583 19.3153 42.528 18.4161C41.4729 17.5168 40.2181 17.3759 38.7637 17.9932C37.8432 18.3839 37.2181 18.7796 36.8884 19.1802C36.5297 19.6149 36.4651 20.4354 36.6945 21.6416C36.9423 22.8401 37.4607 24.3691 38.2498 26.2286C39.0154 28.0329 39.738 29.3774 40.4176 30.2622C41.1156 31.1392 41.8675 31.6566 42.6731 31.8143C43.4787 31.9721 44.4523 31.8088 45.5937 31.3243ZM59.923 27.1651C57.1799 28.3294 55.113 27.273 53.7224 23.9958L49.328 13.6396L47.3814 13.814L46.9361 12.7646L53.0392 10.1742L53.5431 11.3617L51.9548 12.6876L56.0446 22.3258C56.5993 23.633 57.1176 24.445 57.5997 24.7619C58.0924 25.0525 58.5872 25.0923 59.0843 24.8813C59.3973 24.7485 59.925 24.405 60.6676 23.8508C61.4207 23.2704 62.1278 22.7096 62.7889 22.1683L57.7264 10.2379L55.6694 10.4592L55.1655 9.27167L61.2686 6.68129L61.7139 7.73073L60.2361 9.00977L65.943 22.459L67.8896 22.2847L68.3349 23.3341L64.6896 24.8813L63.4183 23.4981C63.2945 23.6158 63.16 23.7598 63.015 23.93C62.8699 24.1002 62.7065 24.2782 62.5246 24.464C60.9927 26.1788 60.1256 27.0792 59.923 27.1651ZM72.6582 20.2607L74.136 18.9816L68.429 5.53234L65.4893 6.97564L66.6662 10.5173L65.2026 11.1385L62.6405 6.09899L75.4265 0.672089L77.2705 6.01638L75.7793 6.64932L74.0501 3.34208L70.9973 4.44227L76.6456 17.7535L78.7026 17.5322L79.2065 18.7197L73.1035 21.3101L72.6582 20.2607Z" fill="#9FBFB5"/>
</svg>
